<?xml version="1.0" encoding="UTF-8"?><svg id="Layer_2" xmlns="http://www.w3.org/2000/svg" viewBox="0 0 524.31 414.28"><g id="Layer_1-2"><g><path d="M524.31,195.68c-3.42-.52-5.62-3.97-10.09-2.95-2.52,.57-3.11,1.16-3.64,3.07-.16,.57-.43,1.11-.91,1.63-.25-1.1-3.53-1.97,.11-3.32,1.73-.64,.65-2.43,.2-3.9-.83-2.77-2.51-2.05-4.43-1.08,.61-2.13,2.73-1.34,3.41-2.32,1.01-1.47-1.67-2.3-1.18-3.97,1.36-.1,.79,1.72,1.9,1.78,.13-.12,.45-.3,.43-.39-.47-1.62-.58-3.56-1.58-4.76-1.04-1.26,.07-1.46,.38-2.05,.28-.52,.74-1.15,1.44-.93,.93,.29,.84,1.25,.66,1.9-.94,3.43,2.23,6.38,1.09,9.87-.21,.64,.85,1.46,1.5,1.43,4.33-.24,6.92,3.54,10.71,4.48v1.5Z"/><path d="M166.21,83.49c-1.91,2.02-1.8,3.32,1.29,3.4,9.42,.24,14.88-4.49,16-13.82,.82-6.88,4.18-8.66,10.46-5.54,.97,.48,1.88,1.17,3.49,.88-2.48-3.62-1.41-7.07-.02-10.63,.29-.75,2.19-2.1-.31-3.31-1.03-.5,.66-2.24,1.61-2.82,2.49-1.51,4.36-3.32,4.69-6.37,.03-.28,.44-.71,.72-.74,3.62-.43,6.04-3.04,8.97-4.85-2.27,3.46-3.61,7.66-8.25,9.13,2.32,.52,3.69-1.66,6.76-1.11-2.82,1.72-5.1,3.01-7.25,4.33-4.76,2.92-5.21,7.8-6.28,12.39-.38,1.66,.6,2.37,2.54,1.86,3-.8,5.49-2.63,8.58-3.46-1.12,2.16-3.31,3.1-5.25,4.32-.95,.59-3.04,.54-2.29,2.21,.63,1.41,.69,3.73,2.89,3.91,1.51,.13,2.16,.2,1.28,1.88-1.53,2.93-.59,5.4,1.75,7.49l-.09-.08c-2.26,3.03,.11,6.47-1.3,9.7,2.17-.11,2.72-2.89,5.44-1.79-9.2,6.48-12.49,16.68-17.66,25.77,3.64-2.12,5.84-6.46,10.59-6.65l-.1-.1c-.94,2.86-3.88,3.67-5.77,5.56-3.24,3.25-6.82,6.15-10.26,9.2-.97,.87-1.71,1.89-3.39,.9-.72-.42-.88-.7-.71-1.21,.45-1.31,1.07-2.94,2.5-3,4.98-.2,3.21-2.24,2.18-5.22-.75-2.18,.35-5.07,.87-7.59,.53-2.53,1.36-4.99,2.21-8-2.54,1.38-4.13,3.37-5.14,5.39-2.32,4.66-5.68,8.88-5.34,14.71,.27,4.6,4.02,10.39,8.44,11.35,2.35,.51,4.21,.05,6.14-1.62,8.94-7.76,18.26-15.04,28.05-21.72,2.04-1.39,3.97-2.96,5.94-4.45,.66-.5,1.34-1.53,2.1-.36,.47,.73-.34,1.24-.92,1.76-3.51,3.17-7.67,5.44-11.44,8.26-7.67,5.74-14.26,12.67-22.06,18.5,2.34,1.78,4.16,1.47,6.05-.33,3.23-3.09,6.58-6.04,10.32-8.52,.71-.47,1.25-1.29,2.28-.83l-.07-.07c-1.8,3.64-5.54,5.35-8.14,8.19-1.25,1.37-2.76,2.5-4.1,3.79-.55,.53-.92,1.22-.18,1.94,.66,.64,1.29,.54,1.99,0,1.17-.92,2.53-1.64,3.54-2.7,5.57-5.86,12.23-10.47,18.23-15.84,2.68-2.4,5.42-4.41,7.21-7.62,1.11-1.99,3.16-3.16,5.14-4.23,4.48-2.41,8.52-5.2,10.03-10.45,.32-1.1,1.36-1.34,2.17-1.9,4.45-3.05,6.47-8.46,5.14-13.59-.12-.46-.31-1.29-.17-1.36,3.77-1.95,.43-3.23-.53-4.47-1.82-2.36-2.08-4.73-.69-7.29,.65-1.2,1.32-2.44,2.22-3.45,4.82-5.41,11.25-8.84,16.73-13.45l-.09-.09c.36,.43-.96,2.12,1.02,1.34,3.12-1.24,5.44-3.41,7.22-6.18,.48-.75,.85-1.74,1.94-1.14,1.57,.87,.23,1.91-.27,2.37-3.23,3-6.35,6.24-11.1,6.8-.46,.05-1.08,.12-1.32,.42-3.69,4.6-9.4,7-12.82,11.93-2.9,4.19-2.65,6.91,1.4,10.19,.7,.57,1.8,1.17,.57,1.87-2.17,1.24-1.72,2.86-1.42,4.77,.27,1.72-.18,3.47-.9,5.1-3.74,8.41-9.1,15.43-17.15,20.17-1.73,1.02-3.36,2.14-4.58,3.79-.38,.51-.87,1.02-.24,1.59,.57,.51,1.06,.13,1.61-.27,6.64-4.7,11.28-2.57,12.31,5.67,.55,4.43,4.56,6.65,6.45,10.23,.5,.94,1.53,.22,2.28-.27,1.56-1,3.15-1.95,5.54-3.43-1.01,2.92-3.07,3.51-4.49,4.61-1.65,1.28-1.87,2.44-.64,4.06,1.5,1.97,2.39,.58,3.56-.44,1.08-.94,2.2-1.93,3.75-2.26-.15,1.64-1.65,2.17-2.35,3.27-.68,1.08-2.71,1.83-.8,3.64,1.57,1.49,2.89,1.63,4.42,.06,.59-.61,1.25-1.24,2.4-1.09-.01,1.14-1.1,1.47-1.63,2.17-.53,.71-2.06,1.06-1.16,2.3,.85,1.18,1.76,.17,2.59-.29,.41-.23,.83-.44,1.77-.94-.91,2.97-3.52,6.27,1.79,6.79-.11,.8-.23,1.6-.34,2.41,.89,.77,1.41-.55,1.87-.43,1.48,.39,4.31-2.03,4.2,2.05-.04,1.54,1.65,2.59,3.88,3.92-3.3,.07-4.73-1.1-5.66-2.87-.7-1.33-1.52-1.33-2.25-.31-2.99,4.21-5.88,8.49-8.45,13.12,3.51-2.65,6.96-5.23,11.22-6.98-1.69,2.92-3.3,5.89-5.12,8.72-.75,1.18-1.09,1.87,.41,2.6,1.6,.77,2.15,.19,2.58-1.39,.95-3.45,1.48-7.09,4.16-9.85,.8-.83,1.45-1.59,2.31-.3,2.05,3.09,4.1,6.18,5.93,9.39,.38,.66-.18,1.86-.3,2.82l-.02,.02c-.35-.11-.76-.13-1.03-.33-1.91-1.41-3.58-1.12-4.62,.96-.88,1.77-.94,2.89,1.63,4.07,1.52,.7,3.76,1.44,5.59,3.65-3.14-.92-5.44-2.35-8.56-2.41,4.43,4.26,9.77,6.28,14.13,9.72,1.24,.98,2.29-.49,2.73-1.15,.75-1.12,.47-3.35-.7-3.43-2.1-.15-1.55-1.08-1.59-2.32-.05-1.45-.52-2.88-.8-4.31l-.08,.11c1.23-3.06-.35-6.12,.01-9.21,.25-2.13,.32-4.03,2.37-5.54,2.22-1.64,1.43-6.15-1.18-7.18-1.09-.43-1.3-.93-1.3-1.85-.03-4.97-.1-9.94-.06-14.9,.01-1.71,.41-3.01,2.14-4.28,1.67-1.22,2.26-3.99,.07-5.67-2.44-1.87-2.93-4.05-2.48-6.88,.41-2.58-.18-5.22-.08-7.78,.09-2.44-.41-5.35,2.85-6.96,1.45-.72,1.4-3.09-.52-3.92-1.6-.7-1.82-1.81-2.09-3.17-.84-4.2-.31-8.44-.39-12.65-.03-1.45,1.05-2.39,2.15-3.32,1.65-1.39,2.65-2.98-.41-4.01-1.14-.38-1.61-1.16-1.35-2.3,.88-3.87,.01-7.68-.34-11.51-.23-2.5-.62-5.2,3.12-5.5,1.17-.1,.98-1.7,2.15-1.96,1.04,2.98,.21,5.77-.61,8.59-.69,2.39-.84,4.61,2.68,4.53,1.46-.03,1.03,1.1,1.2,1.83,.28,1.19-.53,2.46,.32,3.75,1.28-.32,1.18-1.47,1.21-2.3,.09-3.34-.54-6.67-.06-10.03,.1-.69-.05-1.71-.51-2.13-4.85-4.54-.55-9.66-1.21-14.45,.85,1.44,3.15,2.62,.86,4.53-.47,.39-.65,1.22,0,1.63,.79,.48,1.41-.09,1.83-.75,.46-.73,.59-1.51,.63-2.44,.13-3.52-1.15-6.94-.36-10.57-1.78,1-1.54,3.71-4.13,3.63-1.09-.04-2.27,.07-2.39-1.07-.22-2.19,1.07-.52,1.78-.58,1.21-.09,.93-1.05,1.03-1.95,.19-1.75-.24-3.84,1.81-4.94-.01,0-.09-.05-.09-.05,.15,.6,.09,1.45,.47,1.75,6.19,4.82,1.91,11.2,2.51,16.83,.11,1.06-1.28,1.24-2.21,1.63-2.3,.97-2.51,2.8-.3,3.89,1.66,.82,1.67,1.98,1.69,3.33,.05,3.85-.15,7.67,.5,11.54,.63,3.77-2.03,5.62-5.46,4.13-1.44-.62-1.63,.4-1.71,1.1-.3,2.5,.61,5.18-2.33,7.06-.74,.47-.49,3.03,.39,4.82,0-3.27,1.6-5.44,4.93-6.49,2.62,4.26-.32,9.68,1.11,14.93,1.78-2.54,1.75-4.94,1.02-7.57-.7-2.52,.25-5.03,.17-8.56,1.75,2.73,1.24,4.84,1.38,6.78,.12,1.6-.38,3.24-.24,4.84,.3,3.52-.36,6.55-3.49,8.62-1.98-2.39-.13-5.44-1.46-8.98-1.65,5.26-.51,9.72-1.01,14.04-.06,.52,.24,1.04,.81,1.04,.75,0,.9-.6,1.07-1.25,.42-1.62-.44-3.39,.59-4.93,.76,.47,.13,1.61,1.2,2.1,4.24,1.94,4.32,2.29,2.55,7.13-2.62-.09,.37-3.91-2.95-3.86,1.29,4.66-.71,9.52,1.4,14.28,1.24-1.85,1.48-3.63,.99-5.53-.45-1.75-.55-3.44,.57-5.01,.17,3.61,.37,7.22,.5,10.83,.05,1.4-.19,2.68-1.6,3.52-2.93,1.74-2.93,4.8,.03,6.4,1.01,.55,1.4,1.16,1.58,2.26,.9,5.47,.21,10.93,.14,16.4-.03,2.01-1.55,1.99-2.84,2.25-.75,.15-1.55-.04-1.74-.96-.15-.71,.29-1.23,.97-1.36,2.76-.52,2.63-2.71,2.55-4.66-.12-3.1-.46-6.19-.73-9.28-.08-.9-.26-1.76-2-1.84,1.06,3.76,1.33,7.48,.92,11.24-.15,1.32,.23,3.03-2.17,1.93-1.87-.85-1.98,.72-1.64,1.75,1.16,3.55-.79,7.11,.2,10.64,.17,.61,.11,1.45-.52,1.65-4.02,1.23-2.86,4.05-2.01,6.64,.53,1.62-.06,3.1-.54,5.25,2.36-1.58,1.37-3.43,1.75-4.88,.59-2.29-1.67-5.42,2.4-6.85,.79-.28,.44-3.7,.7-5.67,.1-.74-.57-1.95,.87-2.06,1.48-.11,1.4,1.05,1.51,2.06,.19,1.75-.21,3.47,2.22,4.55,1.45,.64,.69,3.09,.55,4.82-2.54-.12-.46-3.7-3.41-3.45,1.08,3.67,.52,7.37,.61,11.06,.03,1.23-1.39,4.03,2.04,4.19,1,.05,.96,.6-.48,1.59-2.23,1.52-2.14,4.15-.64,5.26,2.61,1.93,2.73,4.11,2.18,6.88,1.64-.2,1.87-1.74,2.88-2.35q-1.58,3.65,2.44,5.62c-.69-2.06-1.13-3.95-.76-5.95,.07-.4-.61-.7-1.17-.53,.94-1.41,1.09-4.39,4.5-1.83-1.2-2.53,2.7-5.3-1.2-7.35,.25-.39,.42-.98,.77-1.12,.8-.31,1.7-.49,2.47,.16,.69,.58-.01,1.8,1.44,2.46v-10.16c-1.57,.96-.26,2.98-1.89,3.57-2.68-1.56-3.05-4.13-2.88-6.89,.18-2.97,.41-5.95,.7-8.91,.17-1.7,1.01-2.51,2.93-2.6,2.18-.11,1.64,1.22,1.79,2.38,.21,1.63,.26,1.63,1.78,.92,2.58,1.62,.22,3.04,.16,4.6-4.32-4.64-2.83,1.71-4.51,2.3-.53-2.81,.6-5.23,.33-7.75-2.48,3.67-1.77,7.85-2.36,12.83,1.45-2.62,3.4-3.54,5.61-3.36,2.07,.16,.58,2.51,2.11,3.4,.36-3.7,.74-7.13,1.01-10.56,.14-1.82-.4-2.8-2.29-1.37-1.06-2.8,.19-5.53,.38-8.27,.1-1.58-.06-3.03-.11-4.62-1.59,.28-1.24,1.51-1.48,2.35-.27,.95,.42,2.59-1.42,2.39-1.55-.17-2.93-1.06-2.93-2.84,0-3.96,.17-7.92,.28-11.87,.09-3.39,4.17-4.8,3.39-8.62l1.48,.31c0,2.14-.01,4.28,0,6.41,0,.74-.05,2.09,.15,2.13,6.09,1.34,1.29,5.62,2.25,8.31,.42,1.19-.61,2.73,.77,3.83,1.38-1.37,.77-2.97,.68-4.54-.22-3.89,.81-7.92-1.4-11.57h-.13c2.44-.05,3.36,1.41,3.3,3.57-.1,4.11-.32,8.21-.48,12.31,0,.12,.06,.32,0,.36-6.02,4.87,.84,10.85-1.37,16.15-.72,1.72-.18,3.94-.39,5.91-.12,1.2-.46,2.2-1.85,2.93-2.69,1.41-2.63,3.07,.03,4.45,1.07,.56,.98,1.37,.96,2.17-.07,3.35-.62,6.74-.23,10.03,.35,3-2.62,3.65-3.19,5.84-.15,.57-.56,.3-.77-.05-.12-.21-.11-.67-.2-.68-.97-.1-.65,.94-1.1,1.31,2.98,1.56,1.31,6.3,4.91,7.31,1.07,.3,.77,.71,.57,1.19-1.6,3.81-3.36,7.66-3.4,11.81-.02,2.56-1.31,5.72-.33,7.46,3.21,5.72,.32,11.07,.03,16.54-.07,1.34-1.92,1.39-2.8,1.29-2.55-.28-3.31,.78-2.59,2.95,.88,2.66-.84,2.83-2.52,2.72-2.73-.17-5.38-.22-8.08,.45-2.26,.56-3.96-.28-4.13-2.94-.09-1.47-1.35-2.4-1.69-3.68-.51-1.89-1.89-4.38,1.91-4.59,.64-.04,1.46-.39,1.08-1.1-.67-1.28-.06-3.34-1.79-3.85-1.95-.58-2.06-1.81-1.95-3.35,1.46-.65,1.16,1.59,2.74,1.17,.69-3.27-.85-6.64-.41-10.03,.08-.66-.62-1.89,.35-1.85,4.32,.16,2.25-2.85,2.38-4.65,.12-1.6-.32-3.24-.16-4.82,.3-2.98-1.14-7.5,4.92-5.95,.43,.85-.39,1.29-1,1.92-1.85,1.91-1.78,3.79,.59,5.14,1.55,.89,1.56,2.03,1.81,3.64,.62,3.97-.15,7.91,.28,11.84,.25,2.25,.51,4.41-1.66,6.08-1.45,1.12-.62,2.76-.4,4.2,.15,.98,1.03,1,1.73,1.12,.78,.13,1.54,.04,1.59-1.02,.18-4.03,3.16,.21,4.15-1.4,.3,.81,.41,2.51,1.63,.82,.61-.84,1.02-3.2-.27-3.24-4.16-.13-1.94-2.24-1.54-3.86,4.49,1.09,4.13,4.84,4.23,8.33,2.06-6.68,1.47-9.11-2.88-9.76,2.37-1.35,3.07-3.03,2.12-5.17-.48,.81,.1,2.04-1.32,2.66-.58-3.2,.16-6.19-.24-9.21-2.64,4.14-1.51,8.81-1.79,13.27q-1.91,.14-2.67,2.68c-.7-2.69-.03-2.56,.5-5.25,.51-2.57,2.63-5.76-.78-8.29-.84-.62-1.27-2.03-1-3.43,.41-2.18,.7-4.41,.81-6.63,.15-2.88-.45-5.92,3.13-7.42,.75-.31,.75-1.52-.08-2.25-.19-.17-.4-.3-.59-.46-5.1-3.97-5.18-3.92-6.95,3.46v-9.62c-2.13,1.54-.92,3.54-1.66,5.22-.82,1.85,.83,5.23-3.48,4.8-1.15-.12-1.15,1.68-1.12,2.81,.06,3.08,.21,6.17,.15,9.25-.03,1.61,.63,3.58-1.72,4.43-1.12,.41-.43,1.48-.45,2.3-.05,1.82,.44,3.72-1.29,6.18,.32-4.96-2.26-9.2,1.68-13.15,1.48-1.49-.47-5.2-3.06-5.83-2.12-.51-3.16-1.78-4.59-3.22-3.01-3.01-6.69-5.35-10.11-7.94-.8-.61-1.4-.2-1.78,.58-1.12,2.34-2.91,2.09-5.04,1.61-3.15-.72-6.31-1.22-9.4-2.3-2.51-.88-3.31-2.3-3-4.76,.17-1.35-.11-2.78,.22-4.08,.56-2.2-.45-2.85-2.29-2.58-2.26,.33-3.38-1.1-3.03-2.72,1.09-5.03-3.17-5-5.57-5.42-7.91-1.39-8.6-1.73-9.84-9.8-.57-3.73-1.48-7.16-4.48-9.94-3.11-2.88-5.14-3.72-8.16-.82-3.14,3.01-6.89,2.41-10.44,3.04-1.6,.28-2.66-.35-3.65-2.41-1.54-3.21-4.76-5.48-6.64-8.74-.82-1.41-2.35-2.48-2.94-4.19-.23-.67-.46-1.53-1.46-1.38-2.22,.35-2.88,.12-1.52-2.27,1.13-1.99-1.06-2.92-2.44-3.33-3.19-.96-6.57-2.16-9.86-1.37-4.27,1.02-6.41-1.25-7.67-4.45-2.04-5.2-3.7-10.59-.99-16.16,.16-.33,.42-.93,.33-1-3.89-2.92,.68-3.61,1.53-4.91,1.69-2.57,4.06-4.69,6.09-7.04,1.47-1.7,3.27-2.52,5.67-2.63,.17,1.53-.41,2.45-1.55,3.11-.99,2.93-2.04,5.83-2.97,8.77-.25,.77-.47,1.83,.65,2.23,.77,.27,1.61-.04,1.9-.79,.89-2.3,2.93-3.68,4.24-5.61,1.12-1.65,2.35-3.7-1.49-3.14-1.24,.18-1.7-.83-2.4-1.49,5.54-.24,12.03-6.83,11.53-12.47-.43-4.89-.59-9.95-2.95-14.49-.84-1.62-1.39-3.33-3.99-3.07-1.29,.13-2.72-1.05-4.08-1.65-4.15-1.83-6.85-.83-7.56,3.52-1.09,6.69-3.96,11.96-10.01,15.28-.44,.24-.85,.57-1.32,.7-2.5,.69-6.32,.56-2.37,4.68,.89,.93-.23,2.39-.93,3.38-.86,1.21-1.83,2.4-2.94,3.37-2.1,1.84-1.87,3.07-.09,5.35,1.91,2.45,4.2,4.77,4.23,8.77,.03,3.1,2.8,6.2,4.41,9.27,.56,1.08,.56,1.79,.22,3.17-1.59,6.42-3.66,13.07,1.01,19.26,.59,.78,.98,1.73,1.39,2.64q1.85,4.09,6.16,2.86c-.05,1.64-3.61,1.23-2.21,3.24,1.02,1.48,2.91,2.23,5.01,1.58,1.39-.43,2.86-.55,4.39-.83-.45-2.05-2.99-2.91-2.49-5.81,1.4,2.55,4.99,.93,5.87,4.14,.08,.3,2.1,.21,3.18,.05,4.68-.68,8.96,.96,13.33,2.35h-4.41c2.6,2.33,6.73,2.16,6.95,6.13-2.14-2.4-4.56-3.8-7.81-2.1-.62-5.3-1.63-5.81-8.29-4.29q2.75,2.93,4.62,.38,3.45,7.35,8.53,5.88c.26,1.53-3.16,2.06-1.44,3.48,1.7,1.4,2.95-.83,4.16-1.92,.16-.15,.17-.46,.25-.7-1.68,5.41-1.65,5.47,3.25,6.98,.34,.11,.86,.2,.97,.44,1.73,3.96,4.44,7.34,6.52,11.09,.11,.2,.01,.66,.13,.71,4.97,1.94,2.74,5.62,2.35,9-.39,3.35,1.73,6.13,3.25,8.81,.68,1.2,3.23,1.44,4.98,1.92,3.44,.94,5.67,2.57,4.26,6.82,1.55-1.71,.97-4.6,4.12-5.43-1.31,2.91-.42,4.46,2.27,5.58,3.12,1.29,5.72,3.13,3.19,7.3-.65,1.08-.47,3.02,1.86,3.17,2.65,.18,3.61,2.32,2.06,4.47-.19,.26-.82,.24-.95,.5-.76,1.44-2.55,3.35-1.05,4.5,1.91,1.47,3.12-.55,4.22-2.23,1.15-1.78,1.94-4.77,4.48-4.36,3.16,.51,4.93,3.57,7.06,5.81,.19,.2,.26,.82,.11,1.01-3.75,4.47,.76,6.39,3.03,8.32,3.26,2.77,6.06,6.04,9.87,8.38,1.53,.94,3.44,4.56,4.05,7.51-1.98-1.87-3.34-4.44-6.16-5.34l-.11-.12c-.32-.78,.06-1.77-.74-2.42-3.64-2.95-6.7-6.61-10.85-8.94-.91,1.29-.74,3.01-2.31,4.12-.19-.67-.48-1.14-.39-1.52,.38-1.62,2.87-3.77,.47-4.68-2.11-.81-1.43,2.74-2.62,3.77-1.41,1.21-.01,1.38,.43,1.89,.89,1.02,1.85,2,2.78,2.99-.36-.06-.82,0-1.08-.19-1.48-1.12-3.17-1.11-4.48-.16-1.49,1.08,.02,2.5,.3,3.72,.29,1.31,.95,2.54,1.45,3.8-.52-.52-.97-1.13-1.56-1.53-1.16-.79-1.73-3.07-3.28-2.39-1.61,.7-2.91,2.31-3.66,4.09-1.06,2.54,2.53,2.73,2.4,5.16-1.34-.96-2.56-1.84-3.81-2.73-1.57,4.37-2.28,4.6-5.77,2.03-1.1-.81-2.29-1.49-3.42-2.25-.81-.54-1.8-.91-1.28-2.28,1.4-3.71-1.8-4.47-3.93-5.53-2.41-1.2-1.64,1.81-2.68,2.5-1.25,.83,.39,3.76-2.38,3.35-3.1-.45-5.8-2.23-7.38-4.58-.87-1.3,1.68-3.21,2.91-5.23,.56,2.11-1.7,3.25-1.06,4.61,.69,1.45,2.43,2.02,3.86,2.78,1.63,.86,2.41-.17,2.77-1.41,.59-2.04,3.55-4.15-.43-6.52,1.75-.01,3.32,.81,4.28-.69-1.24,2.95,.91,4.35,2.91,5.1,1.87,.69,2.04-1.33,2.37-2.7,.06-.25,.55-.37,.79-.61,2.59-2.63,3.37-5.58,1.57-8.98,1.84-.32,2.95-.99,1.24-2.82-.52-.56-1.39-.93-1.99-.38-1.7,1.54,1.3,2,.87,3.31-1.46,.06-3.3-3.3-4.28,.13-.61,2.14-2.12,3.56-2.96,5.45,1.29-1.37,1.28-3.24,1.68-4.88,1.62-6.78,6.29-11.96,9.26-18.03,1.53-3.13-.13-3.94-2.17-4.98-2.06-1.06-3.96-2.04-5.32,1.19-2.4,5.71-5.11,11.28-7.68,16.91,.3-1.71,.6-3.41,1.01-5.74-1.95,3.11-3.18,5.76-3.47,8.95,1.21-.55,1.76-1.34,2.08-2.33q-1.98,4.78-6.91,2.45l.08,.1c-.26-1.25,.27-2.43,1.17-2.96,4.03-2.42,5.2-6.8,7.3-10.49,1.04-1.83,3.27-4.73,.84-6.17-2.49-1.47-3.31,2.19-4.6,3.75-2.01,2.45-3.65,5.21-5.71,8.23-.53-1.88,.33-3.21-.68-4.27,3.19-.24,3.51-3.38,5.12-5.18,.82-.92,2.3-2.12,1.4-3.48-.9-1.35-2.7-1.01-4.15-.78-1.08,.17-2.13,.63-3.18,.99-1.94,.65-2.24,1.87-.93,3.33,1.4,1.55,2.11,3.26,1.91,5.34-.65-.77-3.3,.5-2.07-2.39,.5-1.19-1.89-1.57-2.88-2.4-.74-.61-1.41,.62-2,1.22-3,3.11-4.16,7.03-4.75,11.14-.21,1.47-.46,2.67-1.89,3.33l.06,.14c-.12-2.62-.11-5.19,.82-7.73,1.15-3.16-1.03-6.05-4.54-6.22-3.31-.16-10.24-5.35-9.17-7.62,2.66-5.67-4.58-4.88-4.67-8.51-.02-.83-1.78-1.67-3.03-.3-.62,.67-1.3,1.54-2.36,1.19-.41-.67-.31-1.09,.05-1.51,.96-1.11,2.24-2.41,1.09-3.81-.98-1.18-2.85-2.3-4.23-1.71-1.43,.62-3.49,2.5-2.83,3.98,1.79,4.05-1.26,7.18-1.36,10.8-.04,1.56-.64,2.93,.01,4.66,1.01,2.72-2.68,1.17-2.88,3.5-1.64-4.56-3.23-5.25-7.14-3.3-4.7,2.35-10.04,2.61-14.9,4.71-1.75,.75-4.77,.48-7.1,1.43-.52,.21-1.5,.55-1.14-.56,.81-2.44-1.8-1.02-2.38-2.89,9.04,.9,16.6-3.55,24.8-6.02-2.13-1.2-4.68,.37-7.18-1.26,3.89-1.75,9.19,1.06,11.14-4.24-7.04-.34-14.3-.24-21.57,.49,2.46,1.32,5.18,.66,8.3,1.1-4.14,1.95-7.97,0-11.64,.71-1.67,.32-.94,.69-1.76,1.96-.86,1.33-1.6,2.84-2.61,4.13-2.69,3.46-4.24,7.59-6.48,11.31-.65,1.08-.24,2.18-.18,3.28,.21,3.91-1.69,7.13-5.72,8.85,3.2,.06,4.42,1.03,3.1,3.81-.6,1.27,.25,2.65,.87,3.9,.67,1.34,1.21,2.74,1.26,4.27,.07,2.07,.12,3.71-2.99,2.81-1.6-.46-3.41-.46-5.07-1.01-1.93-.64-3.1-1.6-2.09-3.84,.78-1.73,.1-3.14-1.1-4.41-2.15-2.26-4.6-4.16-7.05-6.08-1.35-1.05-2.58-.26-4.39,0,1.45-2.38,.7-3.72-1.06-5.08-5.58-4.33-10.59-9.45-17.77-11.33-1.66-.44-3.07-.53-4.67,0-.86,.28-2.6,1.64-2.35-1.03,.01-.13-.26-.29-.4-.43-2.64,2.83-4.76-1.74-7.32-.51-.58,.28-1.43,1.07-1.95,.12-.53-.98,.37-1.58,1.11-2.05,.78-.5,1.61-.92,2.25-1.8-2.9,1.42-6.01,1.88-9.02,2.7-7.48,2.06-14.77,4.82-22.71,4.63-2.49-.06-4.49,1.46-6.46,2.65-1.89,1.15-3.85,2.15-5.94,1.87-4.01-.55-7.98,.76-10.86,2.52-2.77,1.69-6.02,3.91-7.8,7.18-.63,1.15-.9,2.23-.34,3.53,.48,1.12,.42,2.65,2.33,1.35,.6-.41,1.68-.96,2.05,.47,.72,2.78,3.05,.37,4.34,1.36,.39,1.4-2.17,.96-1.48,2.77,3.64-.45,7.34-.73,11.04-1.48,12.98-2.61,30.65,4.85,36.81,15.32,2.62,4.46,3.5,9.22,3.19,14.36-.17,2.92-2.58,3.32-4.26,4.61,4.36-6.26,4.32-9.51,.17-15.92-1.62-2.51-4.44-4.3-4.72-7.69-.03-.41-.88-.84-1.43-1.1-4.63-2.23-8.87-4.95-14.11-6.29-6.3-1.6-12.13-1.84-18.3-.25-2.33,.6-5.09,2.94-6.1,2.65-4.69-1.35-5.47,2.23-5.21,4.47,.28,2.42-.83,2.51-1.99,3.71-1.41,1.46-1.8,3.91-2.62,5.91,1.27,1.02,4.92,.42,3.46,2.06-1.9,2.12,.67,7.83-5.28,6.78-1.45-.25-1.7,1.82-1.61,3.24-.21-.16-.47-.27-.6-.46-1.36-2.14-2.67-1.04-3.86,.13-.56,.55-1.6,1.42-.72,2.15,1.35,1.13,2.46-.12,3.54-.91,.5-.37,1.05-.65,1.58-.97,1.45,.75,1.11,3.53,3.62,3.16,.33-.05,.8,.67,.51,1.19-1.62,2.99-1.59,6.66-4,9.33-.87,.96-1.28,1.92-3.1,1.63-2.57-.4-3.42,1.56-2.11,3.99,.6,1.12,1.78,2.17,.65,3.69-1.03,1.39-2.31,2.22-4.05,2.28-1.25,.04-2.01-.91-2.85-1.61-.82-.69-1.65-.67-2.4-.17-1.28,.85,0,1.6,.4,2.06,1.38,1.6,1.91,4.26,4.81,4.11,.17,0,.94,.09,.3,.58-2.38,1.82,.51,2.85,.61,4.29-3.29-2.32-5.42-5.78-8-8.71-2.33-2.65-.47-6.74-.88-10.09-.38-3.05,1.19-3.82,3.44-4.93-2.84,2.78-1.57,4.34,1.05,5.95,1.87,1.15,3.37,2.89,5.48,4.19-2.13-2.71-.54-6.13-2.17-8.91-.76-1.3-.24-2.1,1.4-2.07,1.28,.02,1.43-1.2,1.87-2.04,.07-.14-.28-.65-.54-.79-1.09-.61-1.83,.02-2.61,.75-.89,.84-1.91,1.54-3.28,2.62,.04-1.56,1.63-2.91,.3-3.89-.88-.64-1.42,1.41-3.35,.21-.76-.59,1.9-1.54,.72-2.88-.68,1.08-1.33,2.13-1.99,3.18-1.77-2.17,1.5-4.3,.67-5.5-2.48-3.61,.12-5.28,1.9-7.54,1.25-1.59-.43-2.8-1.14-3.93-1.21-1.91-2.74-3.62-1.67-6.24,2.03,.06,1.25,4.05,4.09,3.08,1.73-.59,2.29-1.97,2.89-3.39-1.37-.94-2.48,.74-3.76,.01,.12-1.9,4.52-.65,2.86-3.42-1.09-1.81-2.14,1.6-3.91,.66,.74-1.14,1.4-2.08,2.87-2.36,1.17-.23,2.03-1.07,1.86-2.41-.17-1.3-1.37-1.5-2.26-2.14-1.11-.79-2.11,.65-3.29-.52-2.09-2.06-2.13-7.61,.3-9.37,2.46-1.78,5.05-3.33,7.88-4.47,1-.4,1.88-1.11,2.48-2.35-3.05,1.37-6.2,2.55-9.11,4.17-2.75,1.53-3.26,.48-3.24-2.06,.09-8.52,.16-17.05,.16-25.58-.01-15.89-.03-31.77-.17-47.66-.04-4.05,1.65-7.47,3.77-11.9l-3.34,2.79c-.66-1.52,.31-2.18,1.11-2.97,6.25-6.18,10.36-13.81,14.27-21.53,1.23-2.43,3.8-3.16,5.38-5.06,1.43-1.72,2.92-3.38,4.53-5.23-1.03-.94-1.8,1.22-2.43,.18-.54-.9,.26-1.65,.86-2.27,2.07-2.15,4.24-4.22,6.22-6.45,.52-.58,3.65-.73,.75-2.55-.39-.24,.55-.95,1.01-1.32,1.25-1,2.51-1.98,3.85-3.04-.93-.59-2.01,.95-2.37-.12-.51-1.54,1.6-1.62,2.21-3.22-2.15,1.72-3.97,.53-4.69-.84-.81-1.54,1.79-1.63,2.3-3.08-3.28,1.29-4.2-3.12-7.34-3.05-1.14,.03,2.94-2.64-.55-2.96-1.42-.13-2.54,1.62-4.18,1.03-.09-.03-.14-.17-.22-.27-.02-1.02,.83-1.07,1.49-1.38,2.03-.95,2.93-1.95,.3-3.41-1.52-.85-1.29-2.88-2.43-4.28-1.35,1.38-.84,2.99-.3,4.14,.79,1.7,.09,3.05-1.11,3.26-1.07,.19-1.87-1.4-1.95-2.7-.05-.86,.04-1.77,.27-2.59,2.84-9.88,8.16-17.84,17.84-22.18,2.69-1.21,4.94-2.72,6.76-5.06,1.4-1.8,3.29-2.86,5.14-2.2-4.96,7.19-13.91,9.28-19.86,15.46l.07-.07c-1.22,.87-2.28,1.86-3.21,4.29,3.79-2.26,6.43-1.01,8.68,1.38-2.77,1.52-3.48,1.48-6.51-.22-.23-.13-.7-.09-.94,.06-1.95,1.22-3.2,2.93-2.62,5.29,.48,1.97,.3,3.91,3.64,4.6,5.81,1.19,12.01,1.94,17.32,7.03-.72-3.42-3.06-4.7-3.43-7.13,3.2,1.88,5.01,5.15,7.51,7.7,3.76,3.83,7.88,6.91,13.34,7.48,1.88,.2,3.17,1.39,4.71,2.07,4.73,2.07,8.52-.5,12.29-2.29,2.83-1.34,5.1-.93,7.44,.44,2.1,1.23,4.06,2.71,6.33,4.25-2.13,.84-3.36-.15-4.39-1.15-3.25-3.14-6.92-2.84-10.8-1.63-1.25,.39-2.16,1.11-1.8,2.35,.35,1.23,2,1.1,2.57,.68,3.33-2.47,5.62,.23,8.38,1.26,7.42,2.76,13.13,8.4,20.23,11.63,8.83,4.01,16.68,9.7,25.06,14.42,5.05,2.84,8.13,6.66,11.43,10.97,4.28,5.6,7.61,11.9,12.67,16.94,2.02,2.01,2.63,1.2,3.47-.94,3.15-8.06,3.2-8.04,11.04-4.59q5.49,2.42,3.34,7.98c-1.68,4.35-3.35,8.7-5.03,13.05l-.93-.33c1.56-4.59,2.86-9.29,4.78-13.72,1.26-2.89,.41-4.14-2.15-5.03-.12-.04-.25-.05-.36-.1-7.55-3-7.39-2.95-9.84,4.79-.84,2.64,.88,3.52,2.03,5.03,.92,1.21,4.13,2.57,.14,4.1-1.03,.39-.67,1.59,.05,1.66,2.67,.26,3.49,1.58,3.64,4.17,.06,1,1.77,1.95,2.79,2.84,2.8,2.46,5.27,5.31,8.49,7.27l-.05-.11c1.26,1.62,3.13,2.41,4.79,3.49,2.13,1.38,3.82,.79,5.05-1.21,3.98-6.47,8.85-12.26,13.67-18.09,.66-.79,1.3-1.54,.36-3.19-3.05,3.23-6.48,6.01-8.76,9.53-2.05,3.16-3.31,2.84-5.31,.47l.11,.06c-1.57-1.16-3.14-2.31-4.85-3.56,1.35-2.42,3.68-4.16,5.72-6.08,2.16-2.03,3.49-4.51,4.89-7,1.13-2.01,.12-3.02-1.82-2.62-6.56,1.35-9.81-2.18-12.3-7.55-3.18-6.87-7.22-13.33-9.27-20.72-.5-1.79-1.37-3.5-3.9-1.49-4.23,3.38-4.6,3.15-6.46-2.15,.39,.31,.77,.62,1.16,.92,.85,.66,1.1,2.84,2.69,1.6,1.53-1.19,4.02-1.9,3.7-4.59-.14-1.19-.33-2.57-2.03-2.65-2.41-.1-5.15,2.36-5.41,4.83-2.42-.76-3.28-1.83-.71-3.57,.41-.28,.89-.5,1.22-.85,1.4-1.5,5.29-.76,4.49-3.97-.76-3.07-2.7-5.96-5.62-7.51-3.92-2.08-7.8-4.26-12.11-5.62-3.43-1.08-3.93-5.17-6.25-7.49h-.01c.34-1.27,1.04-.71,1.62-.28,1.62,1.2,2.64,2.94,3.94,4.44,1.32,1.53,3.37,3.33,5.15,1.05,1.69-2.16,2.55-4.98,3.78-7.53-2.98-.48-3.74,3.38-7.34,3.2,6.01-6.2,13.98-8.5,19.32-14.27ZM7.04,242.73c-1.46-.87-.22-2.12-.31-3.25-2.8,.16-1.74,4.49-4.94,4.06,2.19,1.26,3.41-1.82,5.38-.89l-1.85,2.31c2.4,.05,4.35-.16,5.06-2.53,.18-.61,.1-1.46-.91-1.74-1.87-.53-1.25,1.78-2.43,2.05Zm243.39-112.65c.91-.64,1.84-1.24,2.72-1.93,.61-.48,1.06-1.11,.44-1.89-.6-.75-1.38-.6-1.98-.12-2.76,2.18-5.47,4.41-8.19,6.63,2.6,.31,4.49-.76,6.27-2.07-1.82,1.64-3.64,3.28-5.75,5.19,4.23-.06,6.92-2.05,9.57-4.1,.73-.56,2.08-.96,1.53-2.18-.66-1.45-1.92-.53-2.91-.29-.59,.14-1.12,.51-1.67,.77Zm-46.53,57.04c4.22-1.78,5.76-5.88,8.19-9.24-2.45,1.4-4.45,3.23-6.03,5.53-.86,1.25-2.71,1.98-1.95,4.01-2.56-.02-3.27,2.34-4.77,3.69-1.44,1.29-1.33,3.75-3.54,4.51-.74,.26-1.63,.97-.94,2,.38,.58,1,1.2,1.63,1.39,1.12,.33,1.45-.74,1.75-1.51,.63-1.59,1.64-2.86,2.7-4.19,1.42-1.78,3.16-3.57,2.95-6.19Zm-9.66-18.85c-1.6-1.07-.68-2.1,.05-3.12,.73-1.03,1.93-1.89,1.36-3.58-.52,.2-.89,.26-1.17,.46-3.59,2.57-4.62,7.59-9.05,9.43-.93,.39-.35,1.14,.29,1.71,.78,.7,1.68,1.68,2.4,.4,1.43-2.54,4.18-3.43,6.04-5.39,.59-.72,1.03-1.68,2.47-1.4-2.19,3.71-7.11,5.12-7.46,10.09,3.48-3.85,6.97-7.7,10.79-11.92-3.48-.65-5.36,.14-5.72,3.33Zm-61.57-25.36c-.44,.57-1.39,1.43-1.25,1.67,1.81,3.18-.72,3.48-2.66,4.42-4.32,2.09-8.56,4.32-12.83,6.53-.62,.32-1.44,.63-.77,1.95,5.98-2.83,11.83-5.84,17.45-9.3,2.7-1.66,2.53-3.47,.39-5.46,1.41-.41,2.85-1.03,1.99-2.79-.82-1.67-2.04-.47-3.16-.03-1.23,.49-2.48,1.53-3.89,.38l-2.6-3.53c-2.34-.99-6.85,1.82-7.44,5.04,1.28-.76,2.3-1.39,3.36-1.98,1.22-.68,2.96-2.15,3.75-.52,.79,1.64-1.51,2.24-2.77,2.77-1.79,.74-3.62,1.28-4.67,3.46,3.18-.56,5.35-3.62,8.85-2.37-3.64,.91-6.18,3.5-10.17,5.75,6.77-.62,10.9-5.16,16.42-5.98Zm127.59,4.23c-3.65,3.43-7.33,6.85-10.94,10.32-.68,.65-1.06,2.1-1.72,2.19-2.79,.38-3.8,1.92-3.94,4.54-.13,2.42,0,4.74,1.27,6.86,.75,1.24,1.77,1.57,3.34,1.75,3.63,.41,7.93-1.08,10.63,2.89,1.41,2.59,2.82,2.71,4.66,.26,1.33-1.77,3.02-3.26,4.57-4.86,.85-.88,2.85-1.5,1.36-3.07-1.39-1.48-2.46,.25-3.38,1.07-2.46,2.21-4.16,5.25-7.32,6.69,.25-.69,.37-1.46,.76-2.06,3.79-5.91,7.64-11.79,11.42-17.71,.48-.76,1.61-1.61,.78-2.59-.71-.82-1.87-.33-2.83-.11-5.1,1.17-7.58,5.67-11.37,8.55,.89,1.16,2.36,.98,2.84,2.4-2.06,.61-4.82-1.55-6.14,1.59-.28,.67-1.19,1.64-2.09,.88-.99-.83,.16-1.55,.59-2.18,3.12-4.62,6.37-9.17,9.43-13.83,1.59-2.43,.55-3.53-2.18-3.34,.46-1.21,.6-2.42-.15-3.58-.55-.86-.75-2.58-2.23-1.73-1.01,.58-2.38,1.69-1.03,3.32,.21,.25,.28,.62,.44,1.01-3.45-.8-7.98,3.22-9.65,8.44,1.76,.58,3.05,0,4.27-1.35,2.43-2.69,5.33-4.8,8.62-6.36Zm-46.7,3.66l-.09-.08c2.69,2.41,4.66,6.07,9.48,4.31,1.53-.56,2.92-.96,4.14-2.08,2.23-2.05,4.88-2.95,7.83-1.97,1.58,.52,2.87,.57,4.08-.64-.47,.79-1.59,1.66-.46,2.48,.81,.59,1.48-.51,2.15-1.02,.78-.59,.98-2.09,2.92-1.58-2.02,2.48-6.67,4.49-1.58,8.01,.21-.27,.46-.53,.63-.82,2.88-5.01,6.18-9.85,10.27-13.81,4.42-4.28,4.84-4.26,.3-7.61,.92-.78,1.58,.12,2.36,.32,1.2,.31,2.43,2.21,3.58,.62,1.1-1.52-.65-2.83-1.51-3.78-1.6-1.76-2.89,.06-3.99,1.03-4.84,4.27-8.85,9.32-13.13,14.12,1.12-2.58,2.37-5.09,4.15-7.35-.76,.25-1.34,.65-1.92,1.06-3.16,2.21-6.29,4.44-9.48,6.61-1.04,.71-2.35,1.44-3.33,.12-.87-1.18,.42-2.14,1.08-2.85,1.21-1.3,2.72-2.33,4.11-3.48l-.87-.95c-3.21,2.24-6.39,4.52-9.64,6.7-1.18,.79-2.84,2.47-3.86,1.33-1.38-1.55,1.18-2.19,1.92-3.27,.61-.89,1.57-1.58,2.45-2.25,7.96-5.95,15.96-11.86,23.89-17.84,.95-.71,2.92-1.19,1.87-3.03-.89-1.55-1.12-4.15-4.74-2.8,2.73-2.78,4.01-5.13,1.05-7.55-2.17-1.77-4.85-.74-6.89,2.67-1.27,2.13-3.25,3.36-5.38,4.82,0-1.47,.43-3.01-1.2-3.67-.97-.39-1.66,.34-2.32,.88-7.71,6.24-15.47,12.41-22.8,19.11-2.18,2-2.64,4.27-1.02,6.22,2.14,2.57,3.59,5.62,5.93,8.01Zm-51.38,35.71c1.96-.27,3.95-.43,5.88-.86,1.36-.31,2.62-1.42,.98-2.57-4.99-3.51-10-7.31-16.78-5.42-1.31,.37-3.53-.34-3.4,1.87,.11,1.83,1.2,3.55,3.38,4.02,1.23,.26,2.65-.16,3.86,.9-1.27,1.13-2.59,.58-3.72,.9-.74,.21-2.09-1.67-2.19,.48-.08,1.72,1.46,1.41,2.5,1.43,1.11,.02,2.23-.23,3.34-.34,1.08-.1,2.16-.17,3.23-.25-4.1,1.88-9.25,1.09-9.81,7.95-.34,4.08-.21,5.69,3.99,5.77,2.48,.05,4.96,.34,7.43,.34,5.17-.01,10.36,.48,15.8-.33-1.04-1.71-3.1-1.23-3.75-2.73,.41-1.39,2.82,0,2.69-1.93-.11-1.65-1.75-.67-2.53-1.28-.84-.66-1.87-1.11-2.05-2.34,1.87-.69,3.67-1.36,5.84-2.16-4.79-3.53-9.99-2.11-14.67-3.44Zm134.75,5.67c1.53-5.46-3.3-7.55-7.64-10.13-1.87-1.11-3.15-.95-3.76,.95-.69,2.13-1.68,1.41-2.62,.52-2.06-1.96-2.71-.31-3.36,1.23-.96,2.28,.67,7.11,2.89,8.78,2.44,1.84,5.2,3.19,7.31,5.57,1.06,1.19,2.52,3.04,4.75,2.15,2.28-.91,2.05-3.16,2.4-5.04,.18-.95,.03-1.97,.03-4.04Zm-22.72-15.43c1.14-1.04,3.86,1.27,3.29-1.52-.26-1.28-.87-3.12-2.05-4.23-1.53-1.43-3.08-2.71-4.65,.17-2.08,3.82-4.48,7.45-3.71,12.16,.2,1.24,.2,2.95-1.93,2.76-.87-.08-.96,.34-1.15,1.01-.98,3.52,.02,5.54,3.48,6.58,2.02,.61,4.09,1.06,6.16,1.51,.78,.17,2.34,.36,1.84-.81-1.19-2.8-.09-5.9-1.25-8.57-1.87-.13-1.85,2.49-3.9,2.07,.24-.78,.53-1.45,.63-2.15,.12-.85,.14-1.73,.08-2.6-.05-.84,0-1.35,1.06-1.48,3.76-.47,4.24-1.62,2.09-4.93Zm-48.32,13.45c-4.2,3.88-7.35,7.99-10.71,11.91-4.41,5.14-4.29,6.11-.05,11.05,1.49,1.74,1.96,1.26,3.31,.05,2.46-2.19,5.1-4.23,7.87-6.01,1.2-.77,1.63-1.51,1.21-2.66-.37-1.01-.83-2.46-1.91-2.55-1.52-.12-1.19,1.56-1.54,2.53-.22,.6-.45,1.16-1.54,1.13-1.17-5.44,3.36-9.75,3.36-15.45Zm-33.6,3.51c.45-.13,1.09-.27,1.09-.31-.53-3.27,2.82-3.81,4.12-5.8,2.37-3.62,5.15-6.99,7.85-10.38,1.37-1.72,3.01-3.41,.5-5.29-2.6-1.95-3.45,.84-4.36,2.18-3.48,5.13-8.19,9.34-11.01,14.94-.49,.97-2.83,1.1-1.67,2.69,.72,.98,2.3,1.34,3.47,1.97Zm-42.38-31.34c-.45,.24-1.23-1.09-1.71,.05-1.11,2.64-4.88,5.5,.6,7.79,.78,.33,1.09,1.87,1.55,2.88,.67,1.47,1.61,2.81,3.35,2.05,1.96-.86,3.98-2.39,4.42-4.36,.52-2.36-5.5-8.16-8.21-8.4Zm72.97,22.65c0-1.08-.65-1.83-1.32-1.17-2.09,2.07-4.92,3.66-5.86,6.55-.37,1.15,.1,1.6-1.61,2.2-2.7,.95-4.43,3.72-6.01,6.21-.67,1.06,1.49,1.63,.67,2.98-1.09,1.79-1.69-.34-2.5-.15-.22,.05-.54,.67-.46,.9,.42,1.19,1.21,2.21,2.29,2.83,1.21,.7,1.7-.47,2.36-1.17,4.19-4.34,6.39-9.97,9.79-14.83,.99-1.42,1.81-2.95,2.65-4.34Zm-118.52-6.19c1.4,.7,1.89,.39,2.46,.06,7.21-4.09,14.39-8.23,21.68-12.17,3.05-1.65,6.31-2.91,9.18-4.92,.7-.49,1.73-.97,1.09-1.97-.53-.83-1.35-.12-1.97,.22-5.86,3.18-11.77,6.28-17.54,9.61-4.96,2.86-9.77,6-14.91,9.17Zm25.46,12.49c5.43-2.54,10.1-5.42,15.35-6.97,1.01-.3,1.06-.88,.81-1.68-.25-.8-.45-2.4-1.11-2.05-1.83,.98-4.3-1.46-5.7,1.29-.71,1.41-.97,3.51-3.17,3.47-2.26-.04-7.69,2.05-9.21,3.79,1.64,.8,2.77-1.64,4.42-.76,.25,1.15-1.01,1.38-1.4,2.91Zm-16.94,26.74c10.42-6.62,21.09-12.88,31.41-19.72-11.49,4.91-21.7,11.89-31.41,19.72Zm35.43-14.32h26.7l-.05-1.34c-8.62-.39-17.27-1.75-26.65,1.34Zm1.72-45.63c-1.66-3.75-4.14-7.04-6.77-10.21-.65-.79-1.59-1.79-2.8-1.35-.91,.33-.83,1.33-.8,2.25,.04,1.27-.1,2.53,1.42,3.05,.69,.24,1.42,.38,2.09,.67,.43,.18,1.14,.73,1.1,.82-2.21,4.81,1.24,4.5,4.19,4.78,.37,.03,.7,.63,1.57,0Zm154.77,77.81c-.04-.86-.04-1.62-.13-2.36-.12-1.03,.17-2.66-1.57-2.26-1.52,.35-.5,1.7-.32,2.51,.29,1.35,.98,2.79-.67,3.58-4.08,1.93-.77,4.44-.41,6.5,.43,2.48,1.88,1.88,3.2,.32,.15-.17,1.09,.47,1.68,.51,.92,.06,2.25,.51,2.51-.83,.28-1.45-.7-2.26-2.13-2.45-1.1-.15-2.23-.17-3.28-.48-.74-.22-1.23-1.6-.63-1.63,3.03-.15,1.3-2.33,1.77-3.43ZM160.51,100.5c-1.4-1.24-2.7-1.05-3.84-1.38-2.86-.84-3.89,1.31-4.78,3.02-1.23,2.37,1.42,2.31,2.55,3.15,.99,.74,2.01,1.47,3.11,2.03,2.47,1.25,4.96,2.66,8.57,.37-2.29-.23-3.83-.4-5.37-.53-.63-.06-1.69-.34-1.52-.69,1.66-3.49-1.52-1.42-2.3-1.94-.91-.6-2.3-.43-3.24-1.8,2.28-1,4.68-.66,6.83-2.22ZM12.34,254.49c3.52,1.29,11.42-2.93,12.69-6.3,.5-1.32-.73-1.92-1.15-1.76-1.98,.76-2.74-.49-3.69-1.72-.52-.67-1.34-.55-2.05-.24-.67,.29-1.02,1.09-.6,1.5,2.1,2.03-.17,2.86-1.21,3.84,1.16,1.22,3.06-.11,3.87,2.21-3.81-2.19-4.1,4.35-7.85,2.47Zm288.13-121.67h1.1c.24-4.39,.52-8.78,.68-13.18,.04-1.05-.59-1.77-1.61-.71-.6,.62-1.02,1.64-2.04,.94-1-.68-.62-1.84-.43-2.76,.73-3.58,.82-7.14,.03-11.41-2.48,4.9-.99,9.43-1.4,13.79-.06,.69,.35,1.34,.98,1.4,3.41,.34,2.7,2.84,2.71,4.98,0,2.32,0,4.63,0,6.95ZM114.56,212.35c8.85-6.66,19.78-10.01,28.14-17.54-10.03,4.76-19.33,10.71-28.14,17.54Zm98.39,2.57c-1.32-1.77-1.92-3.23-2.5-3.23-2.33,.01-2.34-1.44-2.94-3.08-.55-1.5-1.95-3.13-3.39-3.74-1.58-.67-2.08-1.35-2.12-2.91-.02-.72-.19-2.06-1.52-1.36-.83,.44-1.09,1.44-.43,2.26,1.53,1.93,2.76,4.08,4.66,5.75,1.75,1.54,2.96,3.47,1.71,6.13,1.99,.16,3.78-.64,6.53,.19Zm-75.79-49.53c-7.25,2.12-24.22,11.68-27.21,15.35,9.52-5.37,18.36-10.36,27.21-15.35Zm27.74-65.14c1.39-.13,5.72-5.01,5.49-6.26-.26-1.43-1.29-2.47-2.71-2.65-1.51-.19-4.84,4.79-4.81,6.88,.02,1.47,1.02,1.78,2.03,2.04Zm-28.47,45.03c.24,2.64-.65,4-2.44,4.87-3.78,1.84-7.55,3.72-11.29,5.66-1.09,.56-2.1,1.32-3.02,2.13-.46,.4-.48,1.24,.07,1.65,.26,.19,1.08,.03,1.33-.25,3.34-3.86,8.6-4.22,12.63-6.96,2.74-1.87,3.94-3.35,2.73-7.09Zm161.18-7.76c-.32,4.21-.67,7.97,.36,12.06,1.21-1.57,.76-3.44,2.57-4.36,2.64-1.34,2.82-3.96,.8-6.81-1.41,.63-.33,2.8-2.03,3.28-1.17-.99-.4-2.66-1.69-4.16Zm-16.13,30.68c2.39,.05,3.8-1.92,3.85-3.53,.05-1.48-1.3-4.38-3.02-4.06-2.5,.46-2.39,3.62-3.12,5.72-.83,2.37,1.49,1.16,2.29,1.87Zm-147.53,82.06c1.32-.22,3.03,.11,2.77-1.81-.3-2.22-1.2-5.22-3.15-5.37-1.93-.15-2.67,3.09-2.98,4.96-.38,2.28,2.04,1.87,3.36,2.23Zm-33.67-80.57l.49,.85c2.56-1.74,5.23-3.35,7.65-5.27,2.35-1.86,5.36-2.04,7.71-3.71-7.13-.8-11.2,4.2-15.85,8.13Zm54.95-72.26c2.63-.45,5.08,2.53,5.98-.68,.67-2.37,2.08-4.35,2.9-6.96-4.12,1.19-5.7,4.59-8.88,7.65ZM15.75,268.62c-5.3,1.2-6.76,5.97-9.63,9.19-.8,.89,.7,2.11,1.91,2.37,.88,.19,1.73-.06,1.62-1.36-.3-3.54,1.38-5.89,4.52-7.35,.96-.45,1.43-1.3,1.58-2.85Zm199.92-85.38c-4.07,3.17-6.88,7.58-10.37,11.37-.6,.65-2.29,1.54-.85,2.62,1.29,.97,1.93-.57,2.45-1.47,2.51-4.44,5.63-8.43,8.78-12.53Zm30.41,44.38c3.3-.13,4.44-2.04,5.27-4.41,.6-1.72-.67-2.02-1.65-2.77-1.51-1.17-1.58,.41-2.17,.95-1.81,1.68-.61,4.01-1.45,6.23Zm60.64-.39c1.47-4.32,.63-8.67-.08-13.01-.03-.2-.84-.41-1.27-.38-1,.08-.71,1.17-.58,1.44,1.79,3.83,.46,8.02,1.94,11.95Zm-9.96-161.19c.44,1.66-.15,3.49-.09,5.33,.03,.78,.04,2.02,1.27,1.78,.93-.18,.3-1.2,.43-1.82,.73-3.47-1.1-7.04,.39-10.41,.37-.85,1.13-1.53-.19-1.93-.94-.29-1.75,.28-1.79,1.34-.08,1.84-.02,3.68-.02,5.72Zm-89.71,122.36c4.4-3.9,8.74-7.74,11.03-13.21l-11.03,13.21ZM34.87,112.05c3.43-2.58,6.28-4.73,9.13-6.88,.6-.45,1.35-.91,.79-1.78-.78-1.23-1.15,.08-1.66,.37-1.5,.86-2.52,2.84-4.78,1.83-.48-.21-1.18,.39-1.03,.76,1.01,2.5-1.89,3.21-2.45,5.69Zm287.4,69.07c-1.22,1.61-2.3,1.23-3.24,1.42-1.86,.36-1.43,2.38-1.9,3.66-.33,.9,.98,.97,1.61,.95,1.65-.03,2.34,.24,2.97,2.05,.19-2.77,.34-4.91,.56-8.08Zm-22.5-67.51c.3,1.29-.62,3.24,1.84,3.25,1.4,0,1.7-1.1,1.35-2.03-.6-1.61,.47-4.4-1.74-4.68-1.93-.25-1.14,2.19-1.46,3.47Zm-127.98,8.84c-.78-2.14-1.33-3.89-2.05-5.57-.45-1.03-1.53-1.14-2.54-1.14-.57,0-.92,.32-.87,.91,.08,.91,.42,1.61,1.42,1.92,1.79,.56,2.09,1.1-.02,1.74-.25,.08,.23,1.27,.92,1.12,1.16-.25,1.63,1.03,3.14,1.01Zm134.6,115.74c1.94,.76,2.75,1.92,3.46,3.26,.78,1.48,.52,4.88,2.83,3.81,1.75-.82-.6-3.35-1.26-5.03-.71-1.81-1.64-3.84-5.03-2.04Zm12.68-90.21c-.44-4.58,.47-9.22-.11-13.84-.79,4.6-1.74,9.19,.11,13.84Zm-54.47-7.37c-.6-1.09-1.38-2.25-2.74-2.46-1.1-.17-1.8,.88-1.71,1.9,.11,1.26,.28,2.97,1.81,3.14,1.25,.14,1.93-1.27,2.65-2.58Zm1.55,1.52c-.88,1.07-2.79,1.41-3.16,3.13-.21,.99,.64,2.21,1.69,1.88,1.54-.49,2.68-1.78,3.02-3.47,.17-.83-.39-1.37-1.55-1.54Zm.22,33.83l-.53-.41c-1.17,1.23-2.33,2.46-3.5,3.7-.5,.53-1.22,1.06-.98,1.85,.25,.81,1.12,.84,1.86,.9,1.08,.08,1.48-.55,1.74-1.5,.41-1.52,.94-3.02,1.41-4.53Zm-124.7-6.9l-.48-.79c-3.83,1.31-6.95,3.79-10.36,5.8l.48,.82c3.45-1.94,6.91-3.89,10.36-5.83Zm157.12,32.28c.67-4.14,.73-8.33,1.3-12.48-3.3,3.92-.5,8.35-1.3,12.48Zm-163.62,7.15c4.07-.95,6.99-3.7,10.17-6.06-4.31,.48-6.71,4.18-10.17,6.06Zm166.04,12.95c-.02,2.38,.53,3.29,1.82,3.19,1.28-.1,1.71-.94,1.51-2.06-.24-1.33-.61-2.93-2.11-3.14-1.35-.19-1.16,1.25-1.22,2Zm-33.46-71.07c1.16-.69,2.67-1.24,3-2.85,.17-.81-.46-2.22-1.26-1.85-1.4,.65-2.61,1.93-3.07,3.53-.19,.67,.52,1.02,1.33,1.16Zm-33.84-4.1c3.71-2.3,6.45-4.18,8.56-6.83-3.28,1.22-6.2,2.88-8.56,6.83Zm79.48,68.4c-.25-4.4-.53-8.73,.61-13.04-1.5,4.33-2.31,8.67-.61,13.04Zm-10.97-125.64c-.13-1.07-.06-2.57-1.5-2.47-1.49,.1-1.07,1.65-1.09,2.67-.02,.95-.01,2.14,1.43,2.04,1.46-.1,1.1-1.31,1.17-2.23ZM97.27,202.87l.4,.65c3.1-1.79,6.21-3.59,9.31-5.38l-.45-.74c-3.09,1.82-6.18,3.65-9.26,5.47Zm33.23,22.14c3.28-1.79,6.85-3.13,9.95-6.63-4.19,1.93-7.28,3.99-9.95,6.63Zm-13.54-42.15c2.89-1.65,5.77-3.31,8.66-4.96-3.66,.34-6.34,2.4-8.66,4.96Zm117.67-43.64c3.83,.18,5.08-2.52,6.87-4.5-2.33,1.14-4.77,2.09-6.87,4.5Zm84.58,73.56c.98-3.23,1.82-6.47,0-9.74v9.74Zm-110.61-45.63c-.84,.34-1.89,.79-1.72,1.68,.19,.97,.78,2.3,2.11,2.06,.89-.16,1.9-.99,1.77-2.07-.13-1.05-1.21-1.4-2.16-1.67Zm-85.3,68.4c1.29,.49,2.21,.81,3.09,1.19,.76,.33,1.52,1.03,2.25,.08,.47-.6-.02-1.05-.46-1.52-1.56-1.64-3.01-.83-4.88,.25Zm-104.26,35.55c3.09-.52,.97-3.88,3.33-4.71-1.43-.1-2.53-.23-3.63-.24-.43,0-1.11-.07-1.11,.64,0,.44,.28,1.28,.35,1.27,3.6-.42,.96,1.91,1.06,3.04Zm80.61-65.07c-.13-.67-.5-1.09-1.03-.87-1.37,.57-2.67,1.33-2.67,3.05,0,.47,.43,1.4,1.13,1.09,1.4-.63,1.85-2.14,2.58-3.27Zm221.99-68.28c-1.16,3.14-1.36,4.52-.62,4.96,.33,.2,1.26,.1,1.29-.02,.41-1.61,1.17-3.29-.67-4.95Zm-23.34-47.36c-1.67,2.81-1.71,3.8-.16,7.51,.04-2.78,.95-4.97,.16-7.51Zm-190.37,57.75c-2.44,1.01-5.23,1.49-6.27,4.39,2.09-1.46,4.18-2.93,6.27-4.39Zm57.56-42.19c-.84-1.43-1.66-2.87-2.54-4.27-.37-.58-1-.76-1.59-.31-.38,.28-.8,.67-.91,1.09-.15,.57,.41,.89,.9,.91,1.88,.1,2.6,1.81,4.15,2.58Zm46.44,68.2c1.25-.45,1.98-1.48,2.29-2.64,.22-.83-.63-1.42-1.39-1.12-1.16,.45-2.06,1.33-2.08,2.71,0,.65,.38,1.14,1.18,1.06Zm90.63,.39c-1.54,1.65-1.3,3.39-1.05,5.07,.09,.61,.87,.57,1.17,.18,1.09-1.42,.68-3.03,.4-4.61-.02-.1-.14-.19-.51-.65Zm-67.38,33.17c-.7-.73-1.27-1.91-2.38-1.85-.43,.02-1.06,1.34-1.12,2.1-.13,1.57,1.28,1.12,2.1,1.14,.71,.02,1.42-.36,1.4-1.39ZM18.07,263.87c-1.3-1.03-1.94-2.68-3.73-1.53-.84,.53-1.68,1.87-.93,2.38,1.4,.97,2.95,.11,4.66-.85Zm186.62-82.4c1.47-2.08,4.88-2.61,5.09-6.92-2.15,2.75-4.28,4.31-5.09,6.92Zm112.94,27.17c-.09-.37,.1-1.65-1.11-1.39-1.34,.29-1.65,1.62-1.74,2.89-.06,.8,.11,1.64,1.05,1.51,1.39-.19,2.04-1.17,1.8-3.01Zm-.25-10.49l-.94-.05c-.12,2.06-.25,4.12-.41,6.86,1.91-2.55,1.23-4.73,1.36-6.81Zm-201.47,9.47c2.76-1.64,4.86-2.9,6.96-4.15-2.28,.97-5.07,1.17-6.96,4.15Zm6.64-15.86c-2.14,1.52-5.16,1.28-7.63,3.97,3.35-1,5.74-2,7.63-3.97Zm196.38,46.6c.13-1.35-1.06-1.32-1.93-1.62-.85-.29-1.57-.08-1.38,.94,.18,.96,.68,1.85,1.86,1.95,.86,.08,1.43-.21,1.44-1.27Z"/><path d="M422.5,66.89c-4.07,7.28-8.73,14.36-8.35,23.24l.12-.1c-2.24-.77-.94,2.15-2.35,2.26l.09,.04c-.31-3.59,.86-7.03,1.41-10.49,.56-3.48,.57-6.85,.05-10.23-.6-3.9-.03-7.58,1.27-11.2,1.85-5.13,3.62-10.31,4.55-15.68,.32-1.87,1.47-3.1,2.36-4.49,.82-1.29,.64-2.2-.01-3.3,.84-1.25,.36-3.01,1.57-4.12,2.63-1.78,2.45-3.61-.56-5.71,.62-2,.47-3.78-1.58-4.91-.79-.44-.5-1-.31-1.56,.2-.58,.48-1.13,.72-1.69-3.18-1.29-.29-6.88-5.02-7.07,.13-3.36-3.23-.78-4.26-2.67,1.19-.99,2.83,.62,3.98-.58-.43-1.37-2.05-1.06-2.78-1.95,.76-.29,.41-1.74-1.63-6.3,4.13,0,8.04,0,11.96,0,13.73,0,27.46-.02,41.18,0,4.28,0,4.59,.77,4.38,5.1-.17,3.43-1.66,6.71-.94,10.23,.14,.69-.57,1.59-.97,2.35-3.94,7.63-8.13,15.15-11.7,22.94-1.15,2.52-2.04,5.64-.02,8.73,1.31,2.01,1.73,4.61,2.52,6.96,.09,.28,.03,.89-.09,.92-3.78,1.09-.62,2.96-.16,3.99,.44,.99,2.34,1.19,1.17,3.07-.47,.75,.4,.84,1.09,.58,.72-.27,1.52,.1,.95,.77-2.32,2.72-.23,5.22,.79,7.16,2.89,5.48,5.98,11.02,8.33,16.6,3.68,8.7,9.46,16.35,12.08,25.49,.82,2.84,3.79,4.75,3.13,8.36-.31,1.67-.45,2.51-2.26,2.49-5.66-.05-11.45-.44-16.07-3.8-7.64-5.57-14.54-11.41-17.78-21.41-4.07-12.57-6.33-25.61-10.74-37.99-1.74-4.9-2.1-10.49-5.89-14.69-2.05,1.65-1.8,4.93-4.59,6.4,.17-3.29-.13-6.5,1.9-9.14,1.81-2.37-.15-3.84-1.07-5.49-1.06-1.91-2.27,.36-3.55,.08,4.04,2.18,1.32,5.43,1.5,8.86-1.56-3.09-2.84-5.63-4.14-8.2-5.03,6.56-9.44,27.87-7.34,37.1,2.22-5,4.67-9.32,5.1-14.09,.31-3.49,1.87-6.02,3.77-8.66-.41,3.27-2,6.27-2.28,9.6-.08,.99,.12,1.61,.54,2.34l-.09-.1Z"/><path d="M381.66,92.58c2.91,1.03,5.79,.62,9.76,.17-2.63-1.46-4.71-2.15-5.03-4.48,2.32,2.09,10.55,2.19,12.5,.07,.16-.17-.24-.86-.38-1.31l-.06,.1c.86-.17,2.04-.47,2.4,.36,.49,1.16-.74,1.78-1.59,2.16-2.91,1.28-6.2,1.99-7.38,5.85,.52,.98,2.03,.24,3.04,.99,2.63,1.94,2.65,3.42-.19,5.04-1.76,1.01-4.74,1.87-.33,3.63,2.02,.81,1.94,2.34,.33,3.78-.62,.55-1.68,.62-1.88,1.64,1.4,1.64,5.22,.41,4.88,3.88-.22,2.28-3.02,3.07-3.94,5.13,1.39,.8,3.41-.88,4.09,1.06,.58,1.66-1.27,2.47-2.11,3.74,3.49,.56,3.15,1.74,.6,3.28-1.31,.79-1.33,1.37,.32,1.58-3.78,3.91-8.88,3.48-13.64,4.12-.29,.04-.91-.58-.97-.95-.13-.88,.47-.77,1.18-.76,4.24,.03,7.2-3,10.77-4.71-4.87,2.93-10.25,3.83-15.78,3.89,.29,2.52,3.28,3.1,3.07,5.5-2.24,.44-3.6-1.55-6.06-1.16,2.05,1.22,2.86,3.35,5.71,2.37,1.56-.54,2.65,1.16,1.89,2.99-.85,2.03,1.25,2.26,1.61,1.81,1.79-2.18,5.16-1.64,7.04-4.2-2.56,.02-4.65,1.92-7.17,.49,2.77-2.46,6.12-3.32,8.88-5.16,1.56-1.04,3.58-1.77,3.47-4.21,.9-1.35,3.31-.78,3.57-3.03,0,2.14-.48,3.87-1.97,5.35-.93,.93,1.86,2.55-.55,3.71-1.19,.57-2.52,1.56-3.02,3.19,1.97,.33,3.2-1.13,5.14-2-.42,1.68-1.47,2.47-2.48,3.17-2.02,1.38-4.06,2.09-2.93,5.7,.7,2.24-2.88,4.23-3.94,6.8-.77,1.85-1.59,3.54-1.67,5.6-.21,5.87-2.38,11.44-2.5,17.36-.18,8.39,1.18,16.6,2.03,24.89,.28,2.7,.24,5.43,.48,8.13,.11,1.24-.78,2.93,1.06,3.59,1.92,.69,3.84,.11,5.15-1.21,2.4-2.41,4.88-3.66,8.27-2.29,1.39,.56,2.92,.14,3.81-.86,.98-1.1,1.64-.5,2.96-.19-2.84,2.13-5.78,2.12-8.58,1.89-1.47-.12-2.54-.06-3,1.26-.56,1.63,.7,2.83,1.92,3.17,1.78,.5,3.42,.58,4.67,2.44,.55,.82,2.48,.11,3.23-1.26h0c-.15,1.91-1.85,2.35-3.1,3.2-.56,.38-1.62,.3-1.56-.19,.6-4.53-3.78-1.69-4.77-3.9-.95,2.09,2.27,3.14,.45,4.96-.5-.99-1.15-1.94-1.47-2.99-.93-3.08-2.66-4.27-5.75-2.74-1.2,.59-3.5-.24-3.48,1.8,.03,2.31,2.67,.06,3.59,1.57,.31,1.27-2.01,1.37-1.52,2.7,2.94-.15,5.84-.3,8.74-.45-.81,1.35-1.72,2.37-3.56,1.62-.65-.27-1.56-.33-2.2-.09-1.56,.58-3.52,.47-4.51,2.06-.24,.39,.2,1.69,.67,1.95,1.77,.96,3.38,2.79,5.76,1.53,.22-.12,.45-.21,.68-.3q4.17-1.66,5.79,3.24c-2.1-2.75-4.3-2.3-6.59-.65-1.07,.77-1.61,.86-2.8-.53-1.43-1.65-3.99-2.45-6.17-3.3-5.82-2.28-11.54-4.42-14.08-11.06-.84-2.2-3.82-1.99-5.64-1.42-2.2,.69-.6,2.37-.01,3.63,1.34,2.9-.76,4.36-2.58,5.84-.75,.61-1.94,.78-1.47,2.15,.38,1.09,1.24,1.68,2.32,1.44,6.24-1.42,12.09,1.85,18.24,1.47,2.56-.16,4.75,1.22,6.45,2.61,2.63,2.15,5.07,3.27,8.4,2.09,.69-.24,1.68-.62,2.5,.1-1.48,1.84-4.79,.04-5.72,2.91-1.11-.51-2.58-.72-3.27-1.57-1.92-2.36-3.63-.11-5.1,.33-.76,.23-.46,2.61,1.57,2.83-1.3,4.33,2.93,4.37,4.83,6.22,2.82-3.78,2.85-3.82,6.65-.26,.92,.86,1.58-.6,2.57,.21-1.85,3.04-4.83,5.02-7.33,7.44,.13-2.84,4.57-3.69,3.3-7.24-1.94,3.92-7.03,5.13-8.34,9.57,1.91-.58,3.21-2.01,5.08-2.35-.48,.63-1.95,1.78,.03,1.75,2.82-.05,4.85,1.14,6.94,2.67,2.93,2.16,6.31,3.69,9.76,4.47,3.48,.79,6.25-1.78,8.93-3.74,4.5-3.28,7.46-7.88,10.11-12.6,1.38-2.46,3.96-3.18,5.71-5.03,.43-.45,1.39,0,2,.78-3.57,1.09-6.65,3.58-7.35,6.72-.73,3.29-3.83,5.07-4,8.39-.04,.65-.18,2.77-1.47,.29-.43-.83-1.79,.71-2.51,1.41-3.67,3.56-7.75,6.2-13.09,6.3-.56,.01-1.52,.78-1.66,.2-.68-2.8-3.42-2.92-5.15-4.33-2.11-1.72-4.14-2.04-6.97-2.35-3.52-.38-5.3,3.13-8.67,1.36,.54,2.13,2.57,1.01,3.09,2.68-5.09-.26-3.95,3.41-4.12,6.37-.66,11.52-.86,23.04-.6,34.58,.08,3.45,2.36,6.19,5.49,6.69,.13-.23,.26-.48,.4-.72,.21,1.57,.57,3.02,2.49,3.33,.36,.06,.85,.14,1.01,.38,3.11,4.62,5.76,1.9,8.44-.5,.24-.74,.47-1.47,.71-2.21,1.85,.98,3.82-.27,6.22,.33-3.73,2.53-7.01,4.98-11.13,6.57,1.03,1.24,2.77,1.67,2.74,3.38-3.2-1.02-6.73-1.58-7.22-5.99-.11-1.01-1.44-1.12-2.2-.79-1.67,.73,1.37,1.65,.19,2.42-3.63-.38-3.06-4.21-5.23-5.93-5.58-4.41-9.52-9.82-8.11-17.52,.42-2.28-.6-3.88-2.05-5.29-1.21-1.18-2.92-.91-4.24-.46-1.37,.48-.13,1.74,0,2.56,.57,3.34,.27,6.24-2.25,8.9-1.09,1.15-1.25,3.19-1.79,4.83-.04,.12,.22,.33,.17,.27,1.3,.58,.98-1.17,2.02-1.18-.97,3.76,.55,5.37,4.39,5.34,2.39-.02,5.43-.94,5.65,3.36,.06,1.22,1.83,2.12,3.56,1.89,.88-.12,1.32,.46,.85,1.5-.8-.28-1.58-.62-2.39-.81-.78-.18-1.79-1.01-2.34,.05-.64,1.25,.68,1.97,1.45,2.18,3.89,1.02,7,2.84,8.41,6.86,.09,.25,.59,.46,.93,.51,1.65,.23,3.5-.57,3.76,2.58,.09,1.13,2.07,2.62,1.27,4.53,1.51,.42,.96-1.38,1.95-1.36q-.29,3.3,5.33,7.45c0-4.95-2.47-9.99,1.21-14.38-.35,3.94,.2,7.57,1.43,11.5,1.17,3.77,3.84,5.72,5.64,8.6,1.82,2.91,5.23,.98,6.99,3.17-1.74,.25-3.66-.67-5.21,.8-2.5-.56-2.62-3.73-5.57-4.96,1.72,2.79,2.99,5.01,4.43,7.12,.47,.69,1.49,1.25,2.24,.46,.52-.54,.27-1.41-.51-1.88,2.31,1.62,4.22,2.16,4.5-1.67,2.28,1.55-.42,2.94-.2,4.62,3.45-1.9,4.2,.22,4.03,2.85-.13,2.03,.52,3.5,2.14,4.39,1.96,1.07,2.48,2.46,2.12,4.6-.56,3.35,.75,6.36,2.15,9.31,.56,1.19,1,2.42,1.65,4-.77-.27-1.31-.32-1.36-.51-1.37-4.92-6.55-7.39-7.9-12.36-.64-2.37-2.82-2.94-4.92-3.4-2.56-.56-4.42-1.7-4.03-4.75,.04-.36,.16-.98,.04-1.04-5.24-2.44-3.26-8.64-6.28-12.06-1.95-2.21-4.63-3.86-7.18-5.44-2.57-1.6-4.75-3.19-4.43-6.65,.14-1.46-1.03-2.59-2.15-2.54-2.92,.12-3.48-1.8-4.14-3.9-.81-2.59-1.96-4.8-5.32-4.47-2.08,.2-3.35-2.18-5.59-1.88-.75,.1-.43-.59-.12-.98,.22-.29,.63-.84,.6-.86-1.94-1.66-4.8-1.14-6.83-2.99-.59-.54-2.85,1.89-2.67,2.49,.74,2.45,1.89,4.86,3.33,6.98,1.14,1.67,2.99,2.83,4.4,4.33,1.25,1.34,2.37,2.46,3.63,.12,.31-.58,.67-.73,1.12-.39,.24,.18,.42,.7,.34,.98-.35,1.14-1.34,2.41,.53,3.06,2.31,.81,.7-2.18,1.62-1.98,2.25,.49,1.24-2.29,2.73-2.38,.63,.55,.08,1.09-.06,1.62-1.53,6.12-1.24,6.78,4.79,8.32,4.22,1.07,3.51,4.95,3.42,7.31-.08,2.39,.76,3.61,1.93,5.23-1.36-.35-2.98-.68-3.24-2.15-.99-5.66-4.88-8.78-9.51-11.2-4.37-2.28-7.08-7.03-12.3-8.14-.66-.14-.84-2.09-1.45-3.08-.51-.82-1.3-1.65-2.43-1.33-.71,.2-.75,.88-.36,1.51-1.14-.77-3.36-1.56-.26-2.59,1.18-.39,2.17-.39,1.75-2.02-.39-1.52-1.34-2.01-2.77-1.69-1.19,.27-2.89,.44-2.72,1.97,.27,2.48-.92,5.65,2.56,7-1.42-.06-3.15-.63-3.22,1.73-.07,2.02,1.39,1.8,2.78,1.91,5.31,.43,7.82,5.14,11.68,7.79-4.08-2.21-6.91-1.03-8.63,3.17-.05,.11-.06,.24-.09,.36-1.82,.08-1.71,1.86-1.65,2.68,.07,1.04,1.06,.31,1.69-.04,.13-.07,.74,.29,.76,.5,.53,4.04,3.37,2.03,6.02,2.43-1.45-1.58-2.46-2.69-3.48-3.79,.76,1.41,2.47,1.16,3.56,1.5,1.91,.58,3.54-1.54,5.38-2.29,1.09-.45-1.49-1.47-1.61-2.71,2.27,.77,4.34,1.54,4.32,4.66-.01,1.4,1.8,2.74,2.86,1.9,2.65-2.12,2.92-.11,4.23,1.47,1.58,1.9,4.53,2.36,6.01,4.63h.11c-5.12-.8-9.74-3.27-14.75-4.39-2.96-.66-4.38,.88-4.29,4.06-2.16-.97-1.99,1.79-3.36,2.1,.29-.92,.51-1.87,.89-2.75,.63-1.44-.53-1.94-1.29-2.67-.68-.66-1.28-.43-1.91,.11-1.12,.95-.32,1.8,.2,2.55,.65,.95,.66,2.47,2.21,2.67,1.34,2.76,3.8,3.6,7.23,4.62-1.47-2.2-2.98-3.25-3.08-5.11,1.72,1.75,3.51,3.43,5.14,5.26,1.81,2.05,3.91,3.34,6.7,2.88,2.39-.39,3.69,.78,3.75,2.92,.11,4.16,1.93,7.44,4.57,10.42l-.51,.92c-4.05-3.11-5.24-8.61-9.52-11.62,.85,1.92-1.7,3.63,.62,5.95,2.98,2.99,6.91,5.01,9.17,8.74,.65,1.07,2.03,.79,2.98,1.35l1.96,1.4c.14,1.26,.7,2.61-1.68,1.62-2.79-1.16-4.64-3.24-6.57-5.36-1.64-1.8-2.99-3.48-6.26-2.21-3.02,1.17-4.03-2.13-5.15-4.54,.24,2.78,0,5.42-.55,7.97-.65,3.03,.86,4.53,3.35,4.39,2.8-.15,3.73,.67,3.37,3.3-.12,.9,1.32,1.17,.8,2.37-1.13-.32-2.27-.64-3.87-1.1,1.4,2.04,1.25,2.84-1.11,2.82-2.01-.02-3.21,.29-2.62,3.43,1.07,5.68,.6,11.58-.93,17.28-.1-2.54-.97-5.12-.04-7.59,.59-1.58-.77-2.15-1.15-3.2-.96-2.62-1.01-5.38-1.21-8.1-.08-1.09-.49-1.88-1.25-2.57-.03,1.5-2.79,1.34-2.05,3.26,1.65,4.28,.23,8.74,.82,13.11,.36,2.65,.41,5.47-1.48,8.43-.28-7.21,.77-14.04-.9-20.61-1.59-.54-.87,2.36-2.42,1.38-.87-.55-.57-1.62-.28-2.42,1.24-3.43-.67-5.37-3.77-7.08,3.17-.95,5.75-2.15,8.61-.44,.51,.3,1.64,1.25,2.22,.01,.4-.86-.14-1.88-.94-2.22-3.28-1.39-5.79-3.74-8.4-6.05-1.08-.95-2.64-2.59-4.06-.46-1.41,2.12,.71,2.71,1.97,3.57,.38,.26,.85,.41,1.31,.62-2.59,1.22-5.9-1.08-7.97,1.94l.04,.03c-.33-.76-.32-1.66,.4-1.99,1.7-.78,2.56-1.81,2.55-3.82,0-.98-.32-1.71-.94-1.46-2.57,1.03-5.47-3.54-7.77,.5-.33,.57-.43,.14-.59-.15-1.13-2.1-3.78-1.54-5.33-3.06-1.12-1.1-2.54-.65-2.86,.86-.66,3.08-3.09,5.7-2.39,9.13l.06-.08c-1.51-.95-1.69-2.27-1.04-3.81,.72-1.72,1.18-3.44,1.25-5.38,.09-2.61,2.61-3.55,5.41-2.04,1.89,1.02,3.64,2.07,5.89,1.16-.61-3.76-4.04-2.07-6.6-3.48,2.63,.16,4.64,.15,6.64-.63-2.03-4.46-3.15-8.94-1.27-13.65,.35-.88,.49-2.02,1.86-1.91l-.09-.08c-3.28,7-.36,13.29,2.26,19.61,.09,.23,.1,.54,.26,.69,1.44,1.39,3.06,1.41,4.74,.5,1.68-.92,3.7,2.69,5.21-.43,1.11-2.28,2.03-4.54,.2-6.89,1.62,.22,3.18,.68,4.89,.33,.7-.14,1.74,.77,2.19-.32,.45-1.08-.36-1.85-1.24-2.38-.84-.51-1.69-1.05-2.6-1.36-1.17-.4-2.28-1.32-3.62,.14-1.52,1.66-.05,2.55,.51,3.73-4.16-1.84-2.17,3.01-3.99,3.74-.89-.36-.51-1.05-.32-1.49,1.15-2.62,.3-3.89-2.39-4.91-4.41-1.67-5.84-8.48-2.9-12.41-.57,1.3-.59,2.64-.45,4.03,.08,.84,.29,1.68,1.26,1.05,1.32-.87,1.84-2.36,1.82-3.89-.03-1.94-1.65-.85-2.54-1.18,2.2-2.14,1.8-5.83,5.05-7.52-5.39-1.36-5.64-1.79-3.93-6.19,.85,.18,.61,.92,.77,1.47,.29,.98-.69,2.51,.85,2.9,1.37,.35,2.65-.35,3.62-1.43,.08-.09,.18-.19,.21-.3,.55-1.91,4.36-2,3.27-4.22-1-2.02-3.25,.33-5.01,.28-2.6-.08-4.44-.74-4.14-3.83,.16-1.6-.03-3.36,.59-4.75,1.54-3.43,.04-6.79,.08-10.16,0-.92-.55-1.56,.46-2.35,1.48-1.17,1.05,.66,1.53,.82,1.32,.44,2.74,.07,3.89-.56,1.16-.63-.22-1.5-.18-2.23,.14-2.32-.92-4.38-1.82-6.95,2.77,.75,2.04,2.79,2.69,4.04,.27,.52,.44,1.37,1.23,1.07,.72-.28,1.13-.85,.47-1.74-4.05-5.51-.8-9.95,2.23-14.35,1.25-1.82,.03-3.36-.36-4.94-.99-3.97-.65-4.46,3.56-4.18,1.92,.13,3.76,.43,4.3,2.73,2.18,.33,1.97,2,2.25,3.62,.46,2.71-.98,5.74,1.45,9.2,.43-10.33,.81-19.62,1.22-28.9,.05-1.21-.38-2.17-1.19-3.03,2.87-3.44,1.33-7.59,1.58-11.38,.1-1.48,2.47-4.6-.79-4.75-2.03-.1-.86,3.11-.94,4.75-.18,3.81-1.69,7.71,.25,11.48-1.31,.04-1.6,.86-1.58,1.99,.03,1.72,.18,3.46-.03,5.15-.49,4.03,.68,8.38-2.24,11.96,.86-2.07,.41-4.24,.15-6.28-.79-6.12,1.17-12.05,.93-18.14-.1-2.58-.68-3.41-3.23-2.55-2.09,.7-4.47,.71-6.13,2.37-.67,.67-1.14,.75-1.89,.37-3.19-1.63-6.8-1.73-10.17-2.74-3.15-.95-4.17-3.37-4.23-6.3-.05-2.49-.76-3.89-3.58-4.05-3.57-.21-4.16-3.4-5.19-6.02,1.77,2.15,3.4,4.51,6.82,4.79-.97-2.59-3.25-3.88-4.63-5.85-.64-.92-1.51-.36-2.08,.43,1.89-.62,.82-2.35,1.19-3.76,2.4,2.73,3.91,5.91,6.77,7.83,.8-.73-.34-1.94,1.23-2.4,.31,1.8,1.32,3.18,.85,5.39-.6,2.78-1.05,6.8,2.09,7.97,5.48,2.04,11.26,4.29,17.32,1.34,1.32-.64,2.1-1.22,1.77-2.81-1.44,.08-2.22,1.38-3.46,1.99,.21-4.37,5.77-3.92,6.76-8.02-1.27,.57-2.22,1-3.16,1.42,.3-1.68,1.84-1.79,2.99-2.42,.71-.39,1.12-1.12,.59-1.84-.48-.66-1.19-.15-1.61,.19-1.6,1.31-3.61,2.24-4.81,4.53,1.32-.26,2.14-.41,2.95-.57-3.38,2.57-6.8,5.08-11.27,5.28-.66,.03-1.96,.67-1.61-.98,.1-.49,.59-1.68,1-1.04,1.52,2.36,2.34,.02,3.04-.46,5.67-3.86,10.27-8.87,14.5-14.21,1.34-1.69,2.43-3.48-.13-5.46,1.64-.37,2.76-.62,4.03-.9-2.78-2.6-6.5-1.98-9.38-3.69-1.01-.6-1.73,.4-2.25,1.37-.48,.91-.48,1.53,.34,2.25,1.09,.96,2.22,1.5,3.71,1.31,1.21-.15,2.62-.39,2.59,1.58-4.93,.66-8.55-1.4-11.34-5.66,1.01,1.96-3.61,2.78-.68,5.23,.41,.35-.72,3.31,.77,4.84-3.56-1.41-3.23-4.42-3.09-7.41,.14-3.06-1.33-4.67-4.47-4.59l.07,.07c-.64-1.15-1.85-1.88-2.19-3.29-.23-.99,.87-2.72-1.21-2.81-1.87-.08,.07,2.03-1.26,2.42-.25,.07-.37,.59-.55,.9,.38-.83,.51-1.6-.55-2.14-.89,.79-.57,2.45-2.11,2.77-.97,.21-3.04-.59-2.32,1.63,.51,1.54,.64,3.98,3.46,3.37-1.8,1.85-3.05,.65-3.94-.9-.73-1.28-1.24-2.43-2.91-1.23,1.82-3.32-1.11-5.61-1.8-8.39,1.8,1.8,3.63,3.53,6.35,3.85,.9,.1,1.35-.14,1.67-1,.27-.74,.21-1.17-.59-1.35-2.74-.63-3.68-3.1-5.16-5.03,3,2.33,6.19,4.12,10.2,3.31,.91-.19,1.32,.37,1.88,.87,.91,.82,1.87,.62,2.59-.3,1.22-1.53-.6-1.08-1.05-1.5-1.68-1.6,.08-2.99,.29-4.44,.24-1.6,1.24-2.57,3.03-2.75,5.41-.53,5.94-.3,8.04,4.82,1.28,3.12,4.32,3.83,7.12,5.74-.53-8.28-.53-16.1-1.34-23.98-.67-6.53-1.51-13.29-.39-20.04,1.18-7.17,.11-14.41-.47-21.6-.18-2.22-.78-4.32-3.45-5.09-.84-.24-1.6-1.19-2.14-1.99-1.52-2.23-2.78-4.69-6.11-4.42,.4-1.7,1.4-1.03,2.15-1,1.04,.04,2.44,.9,2.95-.49,.4-1.1-.76-2-1.51-2.8-.76-.82-1.61-1.56-2.4-2.36-.82-.83-1.07-1.04,.52-1.36,1.58-.31,.24-1.79,.16-2.75-.07-.86-1.75-1.6-.4-2.5,.98-.65,1.87,.28,2.66,.87,1.55,1.15,2.96,2.65,6.2,1.85-1.81-1.58-3.18-2.76-4.55-3.95-.77-.67-2.58-.92-1.81-2.28,.6-1.07,2.2-1.8,3.53-1.59,1.09,.17,2.09,.49,3.36,.09-1.06-1.81-3.5-1.62-4.74-4.2,3.2,1.57,5.8,2.84,8.88,4.35-.09-1.85-.65-2.71-1.57-3.63-2.31-2.31-4.99-4.11-7.62-6.01-2.11-1.52-2.77-.71-2.23,1.71-1.21-.57-1.81-1.35-2.15-2.31-.59-1.66-.15-2.43,1.73-1.95,3.58,.92,6.3,3.36,9.32,5.27,.6,.38,1.01,1.79,1.97,.42,.73-1.04,0-1.59-.79-2.07-3.04-1.85-6.12-3.61-9.08-5.57-.55-.37-4.31-.87-.43-2.48,.51-.21-1.17-1.23-1.58-2.93,3.03,2.63,5.69,4.75,8.11,7.11,1.37,1.34,2.83,2.4,4.57,3.13,.95,.4,1.75,.05,2.29-.73,.85-1.24-.39-1.31-1.04-1.8-3.48-2.62-3.62-4.33-.94-7.88,.54-.71,1.81-1.84-.32-2.61-4.23-1.54-7.45-5.77-12.72-4.61-.8,.18-1.58-.85-1.66-1.75-.1-1.12,1.81-2.04,.39-3.36,1.67-.82,1.45,1.33,2.47,1.59,.57,.15,1.04,.68,2.06,.18-1.5-3.54-5.08-5.72-6.47-9.7,1.77,1.53,2.32-.71,3.56-.77,.62-.03,1.71-.15,1.78,.04,.31,.9-1.1,.11-1.1,.92,0,.93,.32,1.66,1.24,2-.73-.79-1.55-1.15-2.81-.61,.7,2.2,2.02,3.9,3.77,5.3,1.24,.99,3.45,1.81,3.59,2.91,.48,3.76,4.08,3.06,5.93,4.74,.57,.52,1.76,.36,2.05-.78,.16-.61,1.12-1.45,.06-1.88-2.36-.95-2.34-3.76-4.2-5.05Zm34.38,256.03c-1.48-.12-2.25,.24-1.28,1.84,1.36,2.23,3.34,3.38,5.82,3.69,.29-.31,.59-.62,.88-.93-1.38-1.09-2.77-2.18-4.15-3.27,5.85,1.45,5.77,7.28,8,11.76,.78-1.52,1.55-2.43,1.68-3.43,.2-1.51,.67-3.8-1.6-3.89-3.02-.13-3.37-3.25-3.16-4.02,1-3.71-.9-3.35-3.5-3.91-2.61-.56-2.71,.29-2.69,2.16Zm-32.96,14.4c.72-2.33,5.36,.98,4.22-3.36-.74-2.83-3.35-5.28-6.16-5.68-4.7-.67-7.69-2.94-9.72-6.97-.48-.96-1.06-2.31-2.35-1.81-2.46,.95-6.26,.15-6.38,4.56-.02,.76-.76,1.54-1.27,2.24-1,1.36-2.04,2.84-.58,4.31,1.18,1.19,2.82,1.42,4.49,.6,4.73-2.31,8.54-.67,12.13,2.67,1.46,1.36,3.45,2.14,5.62,3.44Zm.62-189.82l-1.01,.02c-.24,2.66-.72,5.32-.69,7.97,.13,11.67,2.96,23.19,1.9,34.93-.15,1.66,.74,2.78,2.65,2.72,1.25-15.47-1.29-30.52-2.85-45.64Zm.53-53.75c4.99,1.16,7.6-.88,9.92-3.43,.68-.75,1.71-1.88,.44-2.85-.94-.72-2.28-1.33-3.38-.18-2,2.1-3.62,4.56-6.98,6.46Zm2.21-8.66c2.93,.42,4.7-1.79,6.84-3.03,1.44-.83,.38-1.47-.65-1.96-2.7-1.29-4.67,.76-6.94,1.43-1.01,.3-2.66,.35-2.45,1.69,.23,1.44,1.85,1.76,3.2,1.88Zm-1.47,62.33c-.13-1.37,.68-2.21,.12-3.27-1.28-2.44-1.07-5.08-1.21-7.74-.16-3.18,.73-6.14,1.03-9.21,.07-.75,.01-1.61-.93-1.77-.77-.13-1.14,.44-.99,1.16,.71,3.6-.85,7.1-.42,10.69,.39,3.29-.84,6.89,2.4,10.14Zm1.19-71.27c3.62,2.88,5.37-1.18,7.87-1.77,.57-.14,1.22-.52,1.11-1.28-.12-.86-.83-1.17-1.59-1.3-1.28-.23-2.91,.24-3.47-1.48-.7-2.13-2.1-1.44-4.49-1.08,2.56,1.11,1.38,5.74,5.48,3.44,.47-.26,.97,.09,1.14,.62,.24,.77-.25,1.23-.9,1.31-1.7,.21-3.36,.49-5.15,1.55Zm-15.6,226.75c-.83-2.15-2.44-2.54-3.92-3.08-1.96-.71-2.8,1.67-4.56,1.73-.23,0-.1,1.3,.48,1.92,1.18,1.25,2.43,1.38,3.99,.69,1.21-.54,2.54-.81,4.01-1.26Zm7.18,40.92c.12,.93-.43,3.48,1.51,3.66,1.58,.15,1.28-2.05,1.06-3.57-.05-.32,.84-1.32,.83-2.21,0-.9,.75-2.26-.75-2.43-1.19-.13-2.42,.46-2.63,1.97-.08,.61-.01,1.24-.01,2.58Zm-12.76-24.22c1.54-.41,3.88-.06,4.24-2.42,.2-1.29-1.14-2.56-2.52-2.5-1.93,.08-3.61,1.11-4.04,3.19-.34,1.64,.97,1.69,2.32,1.74Zm17.4,35.35c-.92-.57,.05-2.49-1.99-2.39,.37,2.72,1.72,4.44,4.45,5.25,.16-1.22,.7-2.42,.37-3.3-1.31-3.47-2.12-1.57-2.83,.44Zm8.07-258.12c-.84,0-1.69,.04-2.53,0-1.09-.06-2.25-2.15-3.06-.53-.66,1.32,1.16,2.85,2.07,3.47,2.77,1.88,2.17-1.97,3.52-2.93Zm-15.53,244.87c-.63,1.05-1,1.99-1.64,2.69-1.04,1.14-.4,1.96,.27,2.88,.37,.51,.8,1.16,1.42,.83,1.04-.55,.85-1.62,.76-2.62-.11-1.2,.1-2.46-.81-3.78Zm11.13-129.99c-1.26,1.14-2.73,1.86-2.72,3.59,0,.65,.92,.59,1.53,.37,1.91-.68,1.68-2.09,1.18-3.96Zm-6.2-92.5c.06,.78,.04,1.49,.19,2.16,.27,1.23,1.15,1.86,2.36,1.91,.62,.03,1.39-.34,1.39-.95-.02-1.22-1.04-1.44-2.06-1.6-.79-.13-.38-1.46-1.87-1.51Zm2.37-16.32c-2.24-1.13-4.23-1.66-6.5-.42,2.01,1.25,3.9,1.93,6.5,.42Z"/><path d="M53.95,306.47c2.86-2.22,2.24-6.06,1.81-8.26-.78-4.02,1.47-6.58,2.47-9.7,.58-1.8,1.99-3.32,2.94-5.02,.63-1.12,2.58-2.77-.81-2.76,0-1.42-.28-2.93,.1-4.25,.35-1.22,.51-2.98,2.01-3.37,1.38-.36,2.2,.8,2.7,2.01,.66,1.59,1.34,.41,1.87-.03,5.16-4.31,5.53-6.75,1.95-12.69-.49-.81-1.11-1.55-1.79-2.48,5.4,.65,3.96,5.36,5.49,8.23,1.17,2.18,.5,3.58-1.33,4.95-3.63,2.73-5.47,6.84-7.82,10.68,2.93-1.04,4.85-3.89,8.05-4.24,.15,1.73-4.28,1.35-1.95,4.26,.28,.35-1.3,.79-2.08,1.03-3.7,1.15-4.6,2.94-3.21,6.53,.7,1.81,.66,1.99-.82,3.43-.73,.32-1.43-.48-1.23-.63,2.25-1.69,.31-2.39-.62-3.75-2.45,4.25-5.82,7.78-4.11,12.96-.28-4.49,3.51-6.08,5.97-8.58-.81,3.04-3.44,5.41-3.38,8.87,1.95-.7,4.26-.49,5.2-3.06-.46,3.2,.25,6.37-1.52,9.24,1.75-.9,2.2-2.43,2.29-4.14,.32-5.92,4.62-8.78,9.94-6.24,6.15,2.93,10.63,7.77,13.63,13.87,1.35,2.75,1.18,5.59-.8,8.01-1.09,1.34-1.15,2.45-.66,4.06,1.7,5.59,3.85,11.03,5.85,16.48,1.94,5.3,5.43,10.02,8.22,15.01,.4,.71,1.19,1.32,.73,2.52-2.22-2.48-3.61-5.33-5.2-8.06-4.62-7.92-8.34-16.24-11.22-24.95-.74-2.24,.37-4.64-.94-6.8-.29-.47,.27-1.43,.96-1.16,2.64,1.01,2.62-.96,2.3-2.31-.37-1.55-.11-4.25-3-3.66-2.49,.51-1.91-1.24-2.06-2.4-.4-3.07-6.65-9.05-9.78-9.18-2.13-.09-2.14,2.04-3.02,3.2-.52,.69-1.9,1.67-.27,2.74,1.79,1.17,1.12,3.06,1.37,4.69-2.16-.1-3.09,3.06-5.48,2.14-1.52-.58-2.09,.14-2.32,1.37-.24,1.31-1.42,2.78-.37,3.93,2,2.2,2.33,2.18,.89,5.14-.84,1.73,.23,2.08,1.16,2.41,2.99,1.06,5.3,3.01,7.53,5.14,.61,.59,1.4,2.26,2.1-.17,.26-.91,.92,.11,1.04,.61,.26,1.07,.19,2.26,.63,3.23,.71,1.54-1.29,3.05,.17,4.56,.99,1.02,1.76,2.26,2.4,3.58-4.03-3.6-7.71-7.54-12.02-10.77-.9-.67-1.79-1.47-2.81-1.82-1.17-.39-2.46-2.28-3.59-.72-.9,1.24,1.51,1.63,1.78,3.37-2.09-1.59-3.95-2.27-5.57,.2-.42,.64-1.48,1.17-2.26,1.19-3.59,.13-6.12,2.35-8.97,4.08-6.88,4.19-10.76,3.67-16.65-1.91-.07-1.31,3,.56,1.9-1.69-.86-1.74-.69-4.44-3.77-4.28-4.16,.23-8.45-.71-12.83,1.97,1.59-3.1,4.38-2.44,6.41-3.47-1.98-2.82-3.85-3.96-6.05-.54-.19,.29-.71,.73-.8,.67-4.47-2.87-7.32,.77-11.12,2.89,1.38-2.78,3.49-4.51,4.58-6.93,.64-1.44,.38-1.96-.55-3-2.27-2.55-5.54-4.04-7.33-7.3,2.39,2.08,5.94,.07,8.13,2.64-.61,1.04-1.61,.04-2.39,.37,.17,.3,.25,.6,.37,.62,.61,.1,1.5-.11,1.8,.23,1.49,1.63,2.85,3.05,5.42,3.01,3.22-.05,4.67,3.55,7.67,4.28,1.02-1.35-1.49-1.12-1.01-2.24,1.98-1.75,3.66,.74,5.83,.55,4.23-.37,7.31-3.21,11.31-3.82,2.07-.32,4.08-.51,5.83,.27,3.26,1.46,6.14,1.34,8.99-.79,.55-.41,1.29-1.01,1.89-.08,.29,.44-.02,.91-.39,1.31-2.41,2.52-2.06,4.11,1.59,4.42,.92,.08,.97,1.06,1.67,1.28-.44,1.97-1.21,3.82-2.36,5.57,4.57-.05,2.44-4.34,5.13-6.13-1.48,.34-2.19,.5-2.89,.66,.02-1.09,.47-1.07,1.48-2.39,1.04-1.36-.38-3.13-1.26-3.7-3.44-2.24-1.83-4.94-1.41-7.59,.98,2.24-.52,5.4,3.13,6.57,.53-1.48-1.39-2.41-1.01-3.94,1.58-.62,1.19,2.11,2.7,1.63,1.05-1.19-.55-2.57,.19-3.8,1.26-.9,.82,2.85,2.45,.89,1.04-1.25,.7-1.86-.67-2.82-.98-.68-.39-2.91-2.22-3.51-1.3,.73,.16,2.12-.69,2.97-3.94-1.98-6.88,.76-10.1,2.22,.57-.64,1.08-1.35,1.72-1.89,1.47-1.24,3.34-1.59,5.12-2.02,2.16-.53,1.79-2.41,2.27-3.84,.17-.5,.24-1.04-.42-1.17-1.89-.36-1.55,1.56-2.34,2.33-1.75,1.7-1.87,.37-1.9-1.07Zm-6.96,21.63c.83-.74,1.66-1.5,2.89-2.61-3.35,.03-6.12-3.97-8.94,.2-.25,.37-1.08-.2-1.59-.62-2.3-1.92-4.28-1.46-5.24,1.32-1.03,2.99,.95,5.44,1.41,8.67,2.83-2.62,5.78-4.51,7.38-7.2,.74-1.25,1.09-2.26,2.47-2.39,2.14-.2,.44,2.14,1.63,2.63Zm2.72,6.69c-1.63,0-2.6,.44-3.52,1.11-.74,.55-1.41,.72-2.31-.02-4.12-3.38-4.22-3.41-7.56,.69-.57,.7-2.27-.57-1.64,1.03,.37,.94,1.44,1.38,2.66,1.67,4.91,1.15,8.45-1.27,12.37-4.48Zm-22.6-8.7c-1.49-.21-2.99,.26-3.45,1.62-.4,1.2,.46,2.49,2.03,2.39,1.62-.1,3.76-.1,4.21-1.86,.32-1.27-1.19-2.18-2.8-2.15Z"/><path d="M139.75,96.87h.01c.64,1.98,.59,2.85-1.99,1.97-4.49-1.53-9.02-2.95-13.35-4.91-.8-.36-1.58-.87-2.41-.16-3.25,2.75-6.51,5.92-7.75,9.76-1.11,3.43-2.28,2.63-3.98,1.44-2.85-2-5.6-4.04-10.17-3.12,2.4-3.53,4.64-6.06,7.36-8.18-.08,.37-.05,.82-.26,1.09-2.32,2.96-4.75,5.89,1.38,7.24,.19,.04,.32,.36,.48,.55,1.21,1.45,2.25,1.09,3.33-.22,2.7-3.26,5.35-6.57,8.22-9.68,1.9-2.05,.62-3.63-.28-5.35-.92-1.77-2.25-2.62-4.26-1.66,.83-1.57,.69-3.37,.5-4.93-.35-2.95-2.53-3.61-5.27-3.19-1.32,.21-2.61,1.76-4.23,.19,2.88-3.3,6.72-2.35,10.22-2.4,1.29-.02,0,1.05,.12,1.63,.19,.92,.56,1.83,1.46,1.92,.61,.06,1.49-.43,1.91-.94,.73-.9-.59-.95-.88-1.46-.87-1.51,.22-6.17,1.95-7.11,3.09-1.68,5.49-4.25,8.36-6.22,2.21-1.52,3.93-3.52,4.39-6.26,.28-1.69,1.78-2.51,3.24-4.66-3.38,2.67-5.81,4.74-8.6,6.37-4.62,2.72-9.69,3.41-14.86,4.12-3.63,.5-7.45,.72-10.56,3.21-.91,.73-2.43,.75-3.04-.18-.74-1.13,.66-1.64,1.47-2.1,2.16-1.23,4.36-2.11,6.93-2.48,3.04-.44,6.09-1.32,8.98-2.61,1.32-.59,2.53-1.67,4.5,.17,1.31,1.23,4.15-.9,5.85-2.27,3.6-2.9,8.27-4.4,10.97-8.48,.39-.59,4.38,2.71,4.04,3.65-.84,2.32,.53,1.52,1.78,1.78,7.16,1.51,13.1-1.64,19.37-4.27,5.75-2.41,12.1-1.25,18.16-1.25,9.05,.01,15.8-4.02,21.7-10.44,4.89-5.32,10.77-9.52,16.99-13.2,.57-.34,1.39-.27,2.21-.13-4.83,3.46-9.86,6.56-13.98,10.83-4.33,4.49-9.38,8.19-13.13,13.36-1.86,2.56-5.18,4.36-8.95,3.95-.2-1.27,1.51-1.51,1.56-2.87-5.63,.96-11.28,.34-16.91,.3-6.58-.04-11.86,3.4-17.63,5.52-.41,.15-2.06,.55-.57,2.1,1.17,1.22-.98,1.97-1.7,2.74-1.3,1.42-2.42,2.72-1.95,4.79-.39,.4-.78,.8-1.17,1.21-9.96,2.46-15.08,7.78-15.05,16.03,1.15-1.16,2.03-2.43,4.15-2.38-2.36,1.69-3.03,4.14-4.53,6.07-1.1,1.42-1.95,4.92-.04,4.92,4.24,0,3.8,2.65,4.31,5.06-.69-.71-1.4-1.37-2.04-2.1-.51-.58-.98-1.11-1.83-.66-.66,.35-1.3,.76-1.3,1.6,0,.92,.77,1.09,1.44,1.39,1.3,.58,2.54,.84,3.68-.3l1.63,1.19Zm-11.4-27.81c5.52-1.63,11.61-2.16,15.56-7.22,1.37-1.75,4.88-2.27,4.19-5-.71-2.76-4.07-1.42-6.14-2.29-2.1-.89-3.81,.34-4.82,2.38-2.22,4.47-4.21,9.11-8.78,12.13Z"/><path d="M377.46,20.39c1.9,.88,1.09,2.59,1.64,5.23-3.06-3.92-6.28-.5-9.03-2.03h.01c1.71-1.85,1.55-4.37,2.3-6.56,1.56-4.53,4.1-7.93,9.14-8.99,.32,1.66-1.41,1.42-1.7,2.57,2.67,.46,5.51-.91,8.01,.97,.72,.54,1.16-.72,1.41-1.29,.34-.8-.22-1.14-.98-.91-1.41,.44-1.89-.73-2.96-1.32,5.73-2.45,5.82-2.52,6.75-4.93,1.04,.56,.79,1.56,.56,2.3-.86,2.73-.65,4.86,1.87,6.87,2.11,1.68-.09,4.4,.52,6.62,.06,.21-1.94,1.24-.57,1.95,.92,.48,2.72,1.72,4.01-1.23,.05,4.44,2.54,8.23-.1,11.5-2.41,2.99-4.31,6.14-5.78,9.62-.85,2-1.61,4.02,.75,5.49,1.23,.77,.07,1.13-.08,1.68-.73,2.79-3.13,5.54,.69,8.2,1.77,1.23-1.45,2.49-.88,4.2,.78,2.34,3.43-.82,3.85,1.33,.24,1.2,.23,2.88-1.18,3.7-1.37,.79-2.28,1.89-1.6,3.31,.56,1.16,2.11,.88,3.28,.99,.99,.09,1.98,.17,3.31,.28-1.04,1.56-1.49,2-3.72,1.54-3.06-.62-7.23-3.56-9.75,1.43-.56,1.11-1.12,.09-1.75-.07-2.36-.58-3.98-3.01-6.74-2.62-.47,.06-1.31-.43-.72-1.23,1.78-2.4-.2-3.14-2.02-4,1.53-.11,2.59-1.78,4.11-.21,.94,.97,2.62,1.23,3.66-.06,.62-.77,1.57-1.88,.71-3-.87-1.13-2.4-2.14-3.59-1.41-4.39,2.72-6.76-1.72-7.9-3.45-2.6-3.92-5.29-8.5-3.42-13.87,.95,.39,1.19,1.08,1.17,2.2-.07,3.54,.9,6.88,2.59,9.95,2,3.63,7.57,5.69,10.83,3.54,2.11-1.39,3-4.43,1.84-6.87-2.06-4.33-2.88-9.04-4.7-13.45-1.46-3.54-2.06-7.89,.92-11.55-.45-1.25-2.31,1.69-1.78-.19,.82-2.88-.63-6.29,2.2-8.76,1.33-1.16,1.09-3.2-.12-4.36-1.18-1.13-3.05-.88-4.63-.63-.79,.13-.45,1.01-.41,1.6l.11-.09c-2.97,.55-5.51,4.72-4.43,8.77,.02-4.87,2.82-2.16,4.44-2.7l-.12-.07Zm15.75,36.89c-1.39-1.25-2.89-.42-4.26-.25-1.52,.18-2.9,1.81-2.09,2.77,2.09,2.49,.69,4.5-.1,6.7-.6,1.67,.95,2.94,1.63,2.27,2.01-1.99,5.37-2.8,6.28-6.21-1.86-.11-4,1.41-4.68-.38-.9-2.4,2.49-2.95,3.22-4.89Zm-7.19-36.27c1.54,.12,2.76,.14,3.96,.34,.95,.16,1.84,.26,1.79-1.01-.03-.94-.49-2.29-1.58-1.88-1.89,.7-2.41,.3-2.37-1.62,.02-1.08-.89-.99-1.61-.7-.54,.22-1.34,.88-.48,1.21,2.6,1.01,.18,2.34,.3,3.66Zm2.02,13.91c-1.84,1.55-1.87,1.59-3.86,.27-.58-.38-.85-.17-1.22,.16,1.5,1.12-.76,2.63,.24,3.51,.93,.81,2.13,.14,2.99-.64,.88-.8,1.99-1.49,1.86-3.31Zm-.57,10.66c-2.71,2.39-1.02,4.45-.02,5.47,1.24,1.27,2.96,.22,4.38-1.37-4.74,.84-4.89,.71-4.35-4.11Zm8.8-21.61c-3.06,2.14-3.9,5.52-4.89,8.81l4.89-8.81Z"/><path d="M149.31,66.07c.39-.4,.78-.81,1.17-1.21,1.51-4.8,5.88-5.59,9.79-6.06,1.65-.2,3.64-2.1,5.54-.27-4.4,3.52-8.74,7-13.38,10.72,2.82,1.41,4.54,.36,6.38-1.09,4.25-3.32,8.53-6.6,13.78-9.64-.66,2.26-2.11,2.82-3.24,3.66-4.14,3.1-8.72,5.35-10.92,10.92-.91,2.3-3.01,5.52-5.93,7.21-1.09,.63-2.22,1.64-2.52,3.34,1.67,.44,2.58-1.05,3.4-1.7,6.46-5.13,12.94-10.22,19.96-14.6,.98-.61,1.43-1.63,1.96-2.65,2.38-4.65,6.07-6.07,11.21-4.28,1.07,.37,2.2-.94,3.34,.62-2.78,1.25-5.5,2.47-8.22,3.69-3.48,1.56-6.29,3.69-5.5,8.05,.42,2.32-.98,3.15-2.56,3.84-2.69,1.18-4.31,3.22-5.3,5.86,.48-.71,.64-1.44-.2-1.91-1.45-.82-2.63,.02-3.74,.83-4.21,3.06-8.37,6.19-12.61,9.19-1.09,.77-2.3,1.71-4.69,.86,4.38-3.15,8.15-6.09,12.15-8.64,1.77-1.13,1.86-2.06,.85-3.55,2.84,2.85,4.34-1.37,6.66-1.24,.52-1.27,1.21-1.99,2.82-1.53,1.09,.31,2.62-.21,2.87-1.18,.44-1.76,.52-3.5,2.49-4.36,.18-.08,.17-.94,.02-1.36-.18-.49-.68-.57-1.23-.42-3.07,.84-7,5.84-6.96,8.88-1.23-2.06-2.64-2.22-4.34-.52-.67,.67-1.52,1.18-2.28,1.76-6.12,4.56-11.81,9.83-19.72,11.84,2.13-5.02,7.99-6.58,9.86-11.52-2.17,.25-2.56,3.28-4.95,3.32-.3-2.49,.77-4.59,1.66-7.43-1.76,1.13-2.57,3.43-4.07,2.19-1.19-.99,.36-2.43,.73-3.68,1-3.33,4.06-5.13,5.73-7.95Z"/><path d="M91.08,70.53c.62,6.76-2.84,9.34-10.36,7.62-5.89-1.35-11.67-2.41-17.48,.14-.54,.24-1.05,.25-1.19-.31-.1-.39,.06-1.14,.34-1.3,1.17-.65,2.44-1.13,3.6-2.01-3.41,.05-6.2,3.28-10.47,1.95,3.05-1.23,5.62-2.24,8.17-3.3,1-.42,2.89-.89,2.55-1.65-.42-.95-1.48-2.05-3.4-1.84-5.47,.59-10.29,2.79-15.02,5.3-1.02,.54-2.36,.88-2.97,2.47,3.17,.81,5.96-1.73,9.02-.46-4.18,1.35-8.33,2.85-12.79,2.88-1.36,0-2.26-1.04-2.22-2.52,.03-1.29,.99-2.53,1.99-2.32,4.45,.92,7.64-2.01,11-3.73,5.63-2.87,11.72-2.96,17.64-4.11,1.31-.26,2.54,.33,3.09,1.61,.6,1.38-.88,1.89-1.47,2.75-.65,.95-2.98,.58-2.43,2.26,.57,1.73,2.4,.44,3.64,.68,2.56,.5,5.25,.68,7.62,1.65,2.38,.97,4.66,.28,6.95,.38,1.39,.06,2.89-1.25,2.56-3.06-.32-1.76-1.8-1.07-3.02-1.09-2.29-.03-4.59-.38-6.93-.83,6.34-1.77,11.63-5.68,17.68-8.09-1.08,1.93,.61,5.35-3.38,5.52,.89,2.64,3.58,2.25,5.18,3.61q-1.71,.54-7.88-2.2Z"/><path d="M29.95,294.99c1.03,1.25,1.91,2.88,4.23,1.35-2.28,1.83-2.91,4.02-2.77,6.5l.12-.14c-.48-.06-.7,.64-1.5,.09-1.44-.98-1.95,.71-2.49,1.58-.42,.66,.44,1.26,.94,1.07,2.77-1.08,5.06,.97,7.63,1.02,.08,1.76,1.92,1.69,2.79,2.65,1.58,1.74,4.01,3.06,2.27,6.02l.99,.33c-1.2,1.67-4.1,1.5-4.45,4.1-.01,.09-.22,.25-.25,.24-4.55-2.62-10.45,4.11-14.46-2.1,2.55,.28,5.02,2.17,7.59,.93,2.38-1.15,4.24-3.04,7.34-2.92,1.13,.04,2.36-2.83,1.03-4.56-1.89-2.45-14.81-2.71-16.82-.3-.61,.72-.97,1.99-1.85,1.42-.52-.34-2.42-1.22-1.02-2.8,.23-.26,.06-.93-.03-1.4-.79-4.52-1.59-5.03-6.64-3.88,2.91-3.89,7.02-5.82,9.99-8.98,.07,1.62-2.1,2-2.11,3.54,1.9,1.76,3.71,1.41,5.83-.78-.6,2.36-2.08,3.94-.17,5.14,2.63-.54,.97-3.38,2.25-4.07,1.98-1.05,1.46-2.56,1.56-4.05Zm-8.6,12.56c1.03-.75,1.86-2.21,1.27-2.83-1.22-1.27,.22-4.3-2.77-4.16-.82,.04-1.98,.47-1.26,1.6,1.1,1.71,.42,4.34,2.75,5.39Z"/><path d="M321.8,99.26c-1.83,.74-3.48,.48-3.52-1.73-.08-4.21-.52-8.5,.81-12.6,.8-2.47,3.51-4.43,1.03-7.56-.56-.71,3.03-1.8,1.44-4.19,2.79,2.5,2.69,8.75,.01,10.84-.69,.54-1.58,.78-1.58,1.82-.02,3.91,0,7.83,.33,11.75,.48-3.22-.39-6.58,.93-9.65,.36-.83-.37-3.44,2.24-2.07,.12,.06,.73-.39,.75-.63,.39-3.65,.97-7.3,.93-10.95-.02-1.69,.22-2.55,1.67-3.11,1.2,.98,.18,2.53,1.49,3.88v-11.3c-.21,4.16-6.62,1.67-6.68,6.25,.77-1.72-2.38-5.87,3.03-4.56,.97,.24,.91-1.24,.7-2.1-.33-1.32-.03-3.26,1.03-2.99,1.19,.3,3.6,.56,3.62,2.39,.06,5.34,2.44,11.15-2.75,15.63-1.02,.88-1.79,2.45-.41,3.44,3.8,2.72,1.56,6.19,1.72,9.36-2.37-1.93-.49-4.69-1.67-6.77-1.24,1.84-.47,4.3-1.4,6.34-.35-.07-.66-.03-.8-.16-.77-.72,.23-2.74-1.33-2.58-1.65,.16-1.21,2.02-1.17,3.11,.1,2.75,.32,5.47-.45,8.18-.01,.02,.03-.03,.03-.03Z"/><path d="M91.6,7.06c1.91-2.4,4.56-1.97,6.74-2.21,4.05-.45,7.7-1.82,11.31-3.52,.77-.36,1.65-.57,2.5-.69,.64-.09,1.26,.24,1.36,.97,.12,.84-.55,1.03-1.18,1.12-.85,.12-1.84-.06-2.55,.3-1.46,.74-4.67-.02-3.33,3.5,.1,.26-.77,.89-1.2,1.33-1.95,2.02-3.06,4.24-3.23,7.23-.24,4.1-2.45,7.14-6.44,8.85-3.54,1.51-7.39,2.17-10.72,4.3-1.57,1.01-3.38,.06-5.45-.55,2.13-1.48,3.95-2.68,6.27-3.24,3.91-.95,5.66-3.82,5.13-7.89-.05-.36-.19-.8-.05-1.09,1.22-2.53,.65-3.68-2.87-2.93,3.36-2.18,7.49-1.99,9.27-5.76-1.8-.91-3.42,2.08-5.56,.29Zm-1.57,17.42c4-.69,10.41-5.36,9.93-7.4-.99-4.23,.58-7.43,3.17-10.56-3.24,1.16-5.65,3.12-7.98,5.56-2.52,2.63,.4,5.96-1.87,8.45-.43,.47,1.62-.68,1.7,.71-1.16,1.63-3.51,1.28-4.95,3.24Z"/><path d="M323.83,131.4h.13c-1.99-2.98-1.47-6.07,.98-8.44,.73-.7-1.03-1.2-1.38-2.13-.75-1.99-.96-1.91-2.8-.54-.97-2.03,.03-4.19-.65-7.07-.59,3.33-1.92,5.85,.3,8.24,.71,.77,1.45,1.43,.97,2.56-.24,.56-.75,.51-1.25,.3-1.13-.47-3.03-.85-2.62-2.18,1.7-5.49-1.56-11.63,2.55-16.85,1.19-1.51,1.17-3.97,1.72-6.01,.01-.02-.03,.03-.02,.01,.88,3.58,.44,7.28,1.05,10.96,1.35-2.92,.81-6.16,.96-9.12,.16-3.22,4.22-3.8,3.67-7.12-.1-.58,1.27,.05,1.38,.76,.29,1.94-.1,3.73-1.8,4.99-1.59,1.17-2.21,1.99-.62,4.12,3.54,4.73,1.82,10.09,.93,15.25-2.02-3.67,1.42-7.97-1.94-12.23-.11,2.29-.09,3.9-.31,5.48-.12,.87,.31,3.23-1.88,1.08-.73-.71-1.04,.37-1,.92,.06,.84-.87,2.34,.77,2.36,2.14,.03,1.92,1.41,2.09,2.73,.1,.75-.4,1.85,1.09,1.88,3.19,.06,1.18,2.57,.78,2.71-3.1,1.08-2.6,3.43-2.38,5.76,.06,.66-.13,1.22-.73,1.59Z"/><path d="M290.19,3.07c-1.1,.43-2.2,1.33-3.03,1.12-4.91-1.23-4.42,1.9-4.6,5.05-.46,8.24-1.32,16.48-6.57,23.34-1.28,1.67,.26,2.71,.15,4.23-3.07,.07-5.68-1.3-8.15-2.5-3.46-1.67-7.28-2.59-10.4-5.03-1.76-1.38-3.57-.18-5.3,.45-1.39,.51-2.77,1.07-4.27,1.65,.63-2.62,1.27-5.12,1.24-7.73-.01-1.11-.34-2.16-1.3-2.5-2.18-.76-2.82-2.57-3.73-4.63,3.07-.45,4.18,4.64,8.47,1.33-1.85,3.42-.89,4.83,1.04,6.23,4.13,2.99,8.13,6.06,13,7.93,4.65,1.79,7.2,1.33,9.62-3.24,4.17-7.85,5.09-16.3,4.02-25.03-.13-1.08-.99-2.4-.11-3.18,1.39-1.23,1.6,.91,2.48,1.25,.93,.35,1.89,.22,2.91,.04,1.49-.25,3.22-.67,4.55,1.21Zm-39.33,21.41c-.17,1.6-1.16,3.28,.19,4.21,.77,.53,2.94-.53,3.03-1.42,.16-1.67-1.63-2.13-3.22-2.8Z"/><path d="M316.32,306.78c-.57,.29-.77,1.66-1.81,.17-3.25-4.65-3.36-4.62-7.41-1.09-1.03,.9-1.92,2.37-3.34,.84-1.24-1.33-.17-2.48,.74-3.57,.72-.85,1.42-1.75,1.94-2.74,.52-1,1.61-.99,2.6-1.78-1.14-.89-2.22-1.72-3.25-2.51,.64-.86,1.22-.66,1.47-.41,1.81,1.76,3.97,1.08,4.71-.48,1.5-3.14,6.17-4.07,5.61-8.87-.13-1.11,3.5-3.17,5.69-3.84,1.13-.35,2.22,1.77,1.7,3.45-.29,.93-.88,1.75-1.34,2.63-.84,.43-2.07-.6-2.63,.41-2.21,3.96-5.49,7.08-8.22,10.63-.6,.77-1.13,1.27-.42,2.17,.7,.88,1.49,1.28,2.56,.56,1.61-1.09,3.53-1.73,4.35-3.83,.56-1.44,.76-1.36,2.3-1.6-1.75,3.28-3.5,6.57-5.25,9.85Z"/><path d="M287.56,17.28c-3.33-2.33-4.05-4.89-2.24-8.2,.56-1.03,.82-2.34,2.61-2.15,1.48,.16,2.21,.75,2.56,2.15,.17,.69,.69,1.3,1.05,1.96,4.89-1.84,2.43-7.46,5.71-10.21,1.02,2.26-1.14,5.36,1.93,7.17-4.73,.74-7.61,5.09-6.39,9.92,.78,3.09-2.34,5.04-1.64,7.9-4.62,.16-3.73,5.4-7.33,7.61,1.06-3.75,1.87-6.97,2.91-10.1,.36-1.09,1.04-1.74-.27-2.81-1.95-1.61-.61-2.59,1.05-3.25,.93-2.93,.53-5.85-.06-8.98-2.95,3.16-1.67,6.08,.11,8.99Z"/><path d="M317.22,20.5c2.05-2.72,2.04-6.26,3.69-9.29-.06,1.61,.24,2.79,1.15,4.18,.98,1.51,1.4,3.74,.33,5.9-.52,1.06-.54,3.07,1.29,3.32,1.84,.25,.96-1.56,1.29-2.47,.32-.91,.73-1.8,1.37-3.32,.19,2.89,.28,5.17,.49,7.44,.26,2.84-3.32,3.13-3.92,6.03,4.19-1.34,5.24-5.03,7.22-7.7,.74-.99,1.03-1.85,2.4-1.4h-.04c-4.46,8.93-.32,16.28,4.77,23.45-2.79-1.73-5.86-6.65-6.98-10.12-.35-1.1,.38-3.21-2.51-2.17-1.37,.49,.4-1.42-.37-2.33-3.7,1.56,0,8.12-5.81,8.86,.67-1.84,2.22-2.47,2.28-4.16,.05-1.38,.23-2.46-1.33-2.93-2.73-.82-3.36-2.66-2.44-5.63,.47,1.37,.83,2.42,1.28,3.72,1.2-1.55-.51-2.89,.44-4.15,.8,.04,1.39,2.34,2.41,.51,.67-1.2-.64-1.23-1.38-1.6-2.46-1.21-2.45-3.48-2.18-5.72,.18-1.46,.84-2.87,.2-4.75-1.19,1.66-1.9,3.5-3.67,4.33v.02Z"/><path d="M42.17,13.12c.18-.43,.24-1.09,.56-1.26C51.08,7.44,59.43,3,68.59,.41c.52-.15,1.15,.06,2.63,.16-6.44,3.42-13.01,4.34-19.22,8.47C63.65,5.74,73.43-1.28,85.4,.8c-16.53,2.48-31.6,8.92-46.15,16.91,1.94-2.4,5.26-2.95,7.18-5.72-1.6,.39-2.96,.72-4.33,1.05,0,0,.07,.08,.07,.08Z"/><path d="M414.15,90.13c3.29-1.48,2.74-4.73,3.25-7.41,.15-.77-.12-1.69,.17-2.54,.52-1.52,1.17-3.75,2.82-3.28,2.13,.61-.22,2.65,.19,3.76,1.26,3.45-2.15,4.71-3.1,7.08-1.2,2.98-.21,6.59-2.82,9.07-.23,.22-.36,.96-.3,.99,2.84,1.41,.48,3.63,.69,5.38,.29,2.42,.09,4.92,.35,7.41,.36,3.45-3.56,10.61-5.95,11.31l.06,.09c1.88-4.79,4.32-9.29,1.93-14.88-2.04-4.78-.49-9.87,.59-14.78l-.09-.04c.73,4.04-.29,8.12,.56,12.22-.64-5.02,1.62-9.6,1.79-14.48l-.12,.1Z"/><path d="M414.39,203.69c1.4-2.36,3.28-4.27,2.4-7.48-.5-1.82,1.03-2.58,2.91-1.9,1.87,.67,4.19,2.37,4.06-1.78-.01-.46,1.1-.89,1.55-1.45,.84-1.07,1.25-3.56,2.98-2.23,1.29,.99-.8,1.98-1.68,2.8-1.49,1.38-.3,2.39,.46,3.49,1.21,1.77,1.77,.17,2.51-.46,1.27-1.08,1.92-2.53,2.63-4,.81-1.7,2.83-1.39,2.94-.13,.25,2.98,1.94,5.76,1.46,9.4-2.97-2.61-2.13-5.86-3.07-8.93-1.45,2.81-2.76,5.43-5.83,6.38-1.01,.31-.63,1.17-.27,1.85,.39,.73,1.02,1.35,1.73,.61,1.23-1.27,2.57-1.27,4.61-.68-3.12,1.57-3.56,5.32-6.91,6.41-1.42,.46-2.44,.6-3.02-.88-.5-1.27,.1-2.12,1.47-2.28,2.03-.24,1.47-1.21,1.06-2.59-.49-1.67-1.96-2.86-2.92-3.33-2.24-1.11-2.94,1.33-4.31,2.7-1.52,1.52-2.58,3.58-4.75,4.49Z"/><path d="M326.33,222.84c-2.45-.48-4.32-4.22-3.31-7.3,1.53-4.68,3.36-9.25,5.04-13.88,.58-1.6,1.08-3.23,1.63-4.88,1.3,.67,2.63,1.36,3.97,2.05-1.48,.13-3.21-.72-3.79,1.52-.29,1.13-1.53,2.42-.04,3.33,1.51,.93,1.79-.77,2.28-1.62,.9-1.55,3.05-1.69,3.75-3.48,.18-.46,.92-.39,1.27,.04,.28,.35,.59,.9,.51,1.27-.29,1.2-.69,2.4-1.68,3.27-.1,.11-.19,.21-.29,.32-.42,.25-1,.41-1.24,.78-2.33,3.69-6.02,6.28-7.92,10.37-1.33,2.87,1.07,5.58-.26,8.28l.09-.06Z"/><path d="M305.42,31.12c-.32,.51-.64,1.01-.94,1.53,.02,.01,.09,.06,.11,.06-1.26-1.41-2.39-2.89-1.75-4.98,.23-.74,.46-1.55-.61-1.74-.74-.14-1.09,.55-1.29,1.11-.37,1.05-.6,2.14-.91,3.21-.21,.72-.42,1.53-1.43,1.33-.46-.09-1.02-.33-1.26-.68-.62-.9,.24-1.1,.79-1.61,2.46-2.29,.16-5.33,1.08-7.99,.43-1.25-.21-2.92,.56-4.3,.32-.57,.62-1.18-.22-1.5-.64-.24-1.35,.02-1.57,.65-.48,1.39-.9,2.86-.53,4.34,.42,1.72,.26,3.33-.56,4.92-.4-3.23-1.37-6.35-.64-9.71,.35-1.61,1.13-2.13,2.38-2.84,1.87-1.07,2.67-.86,2.88,1.35,.07,.7,.52,1.35,.77,1.96,1.06,.19,1.42-.58,1.97-1.03,2.04-1.65,4.4-.93,4.43,1.64,.05,3.95-.44,7.91-.77,11.86-.13,1.5-1.7,1.67-2.57,2.49,2.18-5.21,2.27-12.69,.19-14.82-.2,2.98-.16,2.91-2.35,1.77-1.11-.58-2.32-.44-2.57,1.08-.16,.96-.29,2.6,.18,2.87,3.57,2.05,3.73,5.7,4.61,9.03Z"/><path d="M188.26,128.28c10.8-8.53,20.82-17.29,31.62-25.12,1.33,1.79,1.32,3.07-.67,4.31-9.06,5.64-17.45,12.18-25.43,19.27-1.25,1.11-2.74,3.09-5.52,1.54Z"/><path d="M26.08,22.03c4.32-2.11,8.08-5.1,12.1-7.68,1.21-.78,2.3-1.98,3.99-1.23,0,0-.07-.08-.07-.08-3.26,2.45-6.51,4.9-9.79,7.37,.42,1.01,1.42-.34,2.26,1.14C22.42,26.01,13.11,35.57,.43,39.18c9.3-4.73,17.9-10.47,25.77-17.26l-.13,.12Z"/><path d="M386.29,88.08c-1.01-.44-2.02-.88-3.38-1.48,2.95-1.54,1.59-3.06,.1-4.39,2.02-1.61,5.76-.4,6.2-4.44,.06-.57,2.6-1.13,4.02-1.22,2.53-.17,5.12,.18,7.24-1.7,.16-.14,.76-.07,.91,.11,.38,.45,.16,1.11-.24,1.28-1.01,.44-2.09,.77-3.17,1.01-1.17,.26-2.12,.18-2.63,1.9-.66,2.19-3.21,1.72-5.03,1.99-1.57,.23-3.22-.01-4.53,1.25,3.58,2.62,6.11,2.24,11.53-1.77,.74,2.16-3.14,5.18,1.15,6.5l.06-.1c-1.88,.62-3.33-.55-4.93-1.17-3.28-1.27-6.7-.21-7.29,2.22Z"/><path d="M328.76,317.49c3.39-.46,4.02,2.62,5.46,4.47,2.03,2.63,3.69,5.54,5.54,8.3,3.14,4.7,7.21,7.76,13.46,7.09-.15-1.11-.69-2.83,1.64-3.53,.05,2.43,.71,4.52,2.61,6.45,2.35,2.4,2.13,5.29-.83,7.5l.1,.08c-.52-.9-.1-1.64,.38-2.39,1.17-1.85,.74-2.62-1.34-3.81-3.43-1.97-6.82-3.59-10.72-4.39-2.27-.47-3.59-2.55-4.76-4.46-2.29-3.75-5.72-6.5-8.52-9.79,.16-2.48-2.2-3.59-3.01-5.54Z"/><path d="M278.62,254.77c5.72,5.08,11.12,10.47,15.81,16.52,.88,1.14,1.76,1.71,3.1,.81-.45,2.82,3.38,6.26,6.65,5.97,1.01,3.44,2.9,6.24,6.19,7.83,.85,.41,1.39,.86,.93,1.56-.45,.7-1.32,.36-1.89-.16-.81-.74-1.58-1.53-2.36-2.31-1.68-1.7-2.16-5.64-6.12-3.26-.17,.1-2.06-1.83-1.89-2.14,1.24-2.32-.77-2.8-1.93-3.23-2.67-.99-4.51-2.39-5.59-5.25-1.97-5.22-6.56-8.5-10.19-12.48-1.07-1.18-2.53-2.06-2.72-3.86Z"/><path d="M242.38,17.86c-5.55-5.51-10-5.41-12.6,.34-.53-2.18-1.35-2.44-3.3-1.58-4.67,2.07-9.36,.96-14.12-1.09,14.15,4.17,20.69-4.55,26.37-15.53,.66,4.3-1.42,6.91-3.76,9.24-2.01,2-1.29,2.74,.97,3.3,1.56,.39,3.12,.83,4.63,1.39,1.57,.58,2.32,1.7,1.81,3.93Z"/><path d="M431.52,158c7.22,.28,4.19-6.54,8.34-8.34-5.03,11.51-5.25,23.61-4.75,36.33-3.49-3.37-2.71-7.39-3.27-11.07,.5,.62,1.01,1.24,1.88,2.33-1.56-5.49-.67-10.27,1.17-14.97,.84-2.14-.94-2.78-3.37-4.27Z"/><path d="M418.7,212.26c-.24-1.29,.49-2.84,1.44-2.51,3.35,1.17,6.53-2.31,9.78-.09,.74,.5,1.96-.06,1.78-.52-1.38-3.51,2.02-2.4,3.11-3,1.79-.98,3.42-1.51,2.23-4.26,1.32,.79,2.14,1.5,1.68,3.09-.84,2.94,.29,4.49,3.4,4.47l-.07-.09c0,.12,.03,.27-.03,.37-.66,1.26,.47,4-1.77,3.63-1.26-.21-4.42-1.49-2.69-4.57,.19-.34-.07-.94-.15-1.81-5.27,2.24-9.1,6.25-13.78,8.89,.3-2.56,3.69-2.86,4.04-5.63-1.73,1.83-3.45,1.6-5.36,.58-1.62-.86-2.74,.16-3.63,1.46Z"/><path d="M26.2,21.91C17.63,25.58,9.6,30.58,.29,32.54c6.19-4.44,13.64-6.27,20.33-9.7,6.84-3.51,12.54-8.78,19.65-11.79-4.52,3.96-9.83,6.85-14.19,10.98l.12-.12Z"/><path d="M207.59,82.65c1.65-4.43,5.82-6.06,9.51-7.91,1.23-.62,1.96-1.23,2.5-2.23,2.74-5.11,7.32-8.72,10.73-13.28,.27-.36,.66-.76,1.64-.19-6.17,7.24-12.08,14.63-15.1,23.89l-.96-.5c.53-1.84,1.07-3.67,1.72-5.91-4.25,.99-6.36,4.96-10.12,6.04l.09,.09Z"/><path d="M354.54,313.64c2.19-.89,2.85-2.43,2.41-4.76-.5-2.66-.69-5.37-1.12-8.99,2.27,5.57,2.66,10.52,2.77,15.51,.03,1.36-1.13,2.17-1.86,3.16-2.05,2.77-3.57,5.74-3.92,9.53-.66-3.17-3.87-3.33-6.36-5.42,3.53,.98,5.18-.97,5.75-5.47,.15-1.2-1.04-3.23,1.59-3.3-.56,2.77-1.11,5.53-1.67,8.3,2.03-1.68,3.54-3.52,4.48-5.62,.66-1.48,1.21-3.77-2.05-2.94Z"/><path d="M335.66,203.47c.1-.1,.2-.21,.29-.32,1.33-.33,1.89,.9,2.82,1.33,3.2,1.5,4.66,5.31,8.55,6.01,1.45,.26,1.78,2.48,2.23,4.02-3.03,.19-2.49,2.06-1.85,3.96l-2.44-.37,.08,.1c-.24-5.14-3.9-8.14-7.11-11.42-.98-1-3.16-1.09-2.57-3.31Z"/><path d="M267.08,255.55c4.44,.69,6.53-.54,7.78-4.56,2.22-.09,2.45-3.01,4.58-3.22l.11,.12c-.32,.82-.61,1.65-1.42,2.12-.56,.73-1.12,1.46-1.69,2.2-1.18,2.63-4.44,4.27-3.75,7.8l-1.67,.88c-4.33,1.82-4.48,3.02-.82,6.62-3.62-.81-6.17-2.75-7.24-7.28,2.03,1.79,3.48,3.25,5.35,.53,1.73-2.53,1.09-3.92-1.23-5.21Z"/><path d="M178.64,35.81c-1.11,3.6-7.45,7.18-12.06,6.34-6.76-1.24-13.41-3.11-20.43-1.87,2.62-1.46,5.06-2.65,8.27-1.63,4.62,1.46,9.55,1.26,14.35,1.78,2.53,.27,4.28-1.74,6.38-2.74,1.18-.56,1.97-1.85,3.49-1.88Z"/><path d="M27.35,69.47c8.34-1.81,14.38-7.77,21.47-11.84,2.44-1.4,4.8-3.08,7.82-3.1-8.15,4.06-15.07,10.02-22.73,14.83-2.97,1.87-4.27,2.03-6.48,.03-.02,.01-.09,.08-.09,.08Z"/><path d="M371.31,79.72c3.32,1.65,6.23,3.72,9.9,4.47-.83,1.64-2.02,2.13-3.27,1.11-2.22-1.83-4.73-3.15-7.13-4.66-.64-.4-1.37-.87-1.18-1.71,.29-1.3,1.35-.58,2.13-.67,.97-.12,1.91-.45,2.86-.69,.97-.25,2.2-.51,2.1-1.72-.16-1.82-1.91-.25-2.69-1.05,.1-.92,1.57-.73,1.52-1.28-.29-3.09,1.81-.84,2.68-1.28,.47,2.53,3.3,2.25,5.07,4.53-4.84-1.31-7.65,3.17-12,2.96Z"/><path d="M329.63,54.19c-2.82,.18-4.19-.75-5.89-1.67,4.2-1.4,4.14-4.37,2.88-7.55-.43-1.09-.25-1.61,.54-2.13,1.08-.71,1.34,.07,1.87,.9,2.36,3.69,1.36,7.67,1.14,11.58-.05,.93-.84,1.5-1.75,1.71-.78,.18-1.87,.83-2.23-.37-.46-1.55,1.06-.84,1.68-1.18,.28-.16,.53-.38,1.75-1.28Z"/><path d="M417.3,240.58c1.64,1.24,3.55,.7,5.36,.81,1.04,.06,2.09,.04,1.96,1.52-.12,1.35-1.12,1.45-2.17,1.41-.12,0-.26,.02-.37-.02-3.48-1.46-6.86-2.22-9.8,2.59,.06-2.98,2.32-2.53,2.61-4.49-2.74-.07-7.88,2.45-5.82-4.04,2.69,.93,5.33,2.07,8.23,2.24Z"/><path d="M417.3,240.58c-2.9-.16-5.54-1.31-8.23-2.24-2.57-1.55-4.28-4.42-7.6-4.84,6.72-.79,12.04,1.44,15.83,7.08Z"/><path d="M418.77,212.13c-.39,.44,.15,1.71-.52,1.45-2.25-.87-2.73,.31-2.48,2.01,.25,1.69,1.08,3.18,3.26,2.78,.65-.12,1.19-.22,1.47,.52-.12,1.22,.35,2.22,1.23,3.06-.77,1.66-1.65,2.48-3.18,.64-2.24-2.68-4.37-5.4-4.65-9.26-2,.61-3.35,2.99-5.54,1.36h0c.88,.24,1.32-.49,1.88-.9,2.59-1.91,5.34-2.89,8.53-1.66Z"/><path d="M226.95,231.55c-.32,4.05-3.24,6.82-5.03,10.15-.8,1.49-1.91,.77-2.8,.09-3.66-2.83-6.75-6.16-8.88-10.31-.28-.55-.7-1.23,.07-1.56,.92-.41,1.2,.59,1.68,1.1l-.06-.14c1.39,3.44,4.59,5.42,6.72,8.26,1.12,1.5,2.06,1.08,3.15-.37,1.77-2.35,2.7-5.32,5.22-7.1l-.08-.1Z"/><path d="M.18,371.44c5.34,8.97,12.45,16.95,15.79,27.09-5.96-8.62-11.08-17.73-15.79-27.09Z"/><path d="M210.69,18.16c-5.83,.91-9.32,5.64-13.87,8.44-4.43,2.72-8.97,3.9-13.86,4.74,1.74-2.05,4.45-1.99,6.7-2.79,4.99-1.78,9.15-4.83,13.18-8.02,2.99-2.37,4.59-3.29,7.84-2.37Z"/><path d="M12.06,371.87c-5.55-6.56-9.62-13.93-11.79-22.29,3.05,7.9,8.59,14.45,11.79,22.29Z"/><path d="M451.18,218.49c-1.8,.45,.05-4.43-3.35-1.58,.89-1.5,.92-2.4,2.91-1.76,3.32,1.06,5.64-1.31,6.78-4.77,.55-1.67,2.58-2.21,4.79-1.63-2.6,4.75-6.35,7.88-11.16,9.84l.03-.08Z"/><path d="M142.37,222.02c4.14,1.68,7.84,1.07,11.59,.5,2.52-.38,4.94-.82,6.82-2.58,.94-.87,1.73-.73,2.68-.35,.47,.19,1.02,.45,.84,1.04-.29,.97-1.29,1.07-2.08,1.31-4.97,1.48-9.86,3.45-15.21,2.97-1.74-.16-3.68-.07-4.65-2.89Z"/><path d="M422.59,66.99c3-2.93,6.43-5.55,6.93-10.28,1.09,4.05,.68,7.23-2.99,9.89-1.93,1.4-2.87,4.19-4.43,6.62-1.04-1.93-.58-3.39,.56-4.81,.44-.54,1.25-1.16-.16-1.52l.09,.1Z"/><path d="M303.52,12.67l-.64-7.37-.84-.03-.99,4.98c-.5-2.98-3.24-5.53-1.55-9.22,1.01,1.11,1.51,2.97,3.32,1.56,.45-.35,1.36,.23,1.67,1.09,1.13,3.11,.94,6.08-.96,8.98Z"/><path d="M348.39,227.25c.04,4.17-2.72,1.38-4.71,2.11,1.95-3.39,.91-4.91-2.28-5.18,.02-2.17,.9-4,2.1-5.77,.67-1,1.2-.41,1.84-.2l-.08-.1c-1.58,3.22-.76,5.68,2.29,7.54,.44,.27,.57,1.05,.84,1.6Z"/><path d="M493.47,188.45c-4.08,.24-7.56-.89-10.24-4.04-1.17-1.38-2-3.2-4.44-2.62-.73,.17-1.87-.38-1.86-1.36,0-1.11,1.04-1.62,2.03-1.87,.96-.25,1.8,.22,2.27,.96,2.9,4.59,6.73,7.85,12.25,8.92Z"/><path d="M321.58,296.93c.17-.44,.34-.89,.51-1.33,0,3.52,3.87,4.56,4.92,7.54-3.89-2.52-8.29-.61-9.34,3.94-.14,.62,1.09,1.94-.69,1.74-1.22-.14-.94-1.19-.67-2.04,1.75-3.28,3.5-6.57,5.25-9.85Z"/><path d="M404.42,305.98c-.24,.74-.47,1.47-.71,2.21-2.58-.91-3.66-4.18-2.47-6.37,1.11-2.03,2.48-3.74,4.4-5.63,.41,3.66-2.68,6.46-1.23,9.78Z"/><path d="M129.58,117.26c-2.53,.9-4.7-.48-6.97-.81-2.02-.29,.65-1.08,.47-2.02-2.77-.22-5.59-.44-8.38-.66,1.76-1.71,2.32-1.11,8.29-.98,3.81,.08,3.46,4.46,6.59,4.47Z"/><path d="M353.39,63.35c2.1,4.92,1.93,10.28,3,15.4,.42,2.02,.61,4.1,.94,6.43-1.29-.8-1.01-1.91-1.2-2.73-1.06-4.6-1.04-4.64-5.43-2.74-.78,.34-1.47,.93-2.71,.57,1.35-1.77,3.52-1.55,5.08-2.49,1.52-.91,2.12-1.66,1.66-3.53-.89-3.59-1.38-7.27-1.28-11l-.08,.09Z"/><path d="M353.47,63.26c-2.66-7.15-6.4-13.98-6.36-21.91,2.42,7.24,5.37,14.32,6.28,21.99,0,0,.08-.08,.08-.08Z"/><path d="M491,211.77c-2.35,1.39-3.66-1.29-5.74-1.45-4.89-.37-9.3,1.59-14.18,2.23,0-2.49,3.19-2.5,3.56-4.58l-.06,.04c1.43,1.69,3.12,2.1,5.29,1.48,4.06-1.17,7.81-.5,11.05,2.36l.08-.07Z"/><path d="M356.18,112.17c2.22,1.33,2,3.94,3.32,5.71,1.36,1.84,.55,4.95,3.6,6.03,.41,.14,.06,2.43,.06,4.18-5.23-4.45-5.22-10.5-6.97-15.92Z"/><path d="M397.73,358.03c3.75-3.63,.69-9.18,5.73-12.06-3.98,5.87,3.83,3.61,3.83,6.86-1.26,.56-1.81-1.05-2.91-1-1.11,.04-2.32-1.89-3.23-.2-.75,1.39-.84,3.03,.59,4.45,.81,.81,2.45,.86,2.51,3.2-1.75-2.33-3.78-1.59-6.51-1.25Z"/><path d="M502.44,170.57c-4.52-.81-7.48-3.61-10.15-6.65-1.08-1.23-1.57-1.22-2.54-.15-1.46,1.61-3.36,1.95-5.73,1.64,2.46-.94,5.06-1.03,6.26-3.68,.51-1.12,1.8-.44,2.18,.17,2.33,3.75,6.04,5.67,9.67,7.74,.15,.09,.16,.45,.31,.92Z"/><path d="M276.44,252.21c.57-.74,1.13-1.47,1.69-2.2,1.38-.05,1.32,.94,1,1.71-.43,1.04-.81,2.02-.41,3.14-3.63,3.75-4.95,7.54-3.28,10.33-1.51-.61-2.91-2.13-4.08-.09,1.67-1.55-.4-2.79-.34-4.21l1.67-.88c2.31-2.09,4.64-4.17,3.75-7.8Z"/><path d="M298.45,39.2c-.95,3.21-.88,6.49-.84,9.75,0,.6-1.21,2.08,1.01,1.91,1.06-.08,2.72-.03,3.04,1.62,.11,.59-.44,1.25-1.15,1.17-1.58-.18-3.31-.26-4.32-1.71-1.11-1.59,.43-11.09,2.25-12.74Z"/><path d="M328.76,317.49c.81,1.95,3.18,3.06,3.01,5.54-4.66-2.78-7.77-7.17-11.58-10.84,1.69-.12,2.29,1.22,3.31,1.95,1.28,.91,2.16,3.09,4.58,1.46,.77-.52,.66,1.14,.68,1.9Z"/><path d="M337.84,228.19c.34,3.11,2.14,5.78,4.51,7.13,2.3,1.31,2.35,3.12,3.01,4.96-4.28-1.85-6.47-5.91-9.35-9.17-1.35-1.52,1.94-1.44,1.84-2.92Z"/><path d="M442.13,209.43c-1.29-3.22,.45-5.45,2.18-7.72,.35,1.46-1.36,3.39,1.43,3.71,2.02,.23,2.81-.95,2.89-2.94,.06-1.57,.54-3.13,.89-5.04,2.12,6.04,.26,8.82-5.44,8.66-2.55-.07-.56,2.65-2.02,3.23,0,0,.08,.1,.08,.1Z"/><path d="M502.55,212.21c5.97,3.06,6.01,8.31,4.9,14.02-.24-1.85-.79-3.54-1.95-5-1.1-1.37-2.04-2.87-3.1-4.38,1.81-.42,2.33,.53,2.51,1.95,.09,.68,.57,1.29,1.22,1.05,1-.37,.58-1.19,.18-1.82-1.24-1.96-3.11-3.52-3.68-5.9l-.08,.08Z"/><path d="M.12,79.65c4.4-3.67,9.04-7.1,8.03-14.25,3.75,4.41-.81,12.21-8.03,14.25Z"/><path d="M78.02,29.99c-4.67,5.46-10.92,9.14-15.89,14.28,3.98-6.2,10-10.17,15.89-14.28Z"/><path d="M216.51,122.31c2.93-5.41,8.62-7.75,12.9-11.66-3.33,4.97-8.06,8.38-12.97,11.59l.07,.07Z"/><path d="M319.33,67.15c-.39-2.37-.18-4.38,1.98-5.78,1.73-1.12,2.19-2.54,.63-4.07-.57-.56-1.67-.62-1.57-1.74,.05-.58,.55-.92,1.05-.75,.9,.32,2.02,.6,2.54,1.28,1.29,1.68,.21,5.49-1.84,6.16-2.57,.84-.56,3.85-2.8,4.9Z"/><path d="M361.46,377.71l-.04-.03c.46,.96-.07,2.24-.8,1.67-4.29-3.35-8.7-2.74-13.3-1.01-1.02,.38-2.17,.84-2.73-.72l-.06,.08c.61-.08,1.39,.07,1.81-.26,5.13-3.95,10.11-1.66,15.11,.27Z"/><path d="M358.59,383.72c5.11,.39,6.76,8.33,12.93,4.88,.03,1.8-.79,2.8-2.38,2.78-1.98-.01-4.95-.45-5.3-1.79-.77-2.9-3.21-3.78-5.25-5.87Z"/><path d="M176.78,186c.41-.46,.95-.85,1.21-1.38,1.8-3.79,4.83-6.17,8.64-7.68l-.11-.06c-1.38,3.07-4.05,5.14-6.03,7.73-1.14,1.49-2.24,1.64-3.76,1.28l.05,.11Z"/><path d="M423.2,32.82c-1.21,1.11-.73,2.87-1.57,4.12-1.62-2.06-3.24-4.12-4.87-6.17,1.06-1.13,2.85-.54,3.46-2.02,.6,.11,1.61,.07,1.73,.37,.87,2.22-2.64,1.31-2.44,3.21l3.68,.5Z"/><path d="M453.2,177.49c.49-2.63,5.04-2.52,3.55-6.23,1.85,.67,2.2,2.01,2.69,3.22,.46,1.13,1.07,2.51-.02,3.42-1.16,.97-1.89-.26-2.67-1.06-1.34-1.37-2.2,.82-3.55,.65Z"/><path d="M323.18,293.04c.98-1.45,1.18-2.96,.34-4.55,1.05-.23,2.08-.61,3.14-.66,1.22-.06,2.19,1.12,1.37,1.83-3.15,2.71-.21,4.2,.9,6.09h0c-1.64-1.51-4-1.46-5.76-2.71Z"/><path d="M222.29,47.22c-4.69,4.1-10.31,6.35-16.19,8.06,5.45-2.62,10.14-6.77,16.28-7.97l-.09-.09Z"/><path d="M474.63,207.97c-2.46,.77-4.18,.74-2.86-2.62,.33-.84,.27-2.44-.1-2.38-2.01,.31-1.18-1.75-2.23-2.24-1.22-.09-.44,1.87-1.7,1.87-.79-1.41,.17-2.31,1-3.18,1.03-1.1,2.42-.77,2.79,.3,.65,1.86,2.36,4.05,1.36,5.7-1.64,2.72,.99,1.87,1.66,2.62,.02-.02,.08-.05,.08-.05Z"/><path d="M218.99,60.02c-3.01,.48-5.39,1.72-7.83,3.3,1.15-2.63,.43-4.92-.18-7.58,1.55,3.66,4.75,3.76,8.01,4.28Z"/><path d="M117.72,384.05c-2.52-4.62-6.44-8.49-7.85-13.71l.82-.44,7.89,13.52-.86,.64Z"/><path d="M466.13,231.72c9.42-2.81,1.9-8.03,1.98-12.41,3.29,3.02,4.85,7.31,3.81,9.79-.89,2.12-2.33,2.85-5.8,2.62Z"/><path d="M451.15,218.57c2.1,4.45,5.76,5.22,10.31,2.16-.76,2.38-2.66,4.46-3.85,4.09-2.28-.71-4.02-2.48-6.39-3.19-.95-.28,0-2.03-.05-3.13,0-.01-.02,.07-.02,.07Z"/><path d="M275.03,49.82c2.73-4.25,5.53-8.47,7.43-13.19-.59,5.47-2.43,10.22-7.52,13.09l.09,.1Z"/><path d="M222.37,47.31c5.21-4.05,11.6-5.36,17.65-7.47-5.98,2.3-11.19,6.42-17.73,7.38,0,0,.08,.09,.08,.09Z"/><path d="M332.54,23.18c-.62-1.54-2.28-2.29-1.98-4.68,.24-1.93-3.26-1.79-5.13-3.51,1.41-.16,1.85-1.86,3.41-.62,3.5,2.77,4.78,5.73,3.63,8.82,.02,0,.06,0,.06,0Z"/><path d="M350.89,300.17c.43,.82,.23,1.22-.27,1.47-.38,.19-6.06-3.87-5.87-3.98,.95-.52,.34-1.79,1-2.19,1-.62,1.58,.39,2.07,1.04,1.02,1.35,3.94,1.17,3.06,3.66Z"/><path d="M204.57,109.61c2.07-4.21,6.18-6.25,9.74-8.88-2.74,3.51-5.55,6.95-9.84,8.78l.1,.1Z"/><path d="M398.43,370.32l.51-.92c2.56-.88,4.21,.09,4.26,2.7,.03,1.39,2.12,2.54,.43,4.04-.65-.47-1.31-.93-1.96-1.4,.75-2.87,.75-2.82-1.95-2.86-.85-.01-1.24-.72-1.3-1.56Z"/><path d="M421.73,221.94c-.89-.83-1.35-1.84-1.23-3.06-.28-2.37,.59-3.56,3.14-3-2.24,2.67,.72,4.94,.57,7.6-.86-.54-1.67-1.04-2.47-1.54Z"/><path d="M431.97,218.51c.71-1.13,2.48,1.34,2.82-1.15,.07-.53,2.05,.63,2.14,1.36,.1,.75,.34,1.39,.59,2.04,.38,.99,1.32,2.28,.06,2.83-.7,.3-1.02-1.44-1.49-2.16-.86-1.3-2.68-1.97-4.12-2.92Z"/><path d="M451.54,194.38c-2.93-4.61-.27-8.95,.51-13.38,.31,4.48-1.67,8.85-.51,13.38Z"/><path d="M298.83,270.19c.56-2.43-.66-4.21-2.16-5.88-.88-.98-2.03-1.74-2.34-3.14,4.45,1.07,5.29,5.21,7.53,8.48-1.24,.22-2.14,.38-3.04,.54Z"/><path d="M17.23,401.73c3.31,3.6,5.71,7.68,7.48,12.1-.29,.15-.58,.31-.87,.46-2.2-4.19-4.41-8.37-6.61-12.56Z"/><path d="M398.92,386.77c-.08,1.04-.89,1.65-1.46,1.31-1.82-1.08-3.93-1.96-4.88-4.03-.3-.65,.69-1.31,1.08-.99,1.67,1.39,4.36,1.38,5.26,3.71Z"/><path d="M99.56,71.13c2.53-2.58,4.61-.38,6.76,.21,.73,.2,.25,1.08-.12,1.53-.83,1-2.08,1.23-2.9,.36-1.03-1.11-1.97-2.1-3.75-2.09Z"/><path d="M449.52,238.11c1.23-3.9,4.2-5.23,7.1-8.06-1.41,4.31-3.43,6.62-7.1,8.06Z"/><path d="M428.62,375.16c.33,.07,.81,.03,.98,.24,2.26,2.69,4.49,5.41,6.72,8.13-.27,.23-.53,.46-.8,.69-2.51-2.81-5.02-5.62-7.53-8.42l.63-.63Z"/><path d="M373.37,393.13c2.56,3.79,1.94,7.81,.87,11.86-1.15-3.87,.57-7.96-.87-11.86Z"/><path d="M60.37,335.08c5.32-.7,8.87,2.74,12.69,5.56-4.3-1.68-8.18-4.37-12.69-5.56Z"/><path d="M348.65,16.34c-.68-2.22,.58-3.46,1.8-4.35,2.56-1.86,2.9-3.77-.03-6.62,5.2,3.22,5.3,3.45,1.44,6.4-1.55,1.18-1.88,3.05-3.21,4.56Z"/><path d="M448.07,184.36c-.14-4.95-.26-9.9,.85-14.78,.07,4.94,.88,9.92-.85,14.78Z"/><path d="M490.91,211.85c.6,1.08,1.61,2.86,2.36,2.54,2.12-.91,3.24-3,3.59-6.15,1.27,5.03,.4,7.19-3.06,7.5-2.29,.21-3.13-1.71-2.82-3.94,.01-.01-.07,.06-.07,.06Z"/><path d="M391.78,304.97c-.13,.24-.27,.48-.4,.72-1.02-1.44-2.04-2.87-3.2-4.52,2.78-.63,4.3,2.42,6.92,1.56-.54,2.2-2.13,1.87-3.32,2.24Z"/><path d="M435.39,376.08c2.33,2.09,2.98,6.21,6.09,2.26,.46-.58,.94,.43,.99,.97,.12,1.16-.74,1.71-1.56,2.33-.89,.67-1.52,.41-2.32-.14-1.64-1.12-2.34-2.72-3.21-5.42Z"/><path d="M465.99,211.96c-1.6-1.78,.39-3.71-.06-5.54-.06-.24,1.06-1.26,1.53,.06,.72,2.01,2.01,4,.28,6.55-.19-1.25-.34-2.23-.49-3.24-1.09,.34-.15,1.72-1.26,2.17Z"/><path d="M407.95,3.65c-3.91,.41-7.82,.81-12.22,1.27,4.14-3.13,8.2-1.94,12.22-1.27Z"/><path d="M444.56,392.8c2.35,.98,4.77,.11,7.08,.67,.88,.21,1.63,.91,1.11,1.93-.5,.98-1.37,1.08-2.04,.14-1.53-2.16-4.4-.85-6.15-2.75Z"/><path d="M326.89,11.19c-3.39,1.05-5-2.2-4.85-3.64,.32-3.2,3.93,.49,5.36-1.78-.62,1.95-3.34,.53-3.49,2.1-.15,1.57,1.56,2.51,2.98,3.32Z"/><path d="M469.72,181.33c1.24-2.19,2-5.11,4.97-3.93,1.36,.54,1.48,2.65-.16,4.38-.97-6.52-3.04-1.28-4.81-.44Z"/><path d="M289.15,169.45c.88,.05,1.54-.1,2.1-.99,.52-.84,1.73-.35,1.53,.32-.88,2.98,2.38,3.33,3.06,5.24l.08-.11c-2.71-.8-5.19-1.93-6.78-4.44l.02-.02Z"/><path d="M418.44,390.41c2.21,.44,3.97,.73,5.11,2.38,.56,.82,1.36,1.83,.53,2.58-.85,.76-1.93-.17-2.53-.82-1.09-1.17-1.94-2.56-3.1-4.14Z"/><path d="M181.38,6.09c3.19-2.06,6.63-2.42,10.21-1.83-3.22,1.69-6.91,.65-10.21,1.83Z"/><path d="M409.43,121.9c1.49,3.93-2.94,4.2-3.97,6.57,.6-2.63,.18-5.93,4.04-6.47-.01-.01-.07-.1-.07-.1Z"/><path d="M370.07,23.6c1.35,1.74,2.13,3.38,1.04,5.76-.72,1.57-.42,3.6-.65,6.25-1.47-4.53-.15-8.3-.38-12.01h-.01Z"/><path d="M326.24,222.9c1.2-.26,2.39-.53,3.85-.85,.33,.14,.24,.86,.04,1.09-.83,.98,2.44,2.51-.36,3.02-1.73,.31-2.81-.55-2.74-2.52,.01-.27-.44-.55-.69-.82-.01,0-.1,.07-.1,.07Z"/><path d="M396.81,346.71c1.8,2.55,2.55,5.16,.25,8.38-.27-2.53,.25-4.79-1.43-6.66-.8-.9,.55-1.31,1.27-1.71,.02,0-.09,0-.09,0Z"/><path d="M400.85,16.52c5.22-1.97,6.13-.42,5.47,6.89-.54-2.88,.72-6.89-5.47-6.89Z"/><path d="M9.35,310.98c4.24,1.13,8.39,2.46,11.86,5.31-4.38-.82-8.29-2.67-11.86-5.31Z"/><path d="M335.07,17.23c2.04-1.44,3.04-2.57,4.23-2.84,.79-.18-.1,2.27,1.7,2.21,1.09-.04,2.83-1.09,2.66,1.72-2.42-1.39-5.02-1.34-8.59-1.09Z"/><path d="M220.6,165.64c3.39,.79,6.06,2.57,7.73,5.75-2.54-1.97-5.31-3.61-7.73-5.75Z"/><path d="M377.46,14.47c5.5,1.98,1.03,3.95,0,5.92l.12,.07c-1.08-1.38,.27-2.28,.65-3.37-4.22,.07,.18-1.95-.66-2.7l-.11,.09Z"/><path d="M338.74,219.99c-1.34-1.83-3.46-1.98-3.99-3.84-.06-.22,1.31-.85,2.02-1.29,.14,1.72,2.63,2.3,1.97,5.13Z"/><path d="M116.21,85.53c-2.52,3.2-4.69,6.75-8.75,8.33,2.55-3.16,4.87-6.56,8.75-8.33Z"/><path d="M502.63,212.13c-3.4-.18-3.18-3.57-4.69-5.42,3.08,.5,3.49,3.3,4.62,5.49l.08-.08Z"/><path d="M317.23,20.48c-3.19-2.15-4.73-6.7-3.07-9.7,.69,3.48,1.39,6.76,3.06,9.72,0,0,0-.02,0-.02Z"/><path d="M56,45.74c-2.12,2.88-4.8,5.05-8.5,5.97l7.85-6.62,.64,.65Z"/><path d="M16.92,321.83c-2.02-2.28-4.03-4.56-6.05-6.83,3.38,1.03,4.18,4.36,6.8,6.05l-.75,.78Z"/><path d="M328.93,295.75c2.7-.15,5.39-.3,8.4-.46-2.99,3.93-5.69,1.4-8.38,.46,0,0-.02,0-.02,0Z"/><path d="M362.89,2.96c3.72-1.15,7.44-.65,11.17,0h-11.17Z"/><path d="M406.74,368.54c-1.62-1.22-2.87-2.75-3.16-4.93-.09-.67,.23-1.29,.88-1.42,.76-.16,.97,.4,1.01,1.11,.11,1.8,2.26,2.9,1.27,5.24Z"/><path d="M446.3,192.01c-1.57,2.03-2.5,3.38-3.58,4.6-.6,.67-1.4,.87-2.32,.26-1.56-1.03-.28-1.51,.33-2.15,.31,.31,.77,.95,.92,.88,1.59-.68,1.89-2.82,4.65-3.6Z"/><path d="M108.81,70.07c.22-3.24,3.19-3.61,5.11-5.11-.79,2.59-3.35,3.47-5.11,5.11Z"/><path d="M473.28,166.65c2.03-.31,4.06-.66,6.1-.9,.28-.03,1.64-.38,.87,.5-.44,.51,.76,2.05-1.09,1.64-1.87-.41-3.84-.42-5.76-.61l-.12-.63Z"/><path d="M29.68,293.82c-2.07-2.38-3.9-3.17-5.3,.62-.24,.64-1.1,.97-1.92,.9,.73-1.84,1.77-3.56,.95-5.74-.24-.63-.05-1.65,.76-2.55,2.96-3.32,2.76-5.63-.29-8.42q3.8,.36,1.93,9.83c2.28-1.08,4.25-2.82,7.17-2.06-1.13,.56-2.01,1.17-2.99,1.45-1.9,.55-3.38,1.06-.87,2.87,1.19,.86-.02,2.14,.57,3.09Z"/><path d="M31.42,302.85c3.07-1.78,5.93-3.41,6.84-7.53,.63-2.86,4.88-3.54,7.05-1.78-5.1,.4-6.67,1.23-6.58,6.77,.03,2.12,1.54,2.57,2.51,3.63,.87,.95,2.53,1.09,2.91,2.64l.08-.08c-1.17-.6-2.31-1.26-3.51-1.79-1.81-.8-3.32-.64-4.02,1.55-.71-.8-1.73-1.52-.2-2.58,.46-.32,1.52-.78,.72-1.68-.63-.71-1.34-.29-2.02,.1-1.13,.64-2.06,2.65-3.66,.63l-.12,.14Z"/><path d="M32.53,265.66c2.09-6.08,6.12-7.99,12.95-5.88-5.07,.79-8.59,3.71-12.95,5.88Z"/><path d="M49.44,281.78c.17,4.67-2.53,7.13-5.86,8.93-1.76,.95-3.11-.95-4.86-1.61,5.08-.25,8.58-2.73,10.71-7.32Z"/><path d="M44.15,306.57c2.29,.24,3.12-.96,3.09-3.08-.04-2.51,0-5.03,0-8.33,2.15,3.26,1.89,10.39,.14,12.13-1.51,1.5-2.36,.52-3.14-.8l-.08,.08Z"/><path d="M49,262.82c2.92-.37,5.09,1.9,4.99,3.44-.28,4.33,2.32,3.2,5.29,2.85-2.39,1.54-4.09,2.64-6.21,4.01,.08-4.21,.47-8.28-4.08-10.3Z"/><path d="M52.23,295.17c-.55-4.65,1.34-7.99,4.38-10.84-1.23,3.67-2.34,7.39-4.38,10.84Z"/><path d="M35.51,288.56c-1.47,1.91,2.04,3.83,.15,4.83-.7,.37-3.97,.06-4.24-1.39-.47-2.46,3.01-1.6,4.1-3.45Z"/><path d="M64.26,263.42c.19-2.88,.07-5.68-.76-8.44,3.89,2.5,1.72,5.56,.76,8.44Z"/><path d="M371.12,239.08c4.6,.28,8.26-1.4,10.85-5.26,1.17,.04,1.28,.98,.71,1.46-1.98,1.65-3.93,3.74-6.26,4.45-2.15,.65-4.55,1.58-6.73,1.49-3.54-.14-3.7-3.65-5.28-6.59,2.51,.51,2.07,2.25,2.72,3.22,.98,1.47,1.8,3.62,3.99,1.23Z"/><path d="M356.49,229.41c.38-1.94-.05-4.11,1.58-5.7,1.2,7.04-2.91,14.18,.65,21.19-2.7-4.93-2.61-10.19-2.23-15.48Z"/><path d="M363.28,226.36c-2.78,4.07-4.57,8.41-3.39,13.57-2.84-4.45-.99-11.01,3.46-13.5l-.07-.07Z"/><path d="M142.46,85.08c-1.32,1.83-2.58,3.74-5.56,4.04,1.15-2.8,3.37-3.39,5.56-4.04Z"/><path d="M230.28,124.6c.44,2.17-1.19,3.1-2.47,4.14-4.9,3.98-9.84,7.9-14.77,11.84-.39,.31-.77,.64-1.2,.88-.76,.42-1.72,.95-2.37,.12-.72-.92,.19-1.56,.86-2.08,1.66-1.28,3.27-2.66,5.05-3.76,4.33-2.7,7.91-6.29,11.71-9.61,.92-.8,1.69-1.82,3.18-1.52Z"/><path d="M213.57,150.81c.02-2.28,1.82-3.4,3.21-4.7,3.04-2.85,6.2-5.57,9.3-8.36,.76-.69,1.6-1.5,2.54-.65,1,.9,.24,2.01-.49,2.55-4.92,3.64-8.98,8.43-14.65,11.07l.09,.09Z"/><path d="M152.26,198.47c3.99-1.92,8.2-1.21,12.36-1.16-4.01,1.39-8.13,1.75-12.36,1.16Z"/><path d="M152.53,194.88c3.43-2.17,6.16-1.38,8.82-1.22-2.51,1.3-5.14,1.42-8.82,1.22Z"/></g></g></svg>