<?xml version="1.0" encoding="UTF-8"?><svg id="Layer_1" xmlns="http://www.w3.org/2000/svg" viewBox="0 0 612 792"><g><path d="M511.68,677.1c.71,2.22,1.02,4.41,1.12,6.65,.15,3.46-1.53,6.53-4.57,8.04-.58,.29-1.12,.23-1.69,.02-4.73-1.79-8.71-4.56-11.38-8.96-.5-.82-1.24-1.36-1.95-1.93-2.89-2.33-5.01-5.38-7.58-8.01-4.1-4.19-4.14-4.17-9.68-2.63-2.99,.83-5.73,2.28-8.68,3.22-3.51,1.12-7.04,2.05-10.67,2.61-.69,.11-1.32-.18-1.96-.38-1.44-.44-2.92-.85-4.42-.73-1.27,.11-1.95-.47-2.26-1.51-.79-2.65-.9-5.08,.94-7.6,1.53-2.08,3.64-3.4,5.32-5.24,2.26-2.48,4.71-4.76,7.2-7.01,.82-.75,1.77-1.24,2.7-1.81,1.47-.89,1.87-1.77,1.35-3.36-.38-1.16-.44-2.31-.39-3.47,.16-3.57-.81-6.97-1.49-10.41-.2-.99-.74-1.17-1.64-.88-3.6,1.16-7.09,2.42-9.98,5.05-6.09,5.53-13.17,9.72-19.78,14.55-3.25,2.38-6.59,4.57-10.2,6.28-1.78,.85-3.48,1.93-5.4,2.5-.56,.17-1.14,.35-1.62,.66-3.03,1.97-6.48,3.1-9.76,4.49-3.04,1.3-5.86,3.24-9.24,3.75-2.73,.41-5.5,.61-8.11,1.63-.59,.23-1.34,.23-1.99,.13-4.2-.64-8.26-1.71-11.09-5.16-1.53-1.86-2.96-3.9-3.81-6.15-1.63-4.35-3.7-8.57-4.55-13.2-.27-1.47-.87-2.88-1.28-4.32-.26-.92-.85-1.34-1.78-1.53-1.78-.36-3.52-.17-5.2,.39-1.14,.38-2.22,.73-3.42,.31-.23-.08-.52-.19-.73-.13-2.96,.85-6.06,.48-9.08,.96-2.7,.42-5.36,1.16-8.11,1.38-2.4,.18-4.58,1.62-7.05,1.58-3.2-.05-6.17,1.62-9.41,1.22-.24-.03-.54,0-.73,.13-1.79,1.13-3.89,.88-5.81,1.38-3.02,.77-6.12,.23-9.17,.84-3.51,.7-7.1,1.02-10.65,1.49-2.24,.3-4.55,.93-6.84,1.35-2.34,.43-4.7,.89-7.04,1.28-2.68,.45-5.46-.39-8.06,.86-1.45,.69-3.07-.22-4.7,.04-3.04,.48-6.15,.52-9.24,.62-1.85,.06-3.66,.34-5.48,.6-3.57,.51-7.14,.61-10.72,.14-.58-.07-1.18-.2-1.74-.12-3.45,.53-6.95,.27-10.39,.21-2.62-.04-5.33-.25-7.99-.57-2.17-.26-4.33-.51-6.5-.02-.59,.13-1.16,.02-1.74-.13-.49-.13-1.01-.38-1.47-.29-4.59,.86-8.93-.59-13.36-1.27-2.54-.39-4.62-1.59-6.32-3.3-2.4-2.42-5.18-4.65-6.44-7.93-.98-2.53-2.41-4.89-2.65-7.73-.14-1.71-.52-3.43-.94-5.14-.45-1.84-.55-3.78-.81-5.67-.34-2.56-.54-5.16-.84-7.72-.62-5.16-.33-10.32-.4-15.47-.05-3.98-.32-7.97-.06-11.98,.21-3.39,.33-6.83,.2-10.25-.08-1.95,.5-3.85,.96-5.65,.75-2.95,1.39-6,3.27-8.61,1.6-2.23,3.5-4.02,5.78-5.48,1.4-.9,3.05-1.22,4.56-1.16,1.87,.08,3.4,1.35,4.49,2.87,1.51,2.1,2.79,4.37,4.34,6.44,1.77,2.36,2.26,5.19,3.18,7.85,1.35,3.86,2.61,7.75,3.41,11.77,.39,1.97,1.23,3.82,1.79,5.75,.58,2,1.17,3.99,1.63,6.03,.5,2.24,2.11,3.97,3.17,5.96,.45,.84,1.63,.74,2.46,1.09,1.64,.68,3.22,1.55,4.94,.2,.16-.13,.49-.11,.73-.06,3.64,.8,7.35,.28,11.03,.48,1.79,.1,3.6-.77,5.45-.77,7.14,0,14.14-1.47,21.23-1.94,.91-.06,1.85-.24,2.69-.56,1.37-.52,2.74-.72,4.18-.62,1.69,.11,3.32-.21,4.97-.54,2.29-.45,4.64-.6,6.95-.97,3.44-.55,6.95-.27,10.4-1.26,2.53-.72,5.33-.08,7.99-.63,4.27-.88,8.63-.54,12.94-.89,3.17-.25,6.34-.47,9.51-.65,8.01-.44,15.95-1.32,23.81-2.96,3.58-.75,7.2-1.3,10.86-1.6,2.48-.2,3.17-.97,3.27-3.51,.1-2.67,.09-5.35,.09-8.02,0-.6-.04-1.22,.31-1.69,1.17-1.57,1.59-3.48,2.54-5.16,2.48-4.38,6.65-6.15,11.15-7.45,.38-.11,.83,0,1.24,.02,1.84,.1,2.17-.1,2.78-1.75,.09-.24,.21-.49,.2-.72-.17-3.25,1.31-6.16,1.99-9.23,.57-2.57,1.25-5.15,2.13-7.67,.92-2.66,1.57-5.44,2.29-8.17,.91-3.45,1.07-7.1,2.59-10.39,.11-.23,.27-.47,.26-.7-.09-4.92,2.01-9.55,1.48-14.63-.34-3.21-.28-6.65,.38-9.95,.31-1.55-.03-3.18-.15-4.71-.3-3.85,.05-7.67-.12-11.51-.1-2.34-.2-4.68-.35-7.02-.19-2.91,.14-5.85-.07-8.76-.42-6,1.23-11.98,.04-17.97-.2-1.03,.19-1.99,.42-2.96,.28-1.14,.57-2.27,.42-3.47-.4-3.01,0-6,.27-9,.25-2.76-.43-5.49-.35-8.27,.04-1.29-1.15-2.07-2.38-2.22-3.56-.45-6.57-2.47-9.97-3.37-.32-.08-.69-.18-.91-.39-2.35-2.27-4.86-4.52-4.31-8.26,.21-1.45-.35-1.88-1.63-2.19-1.7-.4-3.4-.92-4.98-1.65-1.63-.75-3.35-1.03-5.06-1.36-6.16-1.19-12.31-2.48-18.29-4.37-7-2.21-14.05-4.46-20.64-7.67-4.1-2-8.49-3.49-12.28-6.1-3.1-2.13-6.48-3.95-9.34-6.3-3.95-3.24-7.98-6.5-10.66-11.15-1.49-2.58-2.86-5.02-3.2-8.01-.14-1.23-.63-2.43-1.01-3.63-.39-1.2-.4-2.38-.37-3.66,.04-1.8,.1-3.64,.01-5.44-.13-2.65,.43-5.15,1.15-7.63,.92-3.12,1.94-6.19,3.52-9.06,2.26-4.11,4.85-7.99,8.26-11.24,2.24-2.13,4.62-4.14,7.32-5.68,2.53-1.45,5.1-2.84,7.7-4.16,1.71-.87,3.57-1.4,5.25-2.38,1.58-.92,3.5-.99,5.24-1.62,3.92-1.42,7.98-2.49,12.02-3.54,1.62-.42,3.2-.98,4.83-1.36,4.37-1,8.78-1.8,13.26-2.15,1.99-.15,3.82-1.08,5.9-1.06,3.8,.05,7.58-.62,11.42-.1,1.95,.27,3.97-.51,5.98-.26,4.56,.56,9.16,.37,13.73,1.16,3.18,.55,6.52,.41,9.73,.99,4.79,.86,9.65,.97,14.46,1.63,5.34,.74,10.74,1.03,16.1,1.74,4.55,.6,9.04,1.49,13.52,2.48,2.69,.59,5.29,1.39,7.87,2.43,2.27,.92,4.84,1.21,7.26,1.86,4.27,1.15,8.45,2.45,12.61,4.02,4.43,1.67,8.61,4.03,13.26,5.14,3.63,.87,6.79,2.8,9.94,4.72,3.78,2.29,7.62,4.47,11.11,7.22,4.63,3.65,8.97,7.53,11.71,12.87,.95,1.86,2.2,3.56,2.83,5.58,1.64,5.23,3.84,10.25,4.82,15.72,.47,2.65,1.04,5.19,.75,7.88-.38,3.49-1.1,6.89-2.27,10.22-1.46,4.15-3.42,8-6.37,11.25-4.17,4.59-8.61,8.96-14.71,10.92-3,.97-5.99,2.19-9.25,2.13-.41,0-.85,.02-1.24,.14-4.5,1.43-9.23,1.61-13.82,2.53-1.31,.26-2.67,.22-4,.37-1.63,.19-1.9,.61-1.47,2.13,.09,.32,.23,.63,.35,.94,1.92,4.75-.51,8.87-5.71,9.69-.33,.05-.67,.08-.96,.22-.67,.31-1.32,.68-1.91,.99-.25,.59,.05,.92,.36,1.18,4.28,3.65,8.08,7.73,11.01,12.54,1.6,2.63,3.11,5.32,4.29,8.18,2.28,5.57,4.27,11.25,6.67,16.77,2.2,5.07,4.15,10.31,5.1,15.72,1.06,6.02,2.59,11.92,3.87,17.89,.84,3.92,1.35,7.89,2.19,11.8,.63,2.96,.49,6,.71,9,.41,5.75,1.38,11.42,1.99,17.13,.2,1.88-.48,3.8,.15,5.7,.83,2.51,.37,5.14,.63,7.7,.48,4.71,.21,9.45,.8,14.18,.4,3.25,.95,6.61,.15,9.93-.11,.47-.12,1.03,.02,1.5,1.01,3.29-.26,6.76,.81,10.04-.84,3.77,.2,7.51,.15,11.26,0,.59-.08,1.22,.1,1.75,1.45,4.2,.73,8.61,1.34,12.88,.58,4.03,1.99,7.75,4.28,11.12,.8,1.18,1.62,2.33,2.19,3.65,.48,1.12,.74,2.23,.3,3.41-.31,.84-.23,1.6,.21,2.4,1.56,2.8,3.58,5.33,5.8,7.54,1.83,1.83,4.48,2.81,6.99,3.79,4.27,1.66,8.64,3.07,12.58,5.58,1.74,1.11,3.51,2.2,5.25,3.34,1.67,1.1,2.8,2.62,4.04,4.08,.52,.6,.91,1.41,.45,2.08-1.33,1.97-2.39,4.32-5.24,4.57-2.5,.22-5.01,.39-7.51,.65-1.17,.12-2.09-.52-3.11-.85-.48-.15-1.04-.33-1.4,.13-.38,.48-.03,.97,.31,1.33,1.38,1.49,2.39,3.22,3.37,4.97,.5,.89,.78,1.85,1.02,2.82,.22,.88,0,1.66-.51,2.37-.29,.4-.79,.72-.94,1.16-.77,2.38-2.51,2.48-4.62,2.31-2.61-.22-5.15-.73-7.59-1.55-2.8-.94-5.66-1.9-7.81-4.13-.34-.35-.82-.56-1.24-.82-.05-.03-.16,.03-.68,.15Zm-46.67-263.6c1.17,0,2.34,.03,3.51,0,3.66-.12,7.37,.22,10.91-1.04,2.37-.84,4.76-1.58,7.23-2.07,.56-.11,1.09-.42,1.6-.69,3.56-1.91,6.64-4.49,9.53-7.27,1.31-1.26,2.57-2.74,3.3-4.37,1.84-4.1,3.83-8.15,5.23-12.45,.41-1.27,.7-2.59,1-3.85,.62-2.67,1.88-5.16,2.17-7.92,.2-1.91,.34-3.83,.79-5.72,.13-.55,.05-1.17-.05-1.74-.18-1-.13-1.97-.06-2.98,.14-2.09,.17-4.3-.92-6.13-1.46-2.44-2.81-4.92-3.93-7.53-1.09-2.55-3.51-4.01-5.13-6.14-3.5-4.62-8.19-7.82-13.2-10.57-3.22-1.77-6.62-3.21-9.81-5.02-4.7-2.67-9.75-4.3-14.92-5.68-.88-.24-1.8-.06-2.69-.51-2-1.02-4.25-1.31-6.38-1.91-3.52-.99-7.23-.67-10.84-1.47-3.39-.75-6.99-.71-10.49-.76-7.49-.11-14.79,1.29-22.02,3.14-1.54,.39-3.01,.99-4.52,1.42-5.28,1.5-10.61,2.79-16.09,3.31-4.32,.41-8.64,.87-12.95-.15-.65-.15-1.34-.26-2-.21-4.4,.35-8.74-.49-13.11-.69-4-.18-7.98-.76-11.99-.33-.4,.04-.85-.03-1.24-.15-1.48-.48-2.99-.36-4.49-.24-4.58,.35-9.15,.74-13.65,1.8-1.22,.29-2.42,.59-3.61,1.02-5.06,1.81-9.91,4.08-14.67,6.55-3.39,1.76-6.39,4.03-8.27,7.43-1.43,2.59-2.61,5.36-1.57,8.39,.92,2.69,1.97,5.39,4.31,7.22,1.52,1.18,2.98,2.41,4.39,3.72,2.05,1.9,4.62,2.97,6.89,4.51,3.75,2.55,7.77,4.59,11.69,6.82,5.46,3.09,10.85,6.28,16.1,9.71,5.33,3.48,10.74,6.83,16.79,8.88,5.93,2.01,11.47,4.92,17.34,7.09,2.81,1.04,4.79,3.3,6.62,5.63,.72,.92,1.27,1.97,2.19,2.74,1.84,1.54,3.26,3.37,3.89,5.73,.2,.76,.62,1.01,1.43,1.07,5.21,.4,10.42,.84,15.63,1.42,3.71,.42,7.51,.12,11.2,.62,3.07,.41,6.17,.5,9.2,.55,2.59,.05,5.25,.23,7.91,0,4.82-.41,9.7-.47,14.54-.73,.93-.05,1.79,.46,2.73,.2,3.44-.94,6.99-.22,10.47-.61Zm-61.07,246.93c.87,.35,1.39-.02,1.92-.21,2.45-.88,4.57-2.45,6.91-3.5,4.35-1.96,8.56-4.17,12.6-6.68,2.63-1.63,5.55-2.87,7.8-5.01,2.01-1.91,4.36-3.35,6.44-5.15,1.19-1.04,2.26-2.26,3.72-2.97,1.89-.93,3.72-2.12,5.13-3.56,2.2-2.24,4.92-3.39,7.55-4.83,1.45-.79,3.03-.92,4.54-1.37,1.93-.57,2.18-1.11,1.73-3.06-.11-.48-.18-.99-.2-1.48-.22-5.68,.04-11.38-1.27-17-.53-2.27,.07-4.71-.13-6.98-.53-6.21-.66-12.45-1.62-18.63-.67-4.35-1.82-8.63-1.83-13.08,0-2.76-.41-5.5-.35-8.28,.11-5,.1-10.01,.04-15.01-.04-3.01-.15-6.04-.42-9.04-.43-4.82-.54-9.73-2.46-14.29-1.35-3.19-1.86-6.6-2.42-9.93-.71-4.18-.82-8.46-2.06-12.57-.12-.38-.03-.83-.02-1.25,.07-3.77-.26-7.5-1.05-11.19-.17-.81-.24-1.67-.18-2.5,.11-1.44-.12-2.83-.25-4.25-.31-3.25-.75-6.53-.58-9.77,.17-3.14,.8-6.27,1.81-9.33,1.44-4.34,3.11-8.44,6.63-11.58,2.87-2.56,6.04-4.33,9.97-4.47,.36-.01,.65-.12,.82-.45,.19-.37-.05-.64-.26-.9-1.7-2.05-3.95-3.59-5.37-5.9-.19-.31-.69-.45-1.06-.64-1.12-.58-2.24-1.14-3.36-1.71-.6-.3-1.21-.62-1.91-.5-1.96,.35-3.96-.14-5.95,.36-1.26,.31-2.65,.36-3.99,.08-5.34-1.1-10.79-.31-16.18-.88-4.53-.48-9.16,.25-13.65-.97-.4-.11-.83-.08-1.25-.1-5.55-.34-11.14,.08-16.65-1.03-1.51-.3-2.14,.32-2.14,2,0,2.17-.5,4.32-.09,6.51,.21,1.14,.27,2.33,.26,3.5-.02,5.66-.93,11.31-.31,16.98,.03,.24,0,.51-.09,.74-.65,1.71-.45,3.45-.32,5.21,.13,1.84-.03,3.67-.2,5.51-.18,2.04-.28,4.18,.13,6.17,.38,1.84,.41,3.69,.36,5.45-.15,4.83,.23,9.64,.25,14.47,0,1.74-.08,3.54,.18,5.2,.26,1.7,.39,3.26-.09,4.89-.09,.31-.06,.66-.07,1-.11,4.06,.51,8.11-.05,12.17-.3,2.15-.32,4.36-.79,6.47-1.3,5.86-2.81,11.66-4.16,17.51-.41,1.79-.83,3.54-1.6,5.22-.51,1.13-.78,2.38-1.05,3.6-.99,4.48-1.64,9.06-3.26,13.34-.89,2.34-.8,3.62,1.09,5.43,5.08,4.84,8.21,11.15,11.75,17.08,3.39,5.66,6.55,11.44,10.49,16.75,.8,1.07,1.65,1.38,2.78,.72,1.04-.61,2.23-.71,3.35-1.04,5.11-1.54,10.29-2.88,15.01-5.5,.89-.5,1.84-.59,2.5,.27,.69,.89-.15,1.53-.65,2.17-.05,.07-.11,.13-.18,.18-2.8,2.43-5.84,4.45-9.37,5.7-2.67,.95-5.31,2.01-7.9,3.14-2.39,1.04-2.35,1.13-1.09,3.52,.7,1.33,1.64,2.56,1.67,4.15,.01,.85,.04,1.77-.9,2.16-.98,.4-1.62-.29-2.06-1-1.29-2.06-2.78-4.05-3.7-6.26-1.38-3.32-3.76-5.9-5.74-8.78-.29-.42-.54-1.06-1.54-.95,1.24,2.12,.62,4.48,1.31,6.71,1.18,3.83,1.64,7.83,2.22,11.82,.62,4.29,.76,8.56,.85,12.86,.05,2.35,.06,4.69,.36,7.03,.06,.49,.15,1.03,.04,1.49-.68,2.81,.13,5.63-.08,8.48-.18,2.44,.18,4.96-.29,7.53Zm-217.19-47.29c0,.92-.11,1.86,.02,2.76,.74,5.2,1.59,10.38,2.3,15.57,.77,5.6,2.88,10.39,7.46,13.98,1.63,1.28,3.2,2.34,5.33,2.51,2.95,.23,5.76,1.79,8.84,.91,.3-.08,.67,0,.99,.09,1.31,.35,2.66,.28,4,.35,2.24,.12,4.53-.37,6.69,.62,.51,.23,.99-.02,1.43-.25,.46-.24,.92-.39,1.44-.32,2.45,.29,4.89,.62,7.36,.47,.57-.03,1.15,.21,1.73,.25,3.09,.21,6.2,.75,9.25,.51,4.3-.34,8.63-.79,12.92-1.11,6.28-.47,12.57-.94,18.86-1.33,6.28-.39,12.66-.76,18.63-3.19,.22-.09,.52-.15,.73-.07,1.53,.56,2.98-.14,4.47-.24,3.9-.26,7.7-1.22,11.61-1.59,7.23-.68,14.29-2.65,21.47-3.79,1.66-.26,3.28-.99,4.89-.95,3.92,.1,7.57-1.31,11.37-1.8,3.36-.43,6.71-1.17,10.12-1.37,.83-.05,1.66-.23,2.47-.43,2.13-.52,2.79-1.55,2.23-3.63-.31-1.15-.46-2.29-.52-3.46-.35-7.44-.72-14.88-1.07-22.31-.08-1.77-.38-3.5-.93-5.18-.34-1.05-1.04-1.51-2.12-1.14-2.13,.74-4.3,1.01-6.57,1.21-3.37,.3-6.69,1.23-10.05,1.83-4.91,.86-9.82,1.56-14.78,2.04-3.39,.33-6.8,.09-10.18,.71-1.75,.32-3.68,.51-5.45,.36-1.63-.14-3.16-.03-4.7,.3-1.24,.27-2.49,.3-3.73,.45-4.07,.49-8.17,.51-12.22,1.23-5.35,.94-10.83,.68-16.17,2-2.81,.7-5.8,.67-8.71,.91-3.41,.28-6.73,1.16-10.16,1.3-1,.04-2.01-.15-2.99,.19-3.29,1.15-6.73,1.43-10.14,1.28-4.43-.2-8.8,.56-13.21,.72-3.96,.14-7.95-.72-11.89,.26-.42,.11-.95-.24-1.44-.35-3.33-.78-4.56-3.81-6.14-6.21-1.72-2.62-2.36-5.85-3.35-8.86-.97-2.94-1.68-5.94-2.58-8.9-.75-2.46-1.89-4.84-2.19-7.43-.41-3.49-2.13-6.47-3.68-9.49-.98-1.91-2.05-3.84-3.77-5.26-1.11-.93-2.43-1.05-3.35-.01-.93,1.05-1.95,2.09-2.41,3.48-1.79,5.5-3.11,11.07-2.29,16.93,.05,.32,.11,.74-.04,.98-.96,1.61-.3,3.28-.24,4.92,.09,2.49,.26,4.97-.22,7.43-.16,.79-.03,1.5,.22,2.21,.2,.56,.48,1.13,.33,1.7-.73,2.75,.11,5.48,.13,8.21Zm293.4,34.63c3.98-.15,8.33-.9,12.68-1.87,5.39-1.2,9.17-4.3,11.61-9.08,.98-1.92,1.55-4.06-.16-6.05-.54-.63-.79-1.5-1.32-2.13-1.43-1.66-2.1-3.62-2.28-5.73-.47-5.33-2.06-10.52-1.96-15.92,0-.49-.13-1-.28-1.48-.85-2.74-.71-5.65-.66-8.39,.12-6.37-.49-12.71-.55-19.07-.03-3.5,.05-7.03-.29-10.52-.35-3.63-.37-7.28-.64-10.91-.67-9.01-.67-18.07-2.22-27-.34-1.94,.33-3.84-.23-5.71-.67-2.24-.75-4.6-.9-6.85-.24-3.8-1.09-7.49-1.94-11.1-1.65-7.07-2.77-14.26-4.74-21.26-1.06-3.77-2.24-7.49-3.74-11.12-1.97-4.77-3.86-9.58-5.6-14.46-1.09-3.05-2.3-6.11-4.2-8.81-.89-1.26-1.98-2.04-3.52-2.59-3.22-1.16-5.92,0-8.64,1.29-1.43,.68-2.9,1.37-3.86,2.73-2.3,3.25-3.85,6.92-4.64,10.74-1.11,5.4-1.43,10.9-.31,16.42,.44,2.16,.43,4.47,.29,6.68-.1,1.55-.14,2.99,.55,4.39,.5,1,.77,2,.38,3.14-.18,.52-.06,1.16-.01,1.74,.4,5.6,1.47,11.09,2.77,16.55,.23,.97,.43,1.97,.47,2.97,.04,1.29,.48,2.44,.83,3.65,.83,2.84,2.22,5.48,2.15,8.65-.12,5.32,.87,10.6,1,15.95,.09,3.81,.03,7.65,.43,11.46,.09,.89-.41,1.8-.19,2.73,.45,1.97,.19,3.97,.31,5.94,.2,3.24-.22,6.52,.75,9.71,.46,1.5,.98,3.16,.89,4.59-.21,3.33,1.12,6.4,1.14,9.67,.02,3.24,1.16,6.43,.6,9.73-.05,.32,.03,.67,.12,.99,1.43,5.14,.94,10.47,1.59,15.68,.31,2.46,.46,5.06,1.58,7.32,1.4,2.83,1.77,5.93,2.25,8.91,.65,4.03,.93,8.13,1.95,12.11,.17,.65,.23,1.3,.22,1.98-.02,2,.9,3.26,2.9,3.79,1.62,.43,3.28,.71,5.43,.53Zm-64.88-333.74c-.66-.65-1.45-.65-2.18-.63-3.5,.11-6.96-.21-10.38-.9-5.01-1.01-10.2-.51-15.17-1.87-.23-.06-.5-.01-.75-.02-5.65-.17-11.32-.12-16.95-.62-2.87-.26-5.6,.38-8.41,.37-6.28-.02-12.38,1.52-18.51,2.73-4.17,.82-8.26,1.99-12.33,3.23-5.98,1.83-11.93,3.67-17.54,6.56-6.72,3.46-12.15,8.22-16.07,14.69-1.74,2.87-2.84,6-3.95,9.16-1.39,3.94-1.79,7.96-1.93,12.03-.17,4.98,1.96,9.44,3.56,14.01,.11,.31,.29,.61,.51,.86,2.21,2.51,4.22,5.21,6.99,7.18,2.11,1.5,4.35,2.88,6.27,4.6,4.02,3.59,9.11,5.21,13.75,7.64,2.03,1.06,4.33,1.69,6.46,2.67,2.94,1.36,5.84,2.84,9.03,3.66,1.51,.39,2.84,1.59,4.35,1.87,5.12,.94,10.03,2.63,15.11,3.71,2.52,.54,5.11,.64,7.6,1.41,1.66,.52,3.4,.97,5.12,1.2,3.6,.49,7.02,1.43,10.35,2.86,.91,.39,1.95,.52,2.94,.62,1.12,.11,1.57-.53,1.04-1.57-1.37-2.68-2.62-5.52-4.99-7.45-2.14-1.75-4.12-3.89-7.14-4.32-1.58-.23-2.95-1.16-4.41-1.79-.46-.2-.9-.52-1.38-.58-3.7-.44-7.08-1.73-10.37-3.43-6.61-3.4-13.02-7.1-19.25-11.14-5.12-3.32-10.39-6.4-15.51-9.72-3.16-2.05-6.51-3.76-9.67-5.83-2.72-1.77-4.97-4.21-8.1-5.42-1.06-.41-1.92-1.42-2.44-2.47-.87-1.72-1.93-3.33-2.93-4.97-.31-.51-.46-1.06-.59-1.64-1.76-8.23,3-16.14,9.78-19.97,3.13-1.77,6.48-3.1,9.71-4.66,5.8-2.78,11.89-4.4,18.13-5.61,1.39-.27,2.78-.61,4.19-.69,3.71-.21,7.44,.07,11.12-.6,.39-.07,.83,.08,1.24,.15,4.63,.72,9.31,.82,13.98,.95,4.52,.12,9,.63,13.5,.93,3.52,.24,7,.36,10.47-.3,2.61-.5,5.34-.52,7.78-1.84,.47-.25,1.15-.16,1.73-.15,.68,0,1.33-.08,1.97-.31,3.7-1.33,7.45-2.44,11.35-3.05,1.11-.17,2.34-.32,2.94-1.56Zm-45.26,319.89c-.14,4.27,1.1,8.05,2.13,11.79,.7,2.54,1.36,5.14,2.42,7.61,1.39,3.22,2.58,6.5,4.84,9.28,2.53,3.11,4.79,3.98,8.57,2.75,1.06-.35,2.1-.47,3.19-.56,4.63-.36,8.28-4.98,8.24-9.64-.02-3.04-.25-6.17,.71-9.18,.3-.93,.58-1.93,.39-2.96-.45-2.47-.42-4.99-.49-7.46-.15-5.66-.69-11.27-1.36-16.88-.26-2.16-.99-4.21-1.3-6.36-.66-4.56-2.33-8.87-3.83-13.21-.71-2.05-1.76-4.01-2.29-6.1-.76-2.99-2.25-5.69-3.96-8.06-2.52-3.51-5.74-6.53-9.63-8.66-3.45-1.89-7.37-.71-9.25,2.75-1.27,2.34-1.86,4.91-1.54,7.5,.25,2.01,.2,4,.31,6,.06,1.02-.38,1.94-.28,2.98,.43,4.36,.79,8.72,1.15,13.09,.4,4.83,1.16,9.65,.65,14.52-.18,1.77,.12,3.46,.49,5.2,.41,1.93,1.37,3.83,.83,5.61Zm166.29,29.01c.25,0,.51,.03,.75,0,.48-.07,1.08,.04,1.29-.55,.21-.58-.3-.9-.64-1.25-.23-.24-.47-.5-.75-.66-2.24-1.3-4.42-2.68-6.83-3.69-1.61-.67-3.33-1.01-4.92-1.64-2-.79-3.95-1.82-5.82-2.9-1.52-.87-3.48-1.22-4.52-2.63-1.27-1.73-2.77-3.3-3.89-5.13-1.9-3.1-2.88-3.12-5-.16-1.66,2.32-3.79,4.14-6.35,5.49-2.16,1.14-4.63,1.38-6.8,2.54-.88,.47-2.03,.87-3.15,.52-1.65-.52-3.13,.18-4.62,.66-.55,.18-1.03,.54-1.66,.49-3.29-.27-6.63,.55-9.9-.39-.94-.27-1.8,.2-2.6,.7-1.28,.8-2.54,1.63-3.85,2.37-4.62,2.57-8.36,6.08-11.35,10.41-1.29,1.87-1.17,2.28,1.01,2.67,.65,.12,1.37,.19,1.99,.02,2.4-.66,4.96-.63,7.24-1.91,1.45-.81,3.04-1.54,4.65-1.83,2.66-.47,5.07-1.4,7.54-2.46,1.63-.7,3.77-.72,5.57,.04,1.52,.64,2.87,1.57,3.89,3.04,.94,1.36,2.16,2.59,3.46,3.62,2.45,1.94,4.56,4.14,6.47,6.62,1.94,2.52,4.23,4.74,6.68,6.79,.38,.32,.76,.67,1.2,.9,.77,.41,1.55,.02,1.67-.84,.06-.4-.1-.82-.11-1.23-.08-2.42-1.33-4.48-2.12-6.67-1.15-3.21-2.59-6.3-4.2-9.3-.84-1.56-1.72-3.09-1.79-4.9-.07-1.86,.9-2.63,2.7-2.23,1.85,.41,2.66,1.9,3.48,3.37,.9,1.6,1.62,3.36,2.97,4.6,4.11,3.76,9.1,6.18,13.92,8.85,1.57,.87,3.42,.73,5.14,1.03,.88,.15,1.49-.92,.89-1.49-1.29-1.23-1.89-2.9-3.13-4.19-2.73-2.87-5.72-5.39-8.92-7.69-1.2-.86-2.07-1.96-2.69-3.26-.86-1.81,.27-3.44,2.29-3.25,.82,.08,1.66,.33,2.4,.69,4.36,2.1,9.1,2.75,13.77,3.65,1.57,.3,2.96,1.2,4.6,1.19Zm-89.79-232.95c.48-.05,.82-.07,1.15-.11,4.15-.53,8.11-1.93,12.23-2.62,.99-.17,1.94-.51,2.93-.72,1.2-.25,2.17-.89,2.98-1.76,1.02-1.09,1.05-2.01-.04-3.04-1.69-1.6-3.76-2.62-6.07-2.69-2.16-.07-4.34,.22-6.5,.48-6.8,.82-13.68,.4-20.47,1.24-.41,.05-.85,.01-1.25-.08-1.82-.42-3.66-.33-5.5-.37-3.17-.06-6.38,.13-9.49-.33-2.57-.38-5.12-.75-7.72-.77-1.58-.01-3.26,.23-4.71-.22-3.1-.94-6.24-1.31-9.4-1.14-2.36,.13-4.65,.09-6.91-.53-2.1-.58-4.34-.02-6.41-.87-.84-.35-1.71-.32-2.19,.59-.42,.8,.07,1.51,.6,2.02,1.85,1.76,4,3.29,6.49,3.65,4.36,.63,8.75,1.15,13.02,2.22,2,.5,4.02,.31,6.05,.84,3.17,.82,6.13,2.97,9.68,2.06,.28-.07,.66,.1,.96,.24,2.84,1.3,5.9,1.01,8.82,.82,2.15-.15,4.33-.09,6.42-.02,3.41,.12,6.85,0,10.27,.56,1.7,.28,3.49,.21,5.08,.55Zm56.45-24.31c.82,.43,1.26-.2,1.74-.61,.57-.49,1.05-1.08,1.63-1.56,4.68-3.85,8.79-8.15,11.11-13.88,.09-.23,.2-.47,.34-.67,1.4-1.87,1.81-4.07,2.27-6.3,.3-1.45-.3-2.86,.06-4.22,.43-1.63,.15-3.15-.27-4.69-1-3.61-1.98-7.24-3.03-10.83-.42-1.44-.74-2.97-1.94-4.33-.12,.51-.25,.76-.22,.98,.44,3.38,.44,6.75,.12,10.16-.45,4.84-1.18,9.6-2.72,14.22-.5,1.5-1.11,2.94-1.53,4.48-1.47,5.33-3.42,10.47-6.66,15.04-.46,.65-1.15,1.24-.9,2.2Z"/><path d="M429.17,366.1c.1,2.52-1.45,4.43-2.4,6.53-1.27,2.81-2.64,5.56-3.95,8.35-1.18,2.49-2.28,5.01-3.54,7.46-.5,.98-.93,1.94-1.23,2.99-.5,1.76-1.61,3.1-3.14,4.09-1.32,.85-2.18,.52-2.57-1.02-.29-1.16-.2-2.32,.33-3.43,2.43-5.03,4.75-10.12,7.09-15.19,1.56-3.39,3.73-6.51,4.7-10.18,.24-.91,.72-1.69,1.38-2.35,1.18-1.18,2.54-.86,3.05,.76,.2,.62,.18,1.31,.26,1.97Z"/><path d="M398.16,363.98c.11-.37,.23-.85,.38-1.33,2.05-6.53,4.18-13.02,7.12-19.22,.93-1.95,1.38-4.12,2.76-5.86,.21-.26,.32-.6,.53-.85,.69-.81,1.55-1.37,2.62-.93,1.16,.48,1.17,1.55,.94,2.57-.54,2.37-1.59,4.57-2.56,6.77-2.05,4.66-4,9.34-5.51,14.2-.68,2.19-1.7,4.15-3.2,5.87-.56,.64-1.07,1.43-2.05,1.02-.88-.37-.95-1.29-1.05-2.26Z"/></g><path d="M115.66,298.03c3.86,0,3.87-6,0-6s-3.87,6,0,6h0Z"/><path d="M248.8,181.38c3.86,0,3.87-6,0-6s-3.87,6,0,6h0Z"/><path d="M201.88,125.59c3.86,0,3.87-6,0-6s-3.87,6,0,6h0Z"/><path d="M454.2,233.37c3.86,0,3.87-6,0-6s-3.87,6,0,6h0Z"/><path d="M277.96,493.29c3.86,0,3.87-6,0-6s-3.87,6,0,6h0Z"/><path d="M90.31,631.5c3.86,0,3.87-6,0-6s-3.87,6,0,6h0Z"/><path d="M85.23,526.26c3.86,0,3.87-6,0-6s-3.87,6,0,6h0Z"/><path d="M196.81,372.84c3.86,0,3.87-6,0-6s-3.87,6,0,6h0Z"/><path d="M56.07,58.39c3.86,0,3.87-6,0-6s-3.87,6,0,6h0Z"/><path d="M530.28,479.34c3.86,0,3.87-6,0-6s-3.87,6,0,6h0Z"/><path d="M561.98,60.93c3.86,0,3.87-6,0-6s-3.87,6,0,6h0Z"/><path d="M438.99,62.19c3.86,0,3.87-6,0-6s-3.87,6,0,6h0Z"/></svg>